<svg id="agri-startup" xmlns="http://www.w3.org/2000/svg" width="235.197" height="97.004" viewBox="0 0 235.197 97.004">
  <rect id="Rectangle_4" data-name="Rectangle 4" width="235.197" height="97.004" fill="#fff"/>
  <g id="Group_8" data-name="Group 8" transform="translate(1.948 12.66)">
    <path id="Path_15" data-name="Path 15" d="M50.242,0H47.77a14.263,14.263,0,0,1-2.052.276c-.671.1-1.3.232-1.945.377A44.146,44.146,0,0,0,33.45,4.424a34.933,34.933,0,0,0-8.158,5.88c-.414.389-.7.8-1.117,1.192-.232.22-.339.4-.558.628s-.383.439-.546.628A31.288,31.288,0,0,0,19.425,18.4,37.745,37.745,0,0,0,15.71,33.384a46.066,46.066,0,0,0,.508,8.785c.119-.74.088-1.839.144-2.636a40.682,40.682,0,0,1,1.1-7.135A30.748,30.748,0,0,1,20.6,24.479,27.8,27.8,0,0,1,31.988,13.743C41.495,8.66,50.964,9.1,53.757,7.9c3.094-1.33,3.6-4.769.753-6.6C52.633.088,50.908.289,50.242,0Z" transform="translate(-5.84)" fill="#00a551" fill-rule="evenodd"/>
    <path id="Path_16" data-name="Path 16" d="M27.187,69.3c-1.381-.157-5.1-1.883-6.426-2.617a21.756,21.756,0,0,1-7.273-6.419,19.239,19.239,0,0,1-1.744-2.818A28.966,28.966,0,0,1,9.284,50.8C7.7,43.681,8.229,37.161,9.252,29.982a5.99,5.99,0,0,0-.389-3.822c-1.142-2.272-3.8-3.138-5.685-.91C.31,28.614.643,35.768,1.233,40.725,2.419,50.546,6.7,58.484,14.448,63.943A31.564,31.564,0,0,0,20.3,67.2c1.092.439,2.134.86,3.313,1.255a18.78,18.78,0,0,0,3.571.847Z" transform="translate(-0.31 -8.923)" fill="#f16522" fill-rule="evenodd"/>
    <path id="Path_17" data-name="Path 17" d="M0,82.7v.916c.2.4.295.979.565,1.481,1.418,2.629,5.309,4.7,8,5.88,11.333,4.976,25.728,6.67,36.4-.728l1.054-.828c-.891.4-1.826.885-2.786,1.293a29.13,29.13,0,0,1-23.588-.364A44.409,44.409,0,0,1,9.519,84.074L7.285,82.192c-.326-.314-.766-.628-1.092-.941a3.8,3.8,0,0,0-4.455-.828C.289,81.112.307,82.041,0,82.7Z" transform="translate(0 -29.807)" fill="#ec7c1f" fill-rule="evenodd"/>
    <path id="Path_18" data-name="Path 18" d="M108.254,57.63l-3.2-2.391c-.169.151-.27.307-.458.5a4.217,4.217,0,0,1-5.133.941C95.39,54.794,95.584,48.4,99,46.429a5.208,5.208,0,0,1,3.276-.628,4.462,4.462,0,0,1,1.487.483c.791.427.778.678,1.18.891a14.571,14.571,0,0,1,1.437-1.217l1.456-1.2a5.6,5.6,0,0,0-1.883-1.575c-4.43-2.592-13.943-.4-13.548,8.785.295,6.859,6.7,9.8,11.722,8.459a7.091,7.091,0,0,0,4.123-2.767Z" transform="translate(-34.414 -15.706)" fill="#333" fill-rule="evenodd"/>
    <path id="Path_19" data-name="Path 19" d="M81.947,57.607l-1.556-1.18a14.613,14.613,0,0,1-1.575-1.2c-.307.188-.245.257-.477.533a4.612,4.612,0,0,1-1.807,1.13c-4.518,1.355-7.919-3.8-5.723-8.377a4.92,4.92,0,0,1,5.127-2.7,4.135,4.135,0,0,1,2.648,1.349,5.535,5.535,0,0,0,.74-.59,7.292,7.292,0,0,0,.74-.628l1.462-1.2a4.913,4.913,0,0,0-1.832-1.606,9.926,9.926,0,0,0-8.5-.1,9.155,9.155,0,0,0-2.1,1.337,7.417,7.417,0,0,0-1.606,1.883c-2.642,4.06-1.732,11.49,4.324,13.73a9.557,9.557,0,0,0,8.377-.671,5.572,5.572,0,0,0,1.757-1.751Z" transform="translate(-24.617 -15.695)" fill="#333" fill-rule="evenodd"/>
    <path id="Path_20" data-name="Path 20" d="M36.424,53.684l7.285-.069V50.108L36.581,50.1l-.151-.063-.006-3.552h7.932V42.91H32.546l-.006,17.6,3.853.013.031-6.834Z" transform="translate(-12.121 -15.983)" fill="#333" fill-rule="evenodd"/>
    <path id="Path_21" data-name="Path 21" d="M71,82.1a26.87,26.87,0,0,1-3.765,7.179,23.481,23.481,0,0,1-5.56,5.378c-2.993,2.14-8.208,4.255-12.211,4.211-.7,0-1.456,0-1.883.816a1.569,1.569,0,0,0,.42,1.952c2.077,1.625,6.689-.3,8.641-1.155A25.182,25.182,0,0,0,67.983,89.95C68.911,88.25,70.9,83.97,71,82.1Z" transform="translate(-17.656 -30.581)" fill="#f3a119" fill-rule="evenodd"/>
    <path id="Path_22" data-name="Path 22" d="M55.68,43.01h3.828V60.474H55.68Z" transform="translate(-20.74 -16.021)" fill="#333" fill-rule="evenodd"/>
    <path id="Path_23" data-name="Path 23" d="M120.83,43.01h3.834V60.474H120.83Z" transform="translate(-45.008 -16.021)" fill="#333" fill-rule="evenodd"/>
    <path id="Path_24" data-name="Path 24" d="M172.054,34.707H166l-1.155,2.8h-3.1l5.8-13.046h2.981l5.836,13.046H173.2Zm-.948-2.29-2.071-5.02-2.071,5.02Z" transform="translate(-60.25 -9.111)" fill="#333"/>
    <path id="Path_25" data-name="Path 25" d="M196.658,29.184V37.53c0,3.727-2.014,5.447-5.648,5.447a8.277,8.277,0,0,1-4.92-1.381l1.155-2.09a5.986,5.986,0,0,0,3.539,1.136c2.052,0,2.943-.929,2.943-2.736V37.48a4.129,4.129,0,0,1-3.138,1.255,4.847,4.847,0,1,1,0-9.689,4.035,4.035,0,0,1,3.313,1.437v-1.3Zm-2.874,4.694a2.642,2.642,0,1,0-2.623,2.46,2.435,2.435,0,0,0,2.623-2.46Z" transform="translate(-69.122 -10.817)" fill="#333"/>
    <path id="Path_26" data-name="Path 26" d="M213.784,28.993v2.686c-.238,0-.427-.038-.628-.038a2.464,2.464,0,0,0-2.661,2.8v4.731h-2.9V29.131h2.767v1.324a4.054,4.054,0,0,1,3.427-1.462Z" transform="translate(-77.324 -10.795)" fill="#333"/>
    <path id="Path_27" data-name="Path 27" d="M219.66,23.493a1.663,1.663,0,0,1,1.807-1.619,1.632,1.632,0,0,1,1.807,1.563,1.814,1.814,0,0,1-3.614.056Zm.358,3.018h2.9v10.04h-2.9Z" transform="translate(-81.82 -8.144)" fill="#333"/>
    <path id="Path_28" data-name="Path 28" d="M236.27,36.089l1.023-2.272a7.693,7.693,0,0,0,4.3,1.355c1.788,0,2.51-.628,2.51-1.393,0-2.441-7.587-.766-7.587-5.61,0-2.221,1.788-4.06,5.5-4.06a8.748,8.748,0,0,1,4.537,1.186l-.935,2.29A7.354,7.354,0,0,0,242,26.55c-1.788,0-2.479.665-2.479,1.487,0,2.4,7.587.747,7.587,5.535,0,2.177-1.807,4.041-5.535,4.041a9.306,9.306,0,0,1-5.309-1.525Z" transform="translate(-88.007 -8.98)" fill="#333"/>
    <path id="Path_29" data-name="Path 29" d="M262.264,37.493a4.11,4.11,0,0,1-2.366.628c-2.366,0-3.765-1.211-3.765-3.6v-4.11H254.59v-2.23h1.544V25.74h2.912v2.441h2.51v2.234h-2.51v4.079a1.167,1.167,0,0,0,1.255,1.324,2,2,0,0,0,1.173-.37Z" transform="translate(-94.831 -9.588)" fill="#333"/>
    <path id="Path_30" data-name="Path 30" d="M277.908,33.474V39.2h-2.717V37.942a3.3,3.3,0,0,1-3.056,1.393c-2.347,0-3.765-1.3-3.765-3.037s1.255-3,4.3-3h2.309c0-1.255-.747-1.97-2.309-1.97a4.819,4.819,0,0,0-2.887.929l-1.023-2A7.762,7.762,0,0,1,273.083,29C276.139,29,277.908,30.437,277.908,33.474ZM275,36.028V35.005h-2c-1.355,0-1.788.5-1.788,1.173s.628,1.211,1.644,1.211A2.14,2.14,0,0,0,275,36.028Z" transform="translate(-99.964 -10.802)" fill="#333"/>
    <path id="Path_31" data-name="Path 31" d="M294,28.994V31.68c-.238,0-.427-.038-.627-.038a2.464,2.464,0,0,0-2.661,2.8v4.731H287.8V29.132h2.78v1.324A4.054,4.054,0,0,1,294,28.994Z" transform="translate(-107.202 -10.796)" fill="#333"/>
    <path id="Path_32" data-name="Path 32" d="M306.755,37.493a4.11,4.11,0,0,1-2.366.628c-2.366,0-3.765-1.211-3.765-3.6v-4.11H299.08v-2.23h1.544V25.74h2.912v2.441h2.51v2.234h-2.51v4.079a1.167,1.167,0,0,0,1.255,1.324,2,2,0,0,0,1.173-.37Z" transform="translate(-111.403 -9.588)" fill="#333"/>
    <path id="Path_33" data-name="Path 33" d="M323.958,29.27V39.31H321.2V38.118a4.066,4.066,0,0,1-3.138,1.337c-2.51,0-4.286-1.412-4.286-4.506V29.3h2.9v5.24c0,1.675.747,2.422,2.033,2.422s2.309-.86,2.309-2.7V29.3Z" transform="translate(-116.879 -10.903)" fill="#333"/>
    <path id="Path_34" data-name="Path 34" d="M345.26,34.191a4.877,4.877,0,0,1-5.02,5.158,3.878,3.878,0,0,1-2.968-1.211v4.675H334.36V29.177h2.78v1.155a3.909,3.909,0,0,1,3.138-1.305,4.856,4.856,0,0,1,4.982,5.164Zm-2.943,0a2.56,2.56,0,1,0-5.1,0,2.548,2.548,0,1,0,5.077,0Z" transform="translate(-124.545 -10.81)" fill="#333"/>
    <path id="Path_35" data-name="Path 35" d="M353.28,38.28l.973-2.083a6.846,6.846,0,0,0,3.483.979c1.343,0,1.845-.351,1.845-.91,0-1.644-6.055,0-6.055-3.972,0-1.883,1.713-3.244,4.637-3.244a8.264,8.264,0,0,1,3.859.879L361.049,32a5.679,5.679,0,0,0-2.887-.747c-1.3,0-1.883.408-1.883.929,0,1.713,6.056.056,6.056,4.01,0,1.883-1.732,3.181-4.731,3.181a8.622,8.622,0,0,1-4.324-1.092Z" transform="translate(-131.592 -10.82)" fill="#333"/>
    <path id="Path_36" data-name="Path 36" d="M172.054,75.8H166l-1.155,2.792h-3.1l5.8-13.04h2.981l5.836,13.04H173.2Zm-.948-2.29-2.071-5.02-2.071,5.02Z" transform="translate(-60.25 -24.416)" fill="#333"/>
    <path id="Path_37" data-name="Path 37" d="M201.386,70.36,197.753,80.4h-2.8L192.7,74.182,190.373,80.4h-2.8L183.96,70.36h2.74l2.366,6.783,2.447-6.783h2.46l2.385,6.783L198.8,70.36Z" transform="translate(-68.523 -26.208)" fill="#333"/>
    <path id="Path_38" data-name="Path 38" d="M221.838,74.57v5.717h-2.717V79.032a3.288,3.288,0,0,1-3.056,1.4c-2.353,0-3.765-1.305-3.765-3.037s1.255-3,4.3-3h2.309c0-1.255-.747-1.977-2.309-1.977a4.832,4.832,0,0,0-2.893.935L212.67,71.32a7.7,7.7,0,0,1,4.324-1.211C220.069,70.115,221.838,71.533,221.838,74.57Zm-2.9,2.554V76.1h-2c-1.362,0-1.788.5-1.788,1.173s.627,1.211,1.638,1.211a2.146,2.146,0,0,0,2.146-1.355Z" transform="translate(-79.079 -26.114)" fill="#333"/>
    <path id="Path_39" data-name="Path 39" d="M237.93,70.12v2.686c-.245,0-.427-.038-.628-.038a2.463,2.463,0,0,0-2.667,2.792v4.731h-2.9V70.252h2.78v1.324a3.981,3.981,0,0,1,3.42-1.456Z" transform="translate(-86.316 -26.119)" fill="#333"/>
    <path id="Path_40" data-name="Path 40" d="M254.008,64.3V78.105h-2.78V76.969a3.84,3.84,0,0,1-3.138,1.305,5.163,5.163,0,0,1,0-10.323,3.859,3.859,0,0,1,3.006,1.211V64.3Z" transform="translate(-90.54 -23.951)" fill="#333"/>
    <path id="Path_41" data-name="Path 41" d="M263.23,79.362l.973-2.09a6.846,6.846,0,0,0,3.483.973c1.343,0,1.845-.358,1.845-.916,0-1.638-6.055.038-6.055-3.966,0-1.883,1.713-3.244,4.637-3.244a8.246,8.246,0,0,1,3.859.879L271,73.062a5.785,5.785,0,0,0-2.9-.747c-1.3,0-1.883.414-1.883.935,0,1.713,6.055.056,6.055,4,0,1.883-1.732,3.188-4.731,3.188a8.622,8.622,0,0,1-4.317-1.079Z" transform="translate(-98.05 -26.118)" fill="#333"/>
    <path id="Path_42" data-name="Path 42" d="M297.287,76v2.46h-9.858V76.5l5.02-4.75c1.155-1.1,1.362-1.77,1.362-2.4,0-1.023-.709-1.619-2.09-1.619a3.175,3.175,0,0,0-2.7,1.305l-2.2-1.418A6.079,6.079,0,0,1,292,65.19c2.9,0,4.844,1.493,4.844,3.859,0,1.255-.351,2.422-2.177,4.116l-3,2.83Z" transform="translate(-106.837 -24.282)" fill="#333"/>
    <path id="Path_43" data-name="Path 43" d="M305.44,71.936c0-4.3,2.385-6.746,5.585-6.746s5.591,2.441,5.591,6.746-2.366,6.746-5.591,6.746S305.44,76.241,305.44,71.936Zm8.158,0c0-2.962-1.042-4.192-2.554-4.192s-2.51,1.255-2.51,4.192,1.042,4.192,2.51,4.192,2.535-1.23,2.535-4.192Z" transform="translate(-113.772 -24.282)" fill="#333"/>
    <path id="Path_44" data-name="Path 44" d="M334.794,76v2.46h-9.852V76.5l5.02-4.75c1.155-1.1,1.362-1.77,1.362-2.4,0-1.023-.709-1.619-2.083-1.619a3.181,3.181,0,0,0-2.7,1.3l-2.2-1.418a6.059,6.059,0,0,1,5.177-2.422c2.9,0,4.844,1.493,4.844,3.859,0,1.255-.351,2.422-2.177,4.116L329.147,76Z" transform="translate(-120.812 -24.282)" fill="#333"/>
    <line id="Line_1" data-name="Line 1" y2="53.219" transform="translate(90.663 9.701)" fill="none" stroke="#333" stroke-miterlimit="10" stroke-width="1"/>
    <path id="Path_45" data-name="Path 45" d="M334.794,76v2.46h-9.852V76.5l5.02-4.75c1.155-1.1,1.362-1.77,1.362-2.4,0-1.023-.709-1.619-2.083-1.619a3.181,3.181,0,0,0-2.7,1.3l-2.2-1.418a6.059,6.059,0,0,1,5.177-2.422c2.9,0,4.844,1.493,4.844,3.859,0,1.255-.351,2.422-2.177,4.116L329.147,76Z" transform="translate(-109.674 -24.282)" fill="#333"/>
    <path id="Path_46" data-name="Path 46" d="M250.208,72.071a2.378,2.378,0,1,0,.039.039Z" transform="translate(-91.166 -24.611)" fill="#fff"/>
  </g>
</svg>
