<svg xmlns="http://www.w3.org/2000/svg" xmlns:xlink="http://www.w3.org/1999/xlink" width="135.43" height="32.294" viewBox="0 0 135.43 32.294"><defs><style>.a{fill:#1544ce;}.b{clip-path:url(#a);}</style><clipPath id="a"><rect class="a" width="135.43" height="32.294"/></clipPath></defs><g transform="translate(22439.924 22401)"><g transform="translate(-22439.924 -22401)"><g class="b" transform="translate(0 0)"><path class="a" d="M20.114,6.429,17.7,4.023A13.214,13.214,0,0,0,13.805,8a6.3,6.3,0,0,0-2.1-1.587,7.353,7.353,0,0,0-3.223-.687A8.118,8.118,0,0,0,4.135,6.9,8.377,8.377,0,0,0,1.11,10.165,9.887,9.887,0,0,0,0,14.894a9.674,9.674,0,0,0,1.11,4.692,8.663,8.663,0,0,0,3.041,3.263,7.988,7.988,0,0,0,4.336,1.213,7.474,7.474,0,0,0,3.259-.687A6.193,6.193,0,0,0,13.814,21.8,13.2,13.2,0,0,0,17.7,25.765l2.414-2.4a14.118,14.118,0,0,1,.005-16.935m-7.6,11.437a3.518,3.518,0,0,1-.282.273,3.778,3.778,0,0,1-2.577.886,3.914,3.914,0,0,1-2.02-.525,3.806,3.806,0,0,1-1.421-1.468,4.577,4.577,0,0,1,0-4.275,3.842,3.842,0,0,1,1.421-1.468,3.914,3.914,0,0,1,2.02-.525,4.081,4.081,0,0,1,2.076.525,3.566,3.566,0,0,1,.5.355,3.459,3.459,0,0,1,.884,1.1,4.594,4.594,0,0,1,.472,2.12,4.253,4.253,0,0,1-1.074,3.008" transform="translate(0 1.164)"/><path class="a" d="M41.9,23.635a9.065,9.065,0,0,1-4.316-1.015,7.444,7.444,0,0,1-2.968-2.772,7.684,7.684,0,0,1-1.057-4.042V5.624h5.61V15.737a3.532,3.532,0,0,0,.329,1.574,2.36,2.36,0,0,0,.948,1.033,2.83,2.83,0,0,0,1.456.364,2.479,2.479,0,0,0,1.949-.8,3.155,3.155,0,0,0,.71-2.174V5.624h5.61V15.807a7.866,7.866,0,0,1-1.038,4.077,7.3,7.3,0,0,1-2.9,2.756,9.044,9.044,0,0,1-4.336,1" transform="translate(9.708 1.627)"/><path class="a" d="M30.172,5.7v1.43a6.311,6.311,0,0,0-1.623-1.1,7.353,7.353,0,0,0-3.223-.687,8.112,8.112,0,0,0-7.4,4.439,10.046,10.046,0,0,0-1.092,4.729A9.828,9.828,0,0,0,17.93,19.2a8.572,8.572,0,0,0,3.007,3.262,8.012,8.012,0,0,0,4.389,1.214,7.433,7.433,0,0,0,3.206-.687,6.362,6.362,0,0,0,1.64-1.106v8.861h5.535V5.7ZM26.455,18.641a4.015,4.015,0,0,1-2.04-.525,3.55,3.55,0,0,1-1.4-1.468,4.549,4.549,0,0,1-.491-2.136,4.415,4.415,0,0,1,.509-2.139,3.726,3.726,0,0,1,1.4-1.468,3.991,3.991,0,0,1,2.058-.525,3.894,3.894,0,0,1,2.041.525,3.8,3.8,0,0,1,1.383,1.45,4.308,4.308,0,0,1,.511,2.12,4.165,4.165,0,0,1-1.111,3.008,3.78,3.78,0,0,1-2.86,1.159" transform="translate(4.871 1.546)"/><path class="a" d="M61.9,7.189a6.431,6.431,0,0,0-1.657-1.129,7.363,7.363,0,0,0-3.224-.687,8.129,8.129,0,0,0-4.353,1.176A8.372,8.372,0,0,0,49.64,9.811a9.887,9.887,0,0,0-1.11,4.729,9.674,9.674,0,0,0,1.11,4.692,8.653,8.653,0,0,0,3.043,3.262,7.97,7.97,0,0,0,4.335,1.214,7.474,7.474,0,0,0,3.259-.687,6.35,6.35,0,0,0,1.622-1.1v1.429h5.5V5.732H61.9ZM58.183,18.669a3.918,3.918,0,0,1-2.022-.525,3.825,3.825,0,0,1-1.421-1.468,4.586,4.586,0,0,1,0-4.275,3.852,3.852,0,0,1,1.421-1.468,3.918,3.918,0,0,1,2.022-.525,4.089,4.089,0,0,1,2.077.525,3.479,3.479,0,0,1,1.383,1.45,4.578,4.578,0,0,1,.473,2.12,4.247,4.247,0,0,1-1.074,3.008,3.711,3.711,0,0,1-2.86,1.159" transform="translate(14.038 1.554)"/><path class="a" d="M71.983,10.023A2.9,2.9,0,0,1,73.4,9.751a5.551,5.551,0,0,1,2.013.4,4.661,4.661,0,0,1,1.866,1.377l3.154-3.19a7.439,7.439,0,0,0-3.1-2.3,10.846,10.846,0,0,0-4.15-.78,8.948,8.948,0,0,0-3.734.726,5.862,5.862,0,0,0-2.464,1.975,5.038,5.038,0,0,0-.87,2.954,5.059,5.059,0,0,0,.616,2.628,4.532,4.532,0,0,0,1.595,1.613,9.267,9.267,0,0,0,2.065.906q1.087.325,2.065.6a7.765,7.765,0,0,1,1.614.616,1.084,1.084,0,0,1,.634,1,.885.885,0,0,1-.526.8,3.165,3.165,0,0,1-1.5.29,6.411,6.411,0,0,1-2.609-.525A6.145,6.145,0,0,1,68,17.363l-3.154,3.19a9.254,9.254,0,0,0,2.193,1.721,11.321,11.321,0,0,0,2.79,1.142,11.918,11.918,0,0,0,3.063.4,8.253,8.253,0,0,0,5.237-1.523A4.934,4.934,0,0,0,80.065,18.2a5.223,5.223,0,0,0-.616-2.7,4.861,4.861,0,0,0-1.595-1.649,9.521,9.521,0,0,0-2.065-.979q-1.087-.362-2.067-.616a7.393,7.393,0,0,1-1.594-.58.975.975,0,0,1-.616-.869.854.854,0,0,1,.471-.78" transform="translate(18.757 1.521)"/><path class="a" d="M91.443,7.188a6.41,6.41,0,0,0-1.649-1.129,7.312,7.312,0,0,0-3.208-.69,7.974,7.974,0,0,0-4.332,1.2,8.518,8.518,0,0,0-3.008,3.262A9.83,9.83,0,0,0,78.14,14.54a9.83,9.83,0,0,0,1.106,4.712,8.518,8.518,0,0,0,3.008,3.262,7.974,7.974,0,0,0,4.332,1.2,7.428,7.428,0,0,0,3.226-.69,6.239,6.239,0,0,0,1.631-1.1v1.43H96.88V5.733H91.443Zm-3.734,11.52a3.867,3.867,0,0,1-2.029-.544,3.8,3.8,0,0,1-1.414-1.485,4.45,4.45,0,0,1-.507-2.139,4.391,4.391,0,0,1,.525-2.175A3.842,3.842,0,0,1,85.7,10.9a4.25,4.25,0,0,1,4.1,0,3.592,3.592,0,0,1,1.377,1.467,4.657,4.657,0,0,1,.489,2.175,4.235,4.235,0,0,1-1.087,2.99,3.71,3.71,0,0,1-2.863,1.178" transform="translate(22.603 1.553)"/><path class="a" d="M108.077,7.285h-3.986V0H98.544V7.285H94.558V12h3.986V24.9h5.546V12h3.986Z" transform="translate(27.352 0)"/></g></g></g></svg>