<svg xmlns="http://www.w3.org/2000/svg" width="150.68" height="21.811" viewBox="0 0 150.68 21.811">
  <g id="Group_12834" data-name="Group 12834" transform="translate(-238.91 -8.93)">
    <g id="Group_12239" data-name="Group 12239">
      <path id="Path_20366" data-name="Path 20366" d="M387.05,13.64h.71l-1.02-1.29a.953.953,0,0,0,.35-.1.811.811,0,0,0,.47-.78.852.852,0,0,0-.12-.46.815.815,0,0,0-.35-.31,1.063,1.063,0,0,0-.51-.11h-1.2v3.05h.59V12.37h.1l.97,1.27Zm-1.08-2.57h.55a.431.431,0,0,1,.33.12.407.407,0,0,1,.12.3.392.392,0,0,1-.12.3.5.5,0,0,1-.34.11h-.55v-.83Z" fill="#1544ce"/>
      <path id="Path_20367" data-name="Path 20367" d="M386.41,15.37a3.18,3.18,0,1,1,3.18-3.18A3.188,3.188,0,0,1,386.41,15.37Zm0-5.78a2.6,2.6,0,1,0,2.6,2.6A2.608,2.608,0,0,0,386.41,9.59Z" fill="#1544ce"/>
    </g>
    <g id="Group_12242" data-name="Group 12242">
      <g id="Group_12240" data-name="Group 12240">
        <path id="Path_20368" data-name="Path 20368" d="M252.47,14.05l-1.63-1.62a8.928,8.928,0,0,0-2.62,2.68,4.187,4.187,0,0,0-1.41-1.07,4.964,4.964,0,0,0-2.17-.46,5.486,5.486,0,0,0-2.94.79,5.629,5.629,0,0,0-2.04,2.2,6.677,6.677,0,0,0-.75,3.19,6.569,6.569,0,0,0,.75,3.17,5.862,5.862,0,0,0,2.05,2.2,5.349,5.349,0,0,0,2.93.82,5.182,5.182,0,0,0,2.2-.46,4.113,4.113,0,0,0,1.39-1.06,8.781,8.781,0,0,0,2.62,2.67l1.63-1.62a9.53,9.53,0,0,1,0-11.42m-5.13,7.72a1.071,1.071,0,0,1-.19.18,2.556,2.556,0,0,1-1.74.6,2.568,2.568,0,0,1-2.32-1.34,3.06,3.06,0,0,1,0-2.88,2.684,2.684,0,0,1,.96-.99,2.6,2.6,0,0,1,1.36-.35,2.879,2.879,0,0,1,1.4.35,2.616,2.616,0,0,1,.34.24,2.277,2.277,0,0,1,.6.74,3.106,3.106,0,0,1,.32,1.43,2.842,2.842,0,0,1-.73,2.03" fill="#1544ce"/>
        <path id="Path_20369" data-name="Path 20369" d="M273.72,25.97a6.184,6.184,0,0,1-2.91-.68,5.019,5.019,0,0,1-2-1.87,5.147,5.147,0,0,1-.71-2.73V13.82h3.79v6.82a2.334,2.334,0,0,0,.22,1.06,1.667,1.667,0,0,0,.64.7,1.95,1.95,0,0,0,.98.24,1.64,1.64,0,0,0,1.31-.54,2.133,2.133,0,0,0,.48-1.47V13.81h3.79v6.87a5.282,5.282,0,0,1-.7,2.75,4.988,4.988,0,0,1-1.95,1.86,6.08,6.08,0,0,1-2.92.67" fill="#1544ce"/>
        <path id="Path_20370" data-name="Path 20370" d="M262.54,13.82v.96a4.19,4.19,0,0,0-1.09-.74,4.978,4.978,0,0,0-2.18-.46,5.545,5.545,0,0,0-2.95.79,5.487,5.487,0,0,0-2.04,2.2,6.79,6.79,0,0,0-.74,3.19,6.68,6.68,0,0,0,.74,3.17,5.811,5.811,0,0,0,2.03,2.2,5.379,5.379,0,0,0,2.96.82,5.1,5.1,0,0,0,2.16-.46,4.333,4.333,0,0,0,1.11-.75v5.98h3.73V13.82Zm-2.51,8.73a2.775,2.775,0,0,1-1.38-.35,2.513,2.513,0,0,1-.95-.99,3.057,3.057,0,0,1-.33-1.44,2.947,2.947,0,0,1,.34-1.44,2.513,2.513,0,0,1,.95-.99,2.636,2.636,0,0,1,1.39-.35,2.7,2.7,0,0,1,1.38.35,2.58,2.58,0,0,1,.93.98,2.881,2.881,0,0,1,.34,1.43,2.812,2.812,0,0,1-.75,2.03,2.554,2.554,0,0,1-1.93.78" fill="#1544ce"/>
        <path id="Path_20371" data-name="Path 20371" d="M290.13,14.83a4.251,4.251,0,0,0-1.12-.76,4.978,4.978,0,0,0-2.18-.46,5.486,5.486,0,0,0-2.94.79,5.629,5.629,0,0,0-2.04,2.2,6.677,6.677,0,0,0-.75,3.19,6.569,6.569,0,0,0,.75,3.17,5.862,5.862,0,0,0,2.05,2.2,5.349,5.349,0,0,0,2.93.82,5.182,5.182,0,0,0,2.2-.46,4.27,4.27,0,0,0,1.09-.74v.96h3.71V13.86h-3.71v.98Zm-2.51,7.75a2.567,2.567,0,0,1-2.32-1.34,3.06,3.06,0,0,1,0-2.88,2.684,2.684,0,0,1,.96-.99,2.6,2.6,0,0,1,1.36-.35,2.879,2.879,0,0,1,1.4.35,2.312,2.312,0,0,1,.93.98,3.106,3.106,0,0,1,.32,1.43,2.842,2.842,0,0,1-.73,2.03,2.509,2.509,0,0,1-1.93.78" fill="#1544ce"/>
      </g>
      <g id="Group_12241" data-name="Group 12241">
        <path id="Path_20372" data-name="Path 20372" d="M306.24,14.4a5.57,5.57,0,0,0-3-.81,4.9,4.9,0,0,0-2.2.49,4.2,4.2,0,0,0-.9.58v-.82H296.4v16.9h3.69V24.92a4.342,4.342,0,0,0,.95.59,5.162,5.162,0,0,0,2.2.46,5.561,5.561,0,0,0,5.05-3.01,6.609,6.609,0,0,0,.75-3.18,6.609,6.609,0,0,0-.75-3.18,5.718,5.718,0,0,0-2.05-2.2Zm-1.33,6.82a2.587,2.587,0,0,1-.94,1,2.693,2.693,0,0,1-1.41.37,2.56,2.56,0,0,1-1.37-.37,2.448,2.448,0,0,1-.94-1,3.057,3.057,0,0,1-.33-1.44,3.093,3.093,0,0,1,.34-1.47,2.559,2.559,0,0,1,.94-.99,2.624,2.624,0,0,1,1.38-.35,2.721,2.721,0,0,1,1.38.35,2.559,2.559,0,0,1,.94.99,3.011,3.011,0,0,1,.34,1.47,2.893,2.893,0,0,1-.34,1.44Z" fill="#1544ce"/>
        <path id="Path_20373" data-name="Path 20373" d="M319.19,14.82a4.365,4.365,0,0,0-1.11-.76,4.92,4.92,0,0,0-2.16-.46,5.344,5.344,0,0,0-2.92.81,5.822,5.822,0,0,0-2.03,2.2,6.609,6.609,0,0,0-.75,3.18,6.609,6.609,0,0,0,.75,3.18,5.745,5.745,0,0,0,2.03,2.2,5.368,5.368,0,0,0,2.92.81,5.189,5.189,0,0,0,2.18-.46,4.329,4.329,0,0,0,1.1-.74v.96h3.67V13.86H319.2v.98Zm-2.52,7.77a2.56,2.56,0,0,1-1.37-.37,2.472,2.472,0,0,1-.95-1,2.947,2.947,0,0,1-.34-1.44,3.1,3.1,0,0,1,.35-1.47,2.658,2.658,0,0,1,.95-.99,2.624,2.624,0,0,1,1.38-.35,2.721,2.721,0,0,1,1.38.35,2.465,2.465,0,0,1,.93.99,3.124,3.124,0,0,1,.33,1.47,2.85,2.85,0,0,1-.73,2.02A2.5,2.5,0,0,1,316.67,22.59Z" fill="#1544ce"/>
        <path id="Path_20374" data-name="Path 20374" d="M333.8,13.85a4.586,4.586,0,0,0-4.56.89v-.9H325.5V25.72h3.74V19.19a2.37,2.37,0,0,1,.55-1.72,1.966,1.966,0,0,1,1.48-.57,2.155,2.155,0,0,1,.83.15,1.663,1.663,0,0,1,.61.42l2.23-2.81a3.048,3.048,0,0,0-1.14-.79Z" fill="#1544ce"/>
        <path id="Path_20375" data-name="Path 20375" d="M341.49,8.93h-3.74v4.91h-2.69v3.18h2.69v8.71h3.74V17.02h2.69V13.84h-2.69Z" fill="#1544ce"/>
        <path id="Path_20376" data-name="Path 20376" d="M355.22,14.22a4.355,4.355,0,0,0-2.34-.62,5.334,5.334,0,0,0-2.46.57,4.476,4.476,0,0,0-.87.6v-.93h-3.74V25.72h3.74V18.95a2.176,2.176,0,0,1,.27-1.09,1.831,1.831,0,0,1,.73-.73,2.212,2.212,0,0,1,1.08-.26,2,2,0,0,1,1.46.57,2.028,2.028,0,0,1,.57,1.5v6.77h3.74v-7.6a4.446,4.446,0,0,0-.59-2.25,4.681,4.681,0,0,0-1.6-1.65Z" fill="#1544ce"/>
        <path id="Path_20377" data-name="Path 20377" d="M368.51,14.33a6.178,6.178,0,0,0-3.11-.76,6.585,6.585,0,0,0-3.25.81,6.226,6.226,0,0,0-2.29,2.21,6.1,6.1,0,0,0-.84,3.19,5.967,5.967,0,0,0,3.22,5.41,7.764,7.764,0,0,0,6.18.28,5.612,5.612,0,0,0,2.13-1.54l-2.05-2.05a3.5,3.5,0,0,1-1.25.92,4.025,4.025,0,0,1-1.59.31,3.2,3.2,0,0,1-1.65-.4,2.792,2.792,0,0,1-1.08-1.15,3.659,3.659,0,0,1-.21-.53l8.51-.02a8.023,8.023,0,0,0,.13-.82c.02-.24.04-.46.04-.67a6.122,6.122,0,0,0-.77-3.08,5.418,5.418,0,0,0-2.12-2.1Zm-4.61,2.51a2.815,2.815,0,0,1,1.53-.4,2.73,2.73,0,0,1,1.41.35,2.269,2.269,0,0,1,.87,1.03,3.585,3.585,0,0,1,.2.63h-5.19a3.8,3.8,0,0,1,.18-.47,2.715,2.715,0,0,1,1-1.14Z" fill="#1544ce"/>
        <path id="Path_20378" data-name="Path 20378" d="M381.51,13.85a4.586,4.586,0,0,0-4.56.89v-.9h-3.74V25.72h3.74V19.19a2.37,2.37,0,0,1,.55-1.72,1.966,1.966,0,0,1,1.48-.57,2.155,2.155,0,0,1,.83.15,1.663,1.663,0,0,1,.61.42l2.23-2.81a3.048,3.048,0,0,0-1.14-.79Z" fill="#1544ce"/>
      </g>
    </g>
  </g>
</svg>
