<svg xmlns="http://www.w3.org/2000/svg" xmlns:xlink="http://www.w3.org/1999/xlink" width="521.973" height="274.707" viewBox="0 0 521.973 274.707">
  <defs>
    <clipPath id="clip-path">
      <rect id="Rectangle_9816" data-name="Rectangle 9816" width="61.489" height="62.094" fill="none"/>
    </clipPath>
    <clipPath id="clip-path-2">
      <rect id="Rectangle_9823" data-name="Rectangle 9823" width="81.449" height="81.037" fill="none"/>
    </clipPath>
  </defs>
  <g id="Group_13105" data-name="Group 13105" transform="translate(-769.287 -3038)">
    <g id="Group_13103" data-name="Group 13103">
      <g id="Group_13023" data-name="Group 13023" transform="translate(24250.852 25389.121)">
        <path id="Path_22056" data-name="Path 22056" d="M5.688.126A6.5,6.5,0,0,1,3.2-.324,4.049,4.049,0,0,1,1.449-1.656,3.639,3.639,0,0,1,.756-3.78H4.032a1.59,1.59,0,0,0,.486,1.071A1.562,1.562,0,0,0,5.6-2.34a1.689,1.689,0,0,0,1.08-.315,1.053,1.053,0,0,0,.4-.873A1.033,1.033,0,0,0,6.759-4.3a2.541,2.541,0,0,0-.774-.5,12.45,12.45,0,0,0-1.3-.45,14.209,14.209,0,0,1-2-.756A3.692,3.692,0,0,1,1.35-7.128,3.11,3.11,0,0,1,.792-9.054,3.312,3.312,0,0,1,2.07-11.817a5.251,5.251,0,0,1,3.33-1,5.312,5.312,0,0,1,3.366,1,3.576,3.576,0,0,1,1.368,2.781H6.8A1.3,1.3,0,0,0,6.354-10a1.585,1.585,0,0,0-1.062-.351,1.324,1.324,0,0,0-.9.3A1.071,1.071,0,0,0,4.05-9.2a1.06,1.06,0,0,0,.576.954,9.442,9.442,0,0,0,1.8.738,16.647,16.647,0,0,1,1.989.792,3.787,3.787,0,0,1,1.323,1.1A2.939,2.939,0,0,1,10.3-3.762,3.638,3.638,0,0,1,9.747-1.8,3.845,3.845,0,0,1,8.154-.4,5.453,5.453,0,0,1,5.688.126Zm15.966-5.31a7.858,7.858,0,0,1-.054.9H14.634a2.093,2.093,0,0,0,.6,1.431,1.842,1.842,0,0,0,1.305.495,1.618,1.618,0,0,0,1.6-.972H21.42a4.5,4.5,0,0,1-.909,1.782A4.551,4.551,0,0,1,18.864-.306a5.29,5.29,0,0,1-2.214.45,5.387,5.387,0,0,1-2.628-.63,4.481,4.481,0,0,1-1.8-1.8,5.557,5.557,0,0,1-.648-2.736,5.62,5.62,0,0,1,.639-2.736A4.423,4.423,0,0,1,14-9.558a5.425,5.425,0,0,1,2.646-.63,5.371,5.371,0,0,1,2.592.612A4.394,4.394,0,0,1,21.015-7.83,5.3,5.3,0,0,1,21.654-5.184Zm-3.15-.81a1.583,1.583,0,0,0-.54-1.26,1.988,1.988,0,0,0-1.35-.468,1.95,1.95,0,0,0-1.305.45,2,2,0,0,0-.657,1.278Zm4.158.954a6,6,0,0,1,.585-2.718,4.364,4.364,0,0,1,1.593-1.8,4.159,4.159,0,0,1,2.25-.63,3.865,3.865,0,0,1,1.863.432,3.182,3.182,0,0,1,1.233,1.134v-1.422h3.078V0H30.186V-1.422A3.324,3.324,0,0,1,28.935-.288a3.865,3.865,0,0,1-1.863.432A4.084,4.084,0,0,1,24.84-.5a4.416,4.416,0,0,1-1.593-1.818A6.06,6.06,0,0,1,22.662-5.04Zm7.524.018a2.517,2.517,0,0,0-.639-1.818,2.076,2.076,0,0,0-1.557-.666,2.09,2.09,0,0,0-1.557.657,2.485,2.485,0,0,0-.639,1.809,2.549,2.549,0,0,0,.639,1.827,2.063,2.063,0,0,0,1.557.675A2.076,2.076,0,0,0,29.547-3.2,2.517,2.517,0,0,0,30.186-5.022Zm10.35-2.466H38.88V0H35.8V-7.488H34.686v-2.556H35.8v-.288a3.61,3.61,0,0,1,1.062-2.817,4.491,4.491,0,0,1,3.114-.963q.342,0,.5.018v2.61a1.766,1.766,0,0,0-1.242.252,1.386,1.386,0,0,0-.36,1.1v.09h1.656ZM46.548.144a5.544,5.544,0,0,1-2.655-.63,4.613,4.613,0,0,1-1.854-1.8,5.379,5.379,0,0,1-.675-2.736,5.335,5.335,0,0,1,.684-2.727A4.641,4.641,0,0,1,43.92-9.558a5.6,5.6,0,0,1,2.664-.63,5.6,5.6,0,0,1,2.664.63A4.641,4.641,0,0,1,51.12-7.749,5.335,5.335,0,0,1,51.8-5.022,5.281,5.281,0,0,1,51.111-2.3a4.686,4.686,0,0,1-1.89,1.809A5.65,5.65,0,0,1,46.548.144Zm0-2.664a2.005,2.005,0,0,0,1.5-.648,2.574,2.574,0,0,0,.621-1.854,2.622,2.622,0,0,0-.6-1.854,1.949,1.949,0,0,0-1.485-.648,1.953,1.953,0,0,0-1.494.639A2.642,2.642,0,0,0,44.5-5.022a2.674,2.674,0,0,0,.585,1.854A1.893,1.893,0,0,0,46.548-2.52ZM58.014.144a5.544,5.544,0,0,1-2.655-.63,4.613,4.613,0,0,1-1.854-1.8,5.379,5.379,0,0,1-.675-2.736,5.335,5.335,0,0,1,.684-2.727,4.641,4.641,0,0,1,1.872-1.809,5.6,5.6,0,0,1,2.664-.63,5.6,5.6,0,0,1,2.664.63,4.641,4.641,0,0,1,1.872,1.809,5.335,5.335,0,0,1,.684,2.727A5.281,5.281,0,0,1,62.577-2.3a4.686,4.686,0,0,1-1.89,1.809A5.65,5.65,0,0,1,58.014.144Zm0-2.664a2.005,2.005,0,0,0,1.5-.648,2.574,2.574,0,0,0,.621-1.854,2.622,2.622,0,0,0-.6-1.854,1.949,1.949,0,0,0-1.485-.648,1.953,1.953,0,0,0-1.494.639,2.642,2.642,0,0,0-.594,1.863,2.674,2.674,0,0,0,.585,1.854A1.893,1.893,0,0,0,58.014-2.52ZM64.3-5.04a6,6,0,0,1,.585-2.718,4.364,4.364,0,0,1,1.593-1.8,4.159,4.159,0,0,1,2.25-.63,3.952,3.952,0,0,1,1.809.414A3.3,3.3,0,0,1,71.82-8.658V-13.32H74.9V0H71.82V-1.44A3.136,3.136,0,0,1,70.587-.288a3.865,3.865,0,0,1-1.863.432A4.115,4.115,0,0,1,66.474-.5a4.416,4.416,0,0,1-1.593-1.818A6.06,6.06,0,0,1,64.3-5.04Zm7.524.018a2.517,2.517,0,0,0-.639-1.818,2.076,2.076,0,0,0-1.557-.666,2.09,2.09,0,0,0-1.557.657,2.485,2.485,0,0,0-.639,1.809,2.549,2.549,0,0,0,.639,1.827,2.063,2.063,0,0,0,1.557.675A2.076,2.076,0,0,0,71.181-3.2,2.517,2.517,0,0,0,71.82-5.022ZM88.6-6.48A2.939,2.939,0,0,1,90.36-5.391a3.092,3.092,0,0,1,.666,1.953A3.1,3.1,0,0,1,89.919-.927,4.67,4.67,0,0,1,86.832,0H80.946V-12.636h5.688a4.664,4.664,0,0,1,3.015.882A2.917,2.917,0,0,1,90.738-9.36a2.892,2.892,0,0,1-.585,1.854A3.025,3.025,0,0,1,88.6-6.48ZM84.024-7.524H86.04A1.785,1.785,0,0,0,87.2-7.857a1.2,1.2,0,0,0,.4-.981,1.223,1.223,0,0,0-.4-.99,1.752,1.752,0,0,0-1.161-.342H84.024Zm2.268,5.04a1.825,1.825,0,0,0,1.2-.351,1.246,1.246,0,0,0,.423-1.017A1.3,1.3,0,0,0,87.471-4.9a1.807,1.807,0,0,0-1.215-.378H84.024v2.79Zm16.434-7.56V0H99.648V-1.368A3.378,3.378,0,0,1,98.379-.3a3.873,3.873,0,0,1-1.773.4,3.971,3.971,0,0,1-2.034-.513A3.459,3.459,0,0,1,93.2-1.89a5.054,5.054,0,0,1-.486-2.286v-5.868h3.06V-4.59A2.2,2.2,0,0,0,96.3-3.024a1.83,1.83,0,0,0,1.4.558,1.853,1.853,0,0,0,1.422-.558,2.2,2.2,0,0,0,.522-1.566v-5.454Zm12.474,0L108.9,4.77h-3.312l2.3-5.112-4.086-9.7h3.438l2.322,6.282,2.3-6.282Zm10.584,4.86a7.857,7.857,0,0,1-.054.9h-6.966a2.093,2.093,0,0,0,.6,1.431,1.842,1.842,0,0,0,1.305.495,1.618,1.618,0,0,0,1.6-.972h3.276a4.5,4.5,0,0,1-.909,1.782,4.551,4.551,0,0,1-1.647,1.242,5.29,5.29,0,0,1-2.214.45,5.387,5.387,0,0,1-2.628-.63,4.481,4.481,0,0,1-1.8-1.8,5.557,5.557,0,0,1-.648-2.736,5.62,5.62,0,0,1,.639-2.736,4.423,4.423,0,0,1,1.791-1.8,5.425,5.425,0,0,1,2.646-.63,5.371,5.371,0,0,1,2.592.612,4.394,4.394,0,0,1,1.773,1.746A5.3,5.3,0,0,1,125.784-5.184Zm-3.15-.81a1.583,1.583,0,0,0-.54-1.26,1.988,1.988,0,0,0-1.35-.468,1.95,1.95,0,0,0-1.305.45,2,2,0,0,0-.657,1.278Zm7.848-2.376a4.06,4.06,0,0,1,1.35-1.3,3.481,3.481,0,0,1,1.8-.477v3.258h-.846a2.593,2.593,0,0,0-1.728.495,2.2,2.2,0,0,0-.576,1.737V0H127.4V-10.044h3.078ZM139.194.144a5.773,5.773,0,0,1-2.34-.45,4,4,0,0,1-1.62-1.233,3.243,3.243,0,0,1-.666-1.755h3.042a1.169,1.169,0,0,0,.486.846,1.72,1.72,0,0,0,1.062.324,1.516,1.516,0,0,0,.891-.225.689.689,0,0,0,.315-.585.675.675,0,0,0-.45-.639,9.091,9.091,0,0,0-1.458-.459,13.688,13.688,0,0,1-1.8-.531,3.11,3.11,0,0,1-1.242-.882,2.4,2.4,0,0,1-.522-1.629,2.766,2.766,0,0,1,.477-1.575,3.212,3.212,0,0,1,1.4-1.125,5.376,5.376,0,0,1,2.205-.414,4.42,4.42,0,0,1,2.979.936,3.642,3.642,0,0,1,1.251,2.484h-2.844A1.226,1.226,0,0,0,139.9-7.6a1.592,1.592,0,0,0-1.017-.306,1.406,1.406,0,0,0-.828.207.661.661,0,0,0-.288.567.692.692,0,0,0,.459.648,7.352,7.352,0,0,0,1.431.432,15.655,15.655,0,0,1,1.818.567,3.136,3.136,0,0,1,1.233.9,2.547,2.547,0,0,1,.549,1.665,2.643,2.643,0,0,1-.5,1.575,3.274,3.274,0,0,1-1.422,1.089A5.438,5.438,0,0,1,139.194.144Z" transform="translate(-23102.854 -22081.184)" fill="#222"/>
        <g id="Group_12883" data-name="Group 12883" transform="translate(-23061.852 -22166.121)">
          <g id="Group_12883-2" data-name="Group 12883" clip-path="url(#clip-path)">
            <path id="Path_21725" data-name="Path 21725" d="M111.124,84.357a9.144,9.144,0,0,0-3.846-7.5l-3.056-2.169a2.788,2.788,0,0,0-1.887-1.928l-1.527-.462-1.636-.5c.145-.066.3-.14.451-.223a9.305,9.305,0,0,0,4.23-4.808,3.463,3.463,0,0,0,2.935-3.549,3.818,3.818,0,0,0-.479-1.856l.473-4.75a1.171,1.171,0,0,0,.006-.119,6.627,6.627,0,0,0-5.28-6.516A4.771,4.771,0,0,0,97.994,48c-1.993-.291-4.735.18-6.225,1.87a6.936,6.936,0,0,0-3.287,1.37,8.4,8.4,0,0,0-2.949,6.818,1.294,1.294,0,0,0,.013.182l.442,3.175a3.8,3.8,0,0,0-.455,1.811,3.476,3.476,0,0,0,2.81,3.53A7.761,7.761,0,0,0,90.369,70.3a7.632,7.632,0,0,0,1.477,1.154,8.112,8.112,0,0,0,.913.467l-1.251.379-1.526.462A2.791,2.791,0,0,0,88.1,74.685l-3.062,2.174a9.146,9.146,0,0,0-3.846,7.5l.05,5.447v1.36h29.837V89.8Zm-2.72-.02-.038,4.112h-1.937V85.516h-2.72v2.933H97.52V81.617l.193.072,2.527.943a2.8,2.8,0,0,0,3.776-2.439l.145-2.21,1.541,1.094a6.418,6.418,0,0,1,2.7,5.261m-6.858-8.973a.082.082,0,0,1,.058.084l-.3,4.565a.082.082,0,0,1-.081.076.085.085,0,0,1-.029-.005l-2.527-.944,1.354-4.238Zm-13.226-16.4-.139-1a5.772,5.772,0,0,1,1.911-4.627,4.447,4.447,0,0,1,2.223-.878,1.684,1.684,0,0,0,1.314-.68c.635-.953,2.572-1.37,3.984-1.166,1.11.162,1.62.6,1.719.918a1.331,1.331,0,0,0,1.07.92c.152.023,3.718.6,3.74,3.972l-.239,2.4c-.022-.026-.048-.047-.072-.071s-.056-.061-.088-.087a1.37,1.37,0,0,0-.151-.1c-.013-.008-.024-.018-.037-.026a1.336,1.336,0,0,0-.447-.157c-.236-.038-.573-.085-.982-.141l-.565-.077c-.427-.058-.831-.114-1.214-.169-5.466-.78-6.62-1.216-6.858-1.38a1.3,1.3,0,0,0-.114-.1c-.028-.024-.053-.051-.083-.072a1.308,1.308,0,0,0-.187-.106c-.015-.008-.029-.018-.045-.025a1.316,1.316,0,0,0-1.513.328s0,0,0,0h0s0,0,0,0h0s0,0,0,0l-.032.025c-.565.436-.928.756-1.192.988a3.071,3.071,0,0,1-1.348.794,1.321,1.321,0,0,0-.622.48l-.006.008c-.007.01-.016.018-.022.028m2.43,5.864V60.572a5.5,5.5,0,0,0,1.327-.939c.165-.145.346-.3.589-.5,1.5.616,4.32,1.085,8.538,1.658l.157.021.213.029v3.988a1.949,1.949,0,0,1-.017.3c0,.007,0,.013,0,.019A6.873,6.873,0,0,1,98.4,69.237a6.041,6.041,0,0,1-1.193.478,4.855,4.855,0,0,1-2.9-.033,5.145,5.145,0,0,1-1.091-.5,5.09,5.09,0,0,1-2.445-3.921c-.007-.14-.015-.288-.015-.436M95.8,72.567h.045a8.161,8.161,0,0,0,2.169-.332l-.588,1.84-1.27,3.974-1.269-3.974-.528-1.654a7.4,7.4,0,0,0,1.44.146m-5.03,2.8L92.3,74.9l1.354,4.238-2.527.944a.085.085,0,0,1-.029.005.082.082,0,0,1-.081-.076l-.3-4.565a.081.081,0,0,1,.058-.084m-4.163,3.712,1.546-1.1.146,2.213a2.8,2.8,0,0,0,3.776,2.441l2.527-.944.2-.074v6.834H88.64V85.516H85.92v2.933H83.945l-.038-4.107a6.418,6.418,0,0,1,2.7-5.265" transform="translate(-49.634 -29.294)" fill="#1644ce"/>
            <rect id="Rectangle_9804" data-name="Rectangle 9804" width="2.72" height="7.027" transform="translate(7.362 16.836)" fill="#1644ce"/>
            <rect id="Rectangle_9805" data-name="Rectangle 9805" width="2.72" height="7.027" transform="translate(13.478 16.836)" fill="#1644ce"/>
            <rect id="Rectangle_9806" data-name="Rectangle 9806" width="2.72" height="7.027" transform="translate(19.595 16.836)" fill="#1644ce"/>
            <rect id="Rectangle_9807" data-name="Rectangle 9807" width="2.72" height="1.942" transform="translate(25.711 16.836)" fill="#1644ce"/>
            <rect id="Rectangle_9808" data-name="Rectangle 9808" width="2.72" height="7.028" transform="translate(5.418 33.687)" fill="#1644ce"/>
            <rect id="Rectangle_9809" data-name="Rectangle 9809" width="2.72" height="7.028" transform="translate(11.535 33.687)" fill="#1644ce"/>
            <rect id="Rectangle_9810" data-name="Rectangle 9810" width="2.72" height="7.028" transform="translate(17.652 33.687)" fill="#1644ce"/>
            <rect id="Rectangle_9811" data-name="Rectangle 9811" width="2.72" height="1.943" transform="translate(23.768 33.687)" fill="#1644ce"/>
            <path id="Path_21726" data-name="Path 21726" d="M32.916,47.96V45.24h-.972V28.39h1.943V11.537h-3l-1.571.785H24.705l-5.977-2.8a2.256,2.256,0,0,0,.725-1.656H17.511a.321.321,0,1,1-.321-.321h.972V6.1a3.127,3.127,0,1,0-2.23-.11,2.258,2.258,0,0,0-.281,3.537l-5.976,2.8H6.519l-1.571-.785h-3v3.91h2.72v-1.01l1.213.606H29.955l1.212-.606V25.67h-.845v2.719H28.94l-1.571.785H4.575L3.008,28.39H26.878V25.67H4.664V18.89H1.943v9.5H0V32.3H2.72v-1.01l1.213.606H28.012l1.212-.606V42.521h-.845v2.72h2.89l-1.567.784H6.907L5.34,45.242H24.935v-2.72H2.72V35.742H0v9.5H2.332V49.15h2.72v-1.01l1.213.607H30.343l1.571-.786ZM17.189,1.942a1.183,1.183,0,1,1-1.183,1.183,1.184,1.184,0,0,1,1.183-1.183m0,9,2.935,1.375H14.253Z" transform="translate(0 0.001)" fill="#1644ce"/>
            <path id="Path_21727" data-name="Path 21727" d="M8.72,135.331H6v9.5H30.934v-2.72H8.72Z" transform="translate(-3.668 -82.736)" fill="#1644ce"/>
            <rect id="Rectangle_9812" data-name="Rectangle 9812" width="2.72" height="7.027" transform="translate(7.75 50.539)" fill="#1644ce"/>
            <rect id="Rectangle_9813" data-name="Rectangle 9813" width="2.72" height="7.027" transform="translate(13.867 50.539)" fill="#1644ce"/>
            <rect id="Rectangle_9814" data-name="Rectangle 9814" width="2.72" height="7.027" transform="translate(19.983 50.539)" fill="#1644ce"/>
            <rect id="Rectangle_9815" data-name="Rectangle 9815" width="2.72" height="1.942" transform="translate(26.1 50.539)" fill="#1644ce"/>
          </g>
        </g>
      </g>
      <g id="Group_13027" data-name="Group 13027" transform="translate(24092 25391.121)">
        <g id="Group_12230" data-name="Group 12230" transform="translate(-23287 -22166.121)">
          <g id="Group_12226" data-name="Group 12226">
            <path id="Path_20312" data-name="Path 20312" d="M1375.273,176.735v2.792l-52.347.01v-2.792l52.347-.01m2.665-2.665h-2.665l-52.347.01h-2.665V182.2h2.665l52.347-.01h2.665V174.07Z" transform="translate(-1320.24 -174.07)" fill="#1644ce"/>
            <path id="Path_20313" data-name="Path 20313" d="M1352.436,242.216h-2.686V216.3h21.239v2.68h-18.553Z" transform="translate(-1334.703 -194.781)" fill="#1644ce"/>
            <path id="Path_20314" data-name="Path 20314" d="M1329.405,273.362h-2.685V267.15h27.486v2.685h-24.8Z" transform="translate(-1323.408 -219.72)" fill="#1644ce"/>
            <rect id="Rectangle_9634" data-name="Rectangle 9634" width="15.623" height="2.685" transform="translate(16.388 37.346)" fill="#1644ce"/>
            <rect id="Rectangle_9635" data-name="Rectangle 9635" width="2.685" height="30.727" transform="translate(6.706 16.709)" fill="#1644ce"/>
            <path id="Path_20315" data-name="Path 20315" d="M1333.637,187.465v1.789a5.366,5.366,0,1,1-10.731,0v-1.789h10.731m2.686-2.685h-16.1v4.474a8.051,8.051,0,1,0,16.1,0V184.78Z" transform="translate(-1320.22 -179.323)" fill="#1644ce"/>
            <path id="Path_20316" data-name="Path 20316" d="M1361.127,187.465v1.789a5.366,5.366,0,1,1-10.731,0v-1.789h10.731m2.686-2.685h-16.1v4.474a8.051,8.051,0,0,0,16.1,0V184.78Z" transform="translate(-1333.702 -179.323)" fill="#1644ce"/>
            <path id="Path_20317" data-name="Path 20317" d="M1388.187,187.455v1.789a5.366,5.366,0,0,1-10.732,0v-1.789h10.732m2.685-2.685h-16.1v4.474a8.051,8.051,0,1,0,16.1,0V184.77Z" transform="translate(-1346.973 -179.318)" fill="#1644ce"/>
            <path id="Path_20318" data-name="Path 20318" d="M1415.307,187.455v1.789a5.366,5.366,0,1,1-10.731,0v-1.789h10.731m2.686-2.685h-16.1v4.474a8.051,8.051,0,0,0,16.1,0V184.77Z" transform="translate(-1360.274 -179.318)" fill="#1644ce"/>
          </g>
          <g id="Group_12229" data-name="Group 12229" transform="translate(31.939 20.882)">
            <g id="Group_12227" data-name="Group 12227" transform="translate(0 22.986)">
              <path id="Path_20319" data-name="Path 20319" d="M1382.951,280.578l-.051-5.376a9.017,9.017,0,0,1,3.8-7.4l3.969-2.818,1.554,2.191-3.97,2.818a6.333,6.333,0,0,0-2.665,5.2l.051,5.371-2.685.025Z" transform="translate(-1382.9 -262.524)" fill="#1544ce"/>
              <path id="Path_20320" data-name="Path 20320" d="M1431.864,280.573l-2.685-.026.051-5.376a6.337,6.337,0,0,0-2.665-5.193l-3.964-2.818,1.554-2.191,3.97,2.818a9.015,9.015,0,0,1,3.8,7.4l-.051,5.381Z" transform="translate(-1402.37 -262.519)" fill="#1544ce"/>
              <rect id="Rectangle_9636" data-name="Rectangle 9636" width="2.685" height="4.224" transform="translate(4.673 13.814)" fill="#1544ce"/>
              <rect id="Rectangle_9637" data-name="Rectangle 9637" width="2.685" height="4.224" transform="translate(22.227 13.814)" fill="#1544ce"/>
              <rect id="Rectangle_9638" data-name="Rectangle 9638" width="2.685" height="9.768" transform="translate(13.437 8.229)" fill="#1544ce"/>
              <path id="Path_20321" data-name="Path 20321" d="M1400.329,263.508l1.335,4.184-2.492.932a.18.18,0,0,1-.031.005.083.083,0,0,1-.082-.076l-.3-4.5a.083.083,0,0,1,.056-.082l1.508-.454m1.753-3.338-2.533.764-1.508.453a2.753,2.753,0,0,0-1.957,2.828l.3,4.5a2.771,2.771,0,0,0,2.757,2.583,2.851,2.851,0,0,0,.968-.173l2.492-.932,2.4-.9-.78-2.436-1.335-4.184-.805-2.517h0Z" transform="translate(-1389.363 -260.165)" fill="#1544ce"/>
              <path id="Path_20322" data-name="Path 20322" d="M1414.883,263.5l1.508.454a.077.077,0,0,1,.056.082l-.3,4.5a.079.079,0,0,1-.082.076.065.065,0,0,1-.031-.005l-2.492-.933,1.335-4.184m-1.753-3.338-.805,2.517-1.335,4.184-.78,2.436,2.395.9,2.492.932a2.733,2.733,0,0,0,.968.173,2.768,2.768,0,0,0,2.756-2.584l.3-4.5a2.752,2.752,0,0,0-1.957-2.828l-1.508-.459-2.533-.764h0Z" transform="translate(-1396.294 -260.16)" fill="#1544ce"/>
            </g>
            <g id="Group_12228" data-name="Group 12228" transform="translate(4.133)">
              <path id="Path_20323" data-name="Path 20323" d="M1400.02,240.044a8.1,8.1,0,0,0,10.375-7.766v-5a.606.606,0,1,0-1.213,0v5a6.884,6.884,0,1,1-13.768,0v-5.136a3.414,3.414,0,0,0,3.18-2.691,14.537,14.537,0,0,0,6.991,2.482.6.6,0,1,0,.168-1.2,13.943,13.943,0,0,1-7.261-2.813.6.6,0,0,0-.953.5,2.753,2.753,0,0,1-1.146,2.2,2.46,2.46,0,0,1-1.575.29.607.607,0,0,0-.606.535c-.005.056,0-.143,0,4.841a1.253,1.253,0,0,1-.683-1.106v-7.373a1.439,1.439,0,0,1,1.437-1.437.6.6,0,0,0,.56-.382,5.382,5.382,0,0,1,5.024-3.4h5.187a5.415,5.415,0,0,1,5.412,5.412v7.18a.606.606,0,1,0,1.213,0V223a6.625,6.625,0,0,0-6.619-6.619h-5.187a6.587,6.587,0,0,0-6,3.812,2.653,2.653,0,0,0-2.237,2.614v7.373a2.467,2.467,0,0,0,1.9,2.39,8.1,8.1,0,0,0,4.606,7.007c.26.127,1.2.459,1.2.459Z" transform="translate(-1391.653 -215.702)" fill="#1544ce"/>
              <path id="Path_20324" data-name="Path 20324" d="M1401.68,240.4a8.749,8.749,0,0,1-2.492-.362l-.031-.01c-.163-.056-.994-.352-1.274-.494a8.742,8.742,0,0,1-4.948-7.114,3.122,3.122,0,0,1-1.926-2.889v-7.373a3.351,3.351,0,0,1,2.451-3.205,7.21,7.21,0,0,1,6.456-3.9h5.188a7.3,7.3,0,0,1,7.292,7.292v7.18a1.271,1.271,0,0,1-1.962,1.07v1.019a8.788,8.788,0,0,1-8.744,8.77Zm-6.232-13.32v4.545a6.212,6.212,0,1,0,12.423,0v-5a1.274,1.274,0,0,1,1.274-1.274,1.3,1.3,0,0,1,.693.2v-3.2a4.743,4.743,0,0,0-4.739-4.739h-5.187a4.72,4.72,0,0,0-4.4,2.981,1.267,1.267,0,0,1-1.187.8.763.763,0,0,0-.764.764v2.589a1.287,1.287,0,0,1,.627-.158.73.73,0,0,1,.132.01,1.721,1.721,0,0,0,1.091-.2,2.105,2.105,0,0,0,.82-1.631,1.279,1.279,0,0,1,2.013-1.045,13.376,13.376,0,0,0,6.966,2.7,1.276,1.276,0,1,1-.357,2.527,14.609,14.609,0,0,1-6.548-2.145,4.035,4.035,0,0,1-2.853,2.278Z" transform="translate(-1391.01 -215.05)" fill="#1544ce"/>
            </g>
          </g>
        </g>
        <path id="Path_22057" data-name="Path 22057" d="M8.982-2.232H4.266L3.51,0H.288L4.86-12.636H8.424L13,0H9.738ZM8.19-4.608,6.624-9.234,5.076-4.608ZM13.77-5a5.6,5.6,0,0,1,.621-2.664A4.7,4.7,0,0,1,16.065-9.5a4.253,4.253,0,0,1,2.3-.657,4.2,4.2,0,0,1,1.71.333,3.132,3.132,0,0,1,1.224.927v-1.152h3.078V4.788H21.294V-1.26A3.936,3.936,0,0,1,20.025-.252a3.715,3.715,0,0,1-1.7.378,4.221,4.221,0,0,1-2.268-.648A4.654,4.654,0,0,1,14.391-2.34,5.6,5.6,0,0,1,13.77-5Zm7.524-.018a2.7,2.7,0,0,0-.315-1.359,2.131,2.131,0,0,0-.819-.828A2.161,2.161,0,0,0,19.1-7.488a2.128,2.128,0,0,0-1.044.279,2.177,2.177,0,0,0-.828.837A2.684,2.684,0,0,0,16.9-5a2.634,2.634,0,0,0,.324,1.359,2.193,2.193,0,0,0,.828.828,2.128,2.128,0,0,0,1.044.279,2.179,2.179,0,0,0,1.053-.279,2.1,2.1,0,0,0,.828-.837A2.746,2.746,0,0,0,21.294-5.022Zm15.228-5.022V0H33.444V-1.368A3.378,3.378,0,0,1,32.175-.3a3.873,3.873,0,0,1-1.773.4,3.971,3.971,0,0,1-2.034-.513A3.459,3.459,0,0,1,27-1.89a5.053,5.053,0,0,1-.486-2.286v-5.868h3.06V-4.59A2.2,2.2,0,0,0,30.1-3.024a1.83,1.83,0,0,0,1.4.558,1.853,1.853,0,0,0,1.422-.558,2.2,2.2,0,0,0,.522-1.566v-5.454Zm1.6,5a6,6,0,0,1,.585-2.718,4.364,4.364,0,0,1,1.593-1.8,4.159,4.159,0,0,1,2.25-.63,3.865,3.865,0,0,1,1.863.432,3.182,3.182,0,0,1,1.233,1.134v-1.422h3.078V0H45.648V-1.422A3.324,3.324,0,0,1,44.4-.288a3.865,3.865,0,0,1-1.863.432A4.084,4.084,0,0,1,40.3-.5a4.416,4.416,0,0,1-1.593-1.818A6.06,6.06,0,0,1,38.124-5.04Zm7.524.018a2.517,2.517,0,0,0-.639-1.818,2.076,2.076,0,0,0-1.557-.666,2.09,2.09,0,0,0-1.557.657,2.485,2.485,0,0,0-.639,1.809A2.549,2.549,0,0,0,41.9-3.213a2.063,2.063,0,0,0,1.557.675A2.076,2.076,0,0,0,45.009-3.2,2.517,2.517,0,0,0,45.648-5.022ZM64.4-8.568a4.069,4.069,0,0,1-.5,2.007,3.706,3.706,0,0,1-1.548,1.467,5.45,5.45,0,0,1-2.592.558H57.852V0H54.774V-12.636H59.76a5.674,5.674,0,0,1,2.556.522,3.588,3.588,0,0,1,1.566,1.44A4.185,4.185,0,0,1,64.4-8.568ZM59.526-6.984A1.836,1.836,0,0,0,60.84-7.4a1.544,1.544,0,0,0,.432-1.17,1.544,1.544,0,0,0-.432-1.17,1.836,1.836,0,0,0-1.314-.414H57.852v3.168ZM65.394-5.04a6,6,0,0,1,.585-2.718,4.364,4.364,0,0,1,1.593-1.8,4.159,4.159,0,0,1,2.25-.63,3.865,3.865,0,0,1,1.863.432,3.182,3.182,0,0,1,1.233,1.134v-1.422H76V0H72.918V-1.422A3.324,3.324,0,0,1,71.667-.288,3.865,3.865,0,0,1,69.8.144,4.084,4.084,0,0,1,67.572-.5a4.416,4.416,0,0,1-1.593-1.818A6.06,6.06,0,0,1,65.394-5.04Zm7.524.018a2.517,2.517,0,0,0-.639-1.818,2.076,2.076,0,0,0-1.557-.666,2.09,2.09,0,0,0-1.557.657,2.485,2.485,0,0,0-.639,1.809,2.549,2.549,0,0,0,.639,1.827,2.063,2.063,0,0,0,1.557.675A2.076,2.076,0,0,0,72.279-3.2,2.517,2.517,0,0,0,72.918-5.022ZM81.306-8.37a4.06,4.06,0,0,1,1.35-1.3,3.481,3.481,0,0,1,1.8-.477v3.258H83.61a2.593,2.593,0,0,0-1.728.495,2.2,2.2,0,0,0-.576,1.737V0H78.228V-10.044h3.078ZM91.53-2.61V0H89.964a3.833,3.833,0,0,1-2.61-.819,3.384,3.384,0,0,1-.936-2.673v-4H85.194v-2.556h1.224v-2.448H89.5v2.448h2.016v2.556H89.5v4.032a.843.843,0,0,0,.216.648,1.054,1.054,0,0,0,.72.2Zm7.83-7.542a3.645,3.645,0,0,1,2.817,1.143,4.458,4.458,0,0,1,1.053,3.141V0h-3.06V-5.454a2.2,2.2,0,0,0-.522-1.566,1.83,1.83,0,0,0-1.4-.558,1.83,1.83,0,0,0-1.4.558,2.2,2.2,0,0,0-.522,1.566V0H93.24V-10.044h3.078v1.332a3.247,3.247,0,0,1,1.26-1.053A4.006,4.006,0,0,1,99.36-10.152Zm15.48,4.968a7.857,7.857,0,0,1-.054.9H107.82a2.093,2.093,0,0,0,.6,1.431,1.842,1.842,0,0,0,1.305.495,1.618,1.618,0,0,0,1.6-.972h3.276a4.5,4.5,0,0,1-.909,1.782A4.551,4.551,0,0,1,112.05-.306a5.29,5.29,0,0,1-2.214.45,5.387,5.387,0,0,1-2.628-.63,4.481,4.481,0,0,1-1.8-1.8,5.557,5.557,0,0,1-.648-2.736,5.62,5.62,0,0,1,.639-2.736,4.423,4.423,0,0,1,1.791-1.8,5.425,5.425,0,0,1,2.646-.63,5.371,5.371,0,0,1,2.592.612A4.394,4.394,0,0,1,114.2-7.83,5.3,5.3,0,0,1,114.84-5.184Zm-3.15-.81a1.583,1.583,0,0,0-.54-1.26,1.988,1.988,0,0,0-1.35-.468,1.95,1.95,0,0,0-1.305.45,2,2,0,0,0-.657,1.278Zm7.848-2.376a4.06,4.06,0,0,1,1.35-1.3,3.481,3.481,0,0,1,1.8-.477v3.258h-.846a2.593,2.593,0,0,0-1.728.495,2.2,2.2,0,0,0-.576,1.737V0H116.46V-10.044h3.078ZM128.25.144a5.773,5.773,0,0,1-2.34-.45,4,4,0,0,1-1.62-1.233,3.243,3.243,0,0,1-.666-1.755h3.042a1.169,1.169,0,0,0,.486.846,1.72,1.72,0,0,0,1.062.324,1.516,1.516,0,0,0,.891-.225.689.689,0,0,0,.315-.585.675.675,0,0,0-.45-.639,9.091,9.091,0,0,0-1.458-.459,13.689,13.689,0,0,1-1.8-.531,3.11,3.11,0,0,1-1.242-.882,2.4,2.4,0,0,1-.522-1.629,2.766,2.766,0,0,1,.477-1.575,3.212,3.212,0,0,1,1.4-1.125,5.376,5.376,0,0,1,2.205-.414,4.42,4.42,0,0,1,2.979.936,3.642,3.642,0,0,1,1.251,2.484H129.42a1.226,1.226,0,0,0-.459-.828,1.592,1.592,0,0,0-1.017-.306,1.406,1.406,0,0,0-.828.207.661.661,0,0,0-.288.567.692.692,0,0,0,.459.648,7.351,7.351,0,0,0,1.431.432,15.655,15.655,0,0,1,1.818.567,3.136,3.136,0,0,1,1.233.9,2.546,2.546,0,0,1,.549,1.665,2.643,2.643,0,0,1-.495,1.575A3.274,3.274,0,0,1,130.4-.252,5.438,5.438,0,0,1,128.25.144Z" transform="translate(-23323 -22085.193)" fill="#222"/>
      </g>
    </g>
    <g id="Group_13102" data-name="Group 13102">
      <g id="Group_12222" data-name="Group 12222" transform="translate(953 3189.49)">
        <g id="Group_12220" data-name="Group 12220">
          <g id="Group_12218" data-name="Group 12218" transform="translate(0 5.582)">
            <path id="Path_20256" data-name="Path 20256" d="M793.283,320.265l-2.043-2.035a11.122,11.122,0,0,0-3.284,3.361,5.242,5.242,0,0,0-1.772-1.339,6.233,6.233,0,0,0-2.722-.582,6.863,6.863,0,0,0-3.677,1,7.075,7.075,0,0,0-2.556,2.759,8.352,8.352,0,0,0-.938,4,8.167,8.167,0,0,0,.938,3.964,7.329,7.329,0,0,0,2.569,2.759,6.747,6.747,0,0,0,3.665,1.027,6.3,6.3,0,0,0,2.755-.582,5.228,5.228,0,0,0,1.747-1.331,11.119,11.119,0,0,0,3.281,3.349l2.039-2.031a11.922,11.922,0,0,1,0-14.307m-6.423,9.664a3.079,3.079,0,0,1-2.415.979,3.3,3.3,0,0,1-1.707-.441,3.255,3.255,0,0,1-1.2-1.242,3.857,3.857,0,0,1,0-3.612,3.253,3.253,0,0,1,1.2-1.242,3.306,3.306,0,0,1,1.707-.445,3.518,3.518,0,0,1,1.755.445,3.194,3.194,0,0,1,.425.3,2.92,2.92,0,0,1,.744.926,3.86,3.86,0,0,1,.4,1.792,3.582,3.582,0,0,1-.91,2.54" transform="translate(-776.29 -318.23)" fill="#1544ce"/>
            <path id="Path_20257" data-name="Path 20257" d="M873.71,337.757a7.685,7.685,0,0,1-3.648-.858,6.289,6.289,0,0,1-2.508-2.342,6.5,6.5,0,0,1-.894-3.414v-8.6H871.4v8.543a2.974,2.974,0,0,0,.279,1.331,2.02,2.02,0,0,0,.8.874,2.412,2.412,0,0,0,1.23.307,2.088,2.088,0,0,0,1.646-.672,2.656,2.656,0,0,0,.6-1.836v-8.543H880.7v8.6a6.637,6.637,0,0,1-.878,3.446,6.174,6.174,0,0,1-2.447,2.33,7.636,7.636,0,0,1-3.665.841" transform="translate(-830.106 -320.797)" fill="#1544ce"/>
            <path id="Path_20258" data-name="Path 20258" d="M832.9,322.093V323.3a5.216,5.216,0,0,0-1.371-.93,6.22,6.22,0,0,0-2.722-.582,6.859,6.859,0,0,0-6.25,3.754,8.487,8.487,0,0,0-.922,4,8.3,8.3,0,0,0,.922,3.964,7.258,7.258,0,0,0,2.54,2.759,6.772,6.772,0,0,0,3.709,1.027,6.255,6.255,0,0,0,2.71-.582,5.423,5.423,0,0,0,1.387-.934v7.487h4.676V322.1H832.9Zm-3.139,10.934a3.394,3.394,0,0,1-1.723-.441,3,3,0,0,1-1.185-1.242,3.863,3.863,0,0,1-.417-1.8,3.746,3.746,0,0,1,.433-1.808,3.185,3.185,0,0,1,1.185-1.242,3.37,3.37,0,0,1,1.739-.441,3.29,3.29,0,0,1,1.723.441,3.187,3.187,0,0,1,1.169,1.226,3.638,3.638,0,0,1,.433,1.792,3.513,3.513,0,0,1-.938,2.54,3.192,3.192,0,0,1-2.415.979" transform="translate(-803.29 -320.35)" fill="#1544ce"/>
            <path id="Path_20259" data-name="Path 20259" d="M918.284,323.4a5.524,5.524,0,0,0-1.4-.955,6.232,6.232,0,0,0-2.722-.582,6.863,6.863,0,0,0-3.677,1,7.076,7.076,0,0,0-2.556,2.759,8.352,8.352,0,0,0-.938,4,8.167,8.167,0,0,0,.938,3.964,7.33,7.33,0,0,0,2.568,2.759,6.748,6.748,0,0,0,3.665,1.027,6.3,6.3,0,0,0,2.755-.582,5.335,5.335,0,0,0,1.371-.934v1.205h4.648V322.167h-4.648v1.23Zm-3.139,9.7a3.3,3.3,0,0,1-1.707-.441,3.254,3.254,0,0,1-1.2-1.242,3.858,3.858,0,0,1,0-3.612,3.254,3.254,0,0,1,1.2-1.242,3.3,3.3,0,0,1,1.707-.441,3.514,3.514,0,0,1,1.756.441,2.918,2.918,0,0,1,1.169,1.226,3.861,3.861,0,0,1,.4,1.792,3.582,3.582,0,0,1-.91,2.54,3.132,3.132,0,0,1-2.415.979" transform="translate(-854.122 -320.392)" fill="#1544ce"/>
          </g>
          <g id="Group_12219" data-name="Group 12219" transform="translate(71.034)">
            <path id="Path_20260" data-name="Path 20260" d="M961.778,332.746a3.987,3.987,0,0,1-1.638.32,3.47,3.47,0,0,1-1.776-.461,3.272,3.272,0,0,1-1.242-1.254,3.718,3.718,0,0,1-.445-1.836,3.649,3.649,0,0,1,.445-1.824,3.186,3.186,0,0,1,1.226-1.226,3.568,3.568,0,0,1,1.792-.445,4.271,4.271,0,0,1,1.578.275,3.176,3.176,0,0,1,1.209.858l3-3a7.458,7.458,0,0,0-2.589-1.792,8.378,8.378,0,0,0-3.2-.6,8.647,8.647,0,0,0-4.195,1.011,7.767,7.767,0,0,0-2.957,2.771,7.9,7.9,0,0,0-.016,7.977,7.588,7.588,0,0,0,2.941,2.787,8.593,8.593,0,0,0,4.166,1.011,8.287,8.287,0,0,0,3.276-.627,7.866,7.866,0,0,0,2.633-1.853l-2.969-3a3.624,3.624,0,0,1-1.242.9Z" transform="translate(-951.9 -314.75)" fill="#1544ce"/>
            <path id="Path_20261" data-name="Path 20261" d="M1002.276,322.18a5.1,5.1,0,0,0-1.885-.32,5.047,5.047,0,0,0-3.827,1.44v-1.133H991.88v14.886h4.684v-8.179a3.03,3.03,0,0,1,.688-2.16,2.44,2.44,0,0,1,1.853-.72,2.787,2.787,0,0,1,1.04.182,1.979,1.979,0,0,1,.764.522l2.787-3.523a3.792,3.792,0,0,0-1.424-1Z" transform="translate(-975.708 -314.81)" fill="#1544ce"/>
            <path id="Path_20262" data-name="Path 20262" d="M1032.6,322.731a7.811,7.811,0,0,0-3.891-.951,8.287,8.287,0,0,0-4.073,1.011,7.879,7.879,0,0,0-2.848,10.78,7.424,7.424,0,0,0,2.957,2.771,9.067,9.067,0,0,0,4.3,1,8.916,8.916,0,0,0,3.43-.643,6.97,6.97,0,0,0,2.666-1.929l-2.573-2.573a4.384,4.384,0,0,1-1.561,1.149,4.974,4.974,0,0,1-1.99.384,4.066,4.066,0,0,1-2.067-.506,3.387,3.387,0,0,1-1.347-1.44,4.2,4.2,0,0,1-.263-.663l10.659-.024c.081-.388.138-.728.17-1.027a7.793,7.793,0,0,0,.044-.841,7.631,7.631,0,0,0-.963-3.859,6.876,6.876,0,0,0-2.649-2.633Zm-5.772,3.139a3.563,3.563,0,0,1,1.913-.506,3.285,3.285,0,0,1,1.76.445,2.756,2.756,0,0,1,1.088,1.286,4.083,4.083,0,0,1,.247.789l-6.5.02a4.008,4.008,0,0,1,.231-.607,3.363,3.363,0,0,1,1.254-1.424Z" transform="translate(-992.883 -314.762)" fill="#1544ce"/>
            <path id="Path_20263" data-name="Path 20263" d="M1073.508,304.434v8.308a6.193,6.193,0,0,0-1.116-.684,6.437,6.437,0,0,0-2.771-.582,6.994,6.994,0,0,0-3.754,1.011,7.149,7.149,0,0,0-2.573,2.755,8.943,8.943,0,0,0,0,7.961,7.093,7.093,0,0,0,2.573,2.755,6.984,6.984,0,0,0,3.754,1.011,6.024,6.024,0,0,0,3.98-1.408v1.1h4.595V304.43h-4.684Zm-1.319,17.871a3.32,3.32,0,0,1-1.747.445,3.263,3.263,0,0,1-1.715-.461,3.206,3.206,0,0,1-1.193-1.254,3.733,3.733,0,0,1-.429-1.808,3.664,3.664,0,0,1,.445-1.808,3.357,3.357,0,0,1,1.193-1.254,3.48,3.48,0,0,1,3.463,0,3.156,3.156,0,0,1,1.165,1.242,3.847,3.847,0,0,1,.413,1.82,3.8,3.8,0,0,1-.429,1.836A3.2,3.2,0,0,1,1072.189,322.3Z" transform="translate(-1017.679 -304.43)" fill="#1544ce"/>
          </g>
        </g>
        <g id="Group_12221" data-name="Group 12221" transform="translate(135.05 0.004)">
          <path id="Path_20264" data-name="Path 20264" d="M1119.046,313.287h.906l-1.3-1.634a1.415,1.415,0,0,0,.445-.121,1.108,1.108,0,0,0,.445-.392,1.083,1.083,0,0,0,.158-.591,1.055,1.055,0,0,0-.158-.582,1.085,1.085,0,0,0-.441-.4,1.4,1.4,0,0,0-.651-.146h-1.521v3.871h.748v-1.614h.13l1.238,1.614Zm-1.367-3.26h.7a.573.573,0,0,1,.425.15.531.531,0,0,1,.15.384.494.494,0,0,1-.15.38.608.608,0,0,1-.429.142h-.692v-1.056Z" transform="translate(-1114.192 -307.406)" fill="#1544ce"/>
          <path id="Path_20265" data-name="Path 20265" d="M1114.2,312.514a4.037,4.037,0,1,1,4.037-4.037A4.043,4.043,0,0,1,1114.2,312.514Zm0-7.338a3.3,3.3,0,1,0,3.3,3.3A3.3,3.3,0,0,0,1114.2,305.176Z" transform="translate(-1110.16 -304.44)" fill="#1544ce"/>
        </g>
      </g>
      <path id="Path_20344" data-name="Path 20344" d="M1173.347,339.073l-5.478-.039.039-1.5,5.44.039v1.5Zm-10.8,0-5.478-.039.039-1.5,5.44.039v1.5Zm-10.8,0-5.479-.039.039-1.5,5.44.039v1.5Zm-10.8,0-5.478-.039.039-1.5,5.44.039v1.5Zm-10.8-.039h-.077v-1.466h.077Z" transform="translate(1363.074 2087.922) rotate(90)" fill="#222"/>
      <g id="Group_13101" data-name="Group 13101" transform="translate(24147.127 25430.104)">
        <g id="Group_13015" data-name="Group 13015" transform="translate(-45473.664 773.742) rotate(90)">
          <g id="Play" transform="translate(-23023.791 -22355.986)">
            <path id="Path_21777" data-name="Path 21777" d="M776.52,84.12l4.73,4.72-4.73,4.73" transform="translate(-776.52 -84.12)" fill="none" stroke="#222" stroke-miterlimit="10" stroke-width="1.5"/>
          </g>
        </g>
        <path id="Path_21929" data-name="Path 21929" d="M1173.347,339.073l-5.478-.039.039-1.5,5.44.039v1.5Zm-10.8,0-5.478-.039.039-1.5,5.44.039v1.5Zm-10.8,0-5.479-.039.039-1.5,5.44.039v1.5Z" transform="translate(-22784.055 -23424.174) rotate(90)" fill="#222"/>
      </g>
      <g id="Group_12922" data-name="Group 12922" transform="translate(984 3038)">
        <g id="Group_12920" data-name="Group 12920" clip-path="url(#clip-path-2)">
          <path id="Path_21811" data-name="Path 21811" d="M77.021,55.955v-5.21h4.429V42.617H76.082V29.381a4.22,4.22,0,0,0,1.077.141,4.328,4.328,0,0,0,1.122-.149,4.282,4.282,0,0,0,1.028-7.839L43.022.585a4.8,4.8,0,0,0-4.591,0L2.138,21.535a4.278,4.278,0,0,0,3.233,7.841V42.617H0v8.128H4.433v5.21H7.774V67.7H4.433v5.21H0v8.128H38.232v-2.3H2.3V75.2H79.154v3.537H43.745v2.3h37.7V72.909H77.021V67.7H73.676V55.955Zm-2.3-2.3h-14.9V50.745h14.9ZM2.561,26.234h0a1.987,1.987,0,0,1,.727-2.711L39.582,2.568a2.524,2.524,0,0,1,2.289,0L78.162,23.522a1.984,1.984,0,0,1-1.981,3.439L40.724,6.49,5.273,26.961a1.988,1.988,0,0,1-2.712-.726M2.3,48.449V44.912H38.232v-2.3H7.667V28.229L40.724,9.141,73.787,28.229V42.617H43.546v2.3H79.154v3.537H2.3ZM44.832,67.7H36.617V55.955h8.214Zm1.148-14.04H33.272V50.745h14.9v2.915ZM6.728,50.745h14.9v2.915H6.728Zm3.341,5.21h8.219V67.7H10.069ZM6.728,72.909V69.994h14.9v2.915Zm17.2,0V67.7H20.583V55.955h3.341v-5.21h7.054v5.21h3.345V67.7H30.977v5.21Zm9.349,0V69.994h14.9v2.915Zm17.2,0V67.7H47.127V55.955h3.345v-5.21h7.054v5.21h3.345V67.7H57.526v5.21Zm24.254,0h-14.9V69.994h14.9ZM71.38,67.7H63.166V55.955H71.38Z" transform="translate(0 0)" fill="#1544ce"/>
          <path id="Path_21812" data-name="Path 21812" d="M111.669,58.553A12.449,12.449,0,1,0,99.22,71a12.463,12.463,0,0,0,12.449-12.449m-22.6,0A10.154,10.154,0,1,1,99.22,68.708,10.166,10.166,0,0,1,89.066,58.553" transform="translate(-58.319 -30.987)" fill="#1544ce"/>
          <path id="Path_21813" data-name="Path 21813" d="M118.074,77.372v-.715l-3.442-4.215a4.633,4.633,0,0,0,1.65-.473,3.415,3.415,0,0,0,1.477-1.434,3.954,3.954,0,0,0,.328-.866h1.191l.662-2.26h-1.889a4.011,4.011,0,0,0-.2-.548l1.422.011.663-2.263h-8.45l-.672,2.214,3.045.006a2.179,2.179,0,0,1,1.434.472q.055.052.1.108h-3.914l-.662,2.26h4.663a1.426,1.426,0,0,1-.6.431,3.292,3.292,0,0,1-1.227.2h-2.576l.038,1.6,4.472,5.474Z" transform="translate(-74.482 -43.423)" fill="#1544ce"/>
        </g>
      </g>
      <path id="Path_22055" data-name="Path 22055" d="M8.3-11.232V-9.04H3.728v2.368H7.152v2.128H3.728V0H.992V-11.232ZM11.12-9.856a1.658,1.658,0,0,1-1.176-.424,1.374,1.374,0,0,1-.456-1.048,1.392,1.392,0,0,1,.456-1.064,1.658,1.658,0,0,1,1.176-.424,1.636,1.636,0,0,1,1.16.424,1.392,1.392,0,0,1,.456,1.064,1.374,1.374,0,0,1-.456,1.048A1.636,1.636,0,0,1,11.12-9.856Zm1.36.928V0H9.744V-8.928Zm7.424-.1a3.24,3.24,0,0,1,2.5,1.016,3.963,3.963,0,0,1,.936,2.792V0h-2.72V-4.848A1.959,1.959,0,0,0,20.16-6.24a1.627,1.627,0,0,0-1.248-.5,1.627,1.627,0,0,0-1.248.5A1.959,1.959,0,0,0,17.2-4.848V0H14.464V-8.928H17.2v1.184a2.886,2.886,0,0,1,1.12-.936A3.561,3.561,0,0,1,19.9-9.024ZM24.7-4.48a5.336,5.336,0,0,1,.52-2.416A3.879,3.879,0,0,1,26.64-8.5a3.7,3.7,0,0,1,2-.56,3.436,3.436,0,0,1,1.656.384,2.829,2.829,0,0,1,1.1,1.008V-8.928h2.736V0H31.392V-1.264A2.955,2.955,0,0,1,30.28-.256a3.436,3.436,0,0,1-1.656.384A3.63,3.63,0,0,1,26.64-.44a3.925,3.925,0,0,1-1.416-1.616A5.387,5.387,0,0,1,24.7-4.48Zm6.688.016a2.237,2.237,0,0,0-.568-1.616,1.845,1.845,0,0,0-1.384-.592,1.858,1.858,0,0,0-1.384.584,2.208,2.208,0,0,0-.568,1.608,2.266,2.266,0,0,0,.568,1.624,1.834,1.834,0,0,0,1.384.6,1.845,1.845,0,0,0,1.384-.592A2.237,2.237,0,0,0,31.392-4.464Zm10.16-4.56a3.24,3.24,0,0,1,2.5,1.016,3.963,3.963,0,0,1,.936,2.792V0h-2.72V-4.848a1.959,1.959,0,0,0-.464-1.392,1.627,1.627,0,0,0-1.248-.5,1.627,1.627,0,0,0-1.248.5,1.959,1.959,0,0,0-.464,1.392V0H36.112V-8.928h2.736v1.184a2.886,2.886,0,0,1,1.12-.936A3.561,3.561,0,0,1,41.552-9.024Zm4.8,4.56A5,5,0,0,1,46.92-6.9,3.945,3.945,0,0,1,48.5-8.5a4.743,4.743,0,0,1,2.328-.56,4.426,4.426,0,0,1,2.808.88A4.152,4.152,0,0,1,55.12-5.7H52.208A1.4,1.4,0,0,0,50.784-6.72a1.435,1.435,0,0,0-1.2.584,2.7,2.7,0,0,0-.448,1.672,2.7,2.7,0,0,0,.448,1.672,1.435,1.435,0,0,0,1.2.584,1.4,1.4,0,0,0,1.424-1.024H55.12A4.191,4.191,0,0,1,53.632-.768a4.381,4.381,0,0,1-2.8.9A4.743,4.743,0,0,1,48.5-.432a3.945,3.945,0,0,1-1.584-1.6A5,5,0,0,1,46.352-4.464Zm11.6-5.392a1.658,1.658,0,0,1-1.176-.424,1.374,1.374,0,0,1-.456-1.048,1.392,1.392,0,0,1,.456-1.064,1.658,1.658,0,0,1,1.176-.424,1.636,1.636,0,0,1,1.16.424,1.392,1.392,0,0,1,.456,1.064,1.374,1.374,0,0,1-.456,1.048A1.636,1.636,0,0,1,57.952-9.856Zm1.36.928V0H56.576V-8.928Zm1.44,4.448a5.336,5.336,0,0,1,.52-2.416,3.879,3.879,0,0,1,1.416-1.6,3.7,3.7,0,0,1,2-.56,3.436,3.436,0,0,1,1.656.384,2.829,2.829,0,0,1,1.1,1.008V-8.928h2.736V0H67.44V-1.264A2.954,2.954,0,0,1,66.328-.256a3.436,3.436,0,0,1-1.656.384A3.63,3.63,0,0,1,62.688-.44a3.925,3.925,0,0,1-1.416-1.616A5.387,5.387,0,0,1,60.752-4.48Zm6.688.016a2.237,2.237,0,0,0-.568-1.616,1.845,1.845,0,0,0-1.384-.592,1.858,1.858,0,0,0-1.384.584,2.208,2.208,0,0,0-.568,1.608A2.266,2.266,0,0,0,64.1-2.856a1.834,1.834,0,0,0,1.384.6,1.845,1.845,0,0,0,1.384-.592A2.237,2.237,0,0,0,67.44-4.464ZM74.9-11.84V0H72.16V-11.84Zm8.112.608V0H80.272V-11.232Zm7.424,2.208a3.24,3.24,0,0,1,2.5,1.016,3.963,3.963,0,0,1,.936,2.792V0h-2.72V-4.848a1.959,1.959,0,0,0-.464-1.392,1.627,1.627,0,0,0-1.248-.5,1.627,1.627,0,0,0-1.248.5,1.959,1.959,0,0,0-.464,1.392V0H84.992V-8.928h2.736v1.184a2.886,2.886,0,0,1,1.12-.936A3.561,3.561,0,0,1,90.432-9.024ZM99.408.128a5.132,5.132,0,0,1-2.08-.4,3.552,3.552,0,0,1-1.44-1.1,2.883,2.883,0,0,1-.592-1.56H98a1.039,1.039,0,0,0,.432.752,1.528,1.528,0,0,0,.944.288,1.347,1.347,0,0,0,.792-.2.612.612,0,0,0,.28-.52.6.6,0,0,0-.4-.568,8.081,8.081,0,0,0-1.3-.408,12.168,12.168,0,0,1-1.6-.472,2.764,2.764,0,0,1-1.1-.784,2.137,2.137,0,0,1-.464-1.448,2.459,2.459,0,0,1,.424-1.4,2.855,2.855,0,0,1,1.248-1,4.779,4.779,0,0,1,1.96-.368,3.929,3.929,0,0,1,2.648.832,3.237,3.237,0,0,1,1.112,2.208h-2.528a1.09,1.09,0,0,0-.408-.736,1.415,1.415,0,0,0-.9-.272,1.25,1.25,0,0,0-.736.184.587.587,0,0,0-.256.5.615.615,0,0,0,.408.576,6.535,6.535,0,0,0,1.272.384,13.916,13.916,0,0,1,1.616.5,2.788,2.788,0,0,1,1.1.8,2.264,2.264,0,0,1,.488,1.48,2.349,2.349,0,0,1-.44,1.4,2.91,2.91,0,0,1-1.264.968A4.834,4.834,0,0,1,99.408.128ZM109.68-2.32V0h-1.392a3.407,3.407,0,0,1-2.32-.728,3.008,3.008,0,0,1-.832-2.376V-6.656h-1.088V-8.928h1.088V-11.1h2.736v2.176h1.792v2.272h-1.792v3.584a.75.75,0,0,0,.192.576.937.937,0,0,0,.64.176Zm2.9-7.536a1.658,1.658,0,0,1-1.176-.424,1.374,1.374,0,0,1-.456-1.048,1.392,1.392,0,0,1,.456-1.064,1.658,1.658,0,0,1,1.176-.424,1.636,1.636,0,0,1,1.16.424,1.392,1.392,0,0,1,.456,1.064,1.374,1.374,0,0,1-.456,1.048A1.636,1.636,0,0,1,112.576-9.856Zm1.36.928V0H111.2V-8.928ZM120.9-2.32V0H119.5a3.407,3.407,0,0,1-2.32-.728,3.008,3.008,0,0,1-.832-2.376V-6.656h-1.088V-8.928h1.088V-11.1h2.736v2.176h1.792v2.272h-1.792v3.584a.75.75,0,0,0,.192.576.937.937,0,0,0,.64.176Zm10.336-6.608V0H128.5V-1.216a3,3,0,0,1-1.128.952,3.442,3.442,0,0,1-1.576.36,3.53,3.53,0,0,1-1.808-.456,3.075,3.075,0,0,1-1.216-1.32,4.492,4.492,0,0,1-.432-2.032V-8.928h2.72V-4.08a1.959,1.959,0,0,0,.464,1.392,1.627,1.627,0,0,0,1.248.5,1.647,1.647,0,0,0,1.264-.5A1.959,1.959,0,0,0,128.5-4.08V-8.928Zm6.944,6.608V0h-1.392a3.407,3.407,0,0,1-2.32-.728,3.008,3.008,0,0,1-.832-2.376V-6.656h-1.088V-8.928h1.088V-11.1h2.736v2.176h1.792v2.272h-1.792v3.584a.75.75,0,0,0,.192.576.937.937,0,0,0,.64.176Zm2.9-7.536a1.658,1.658,0,0,1-1.176-.424,1.374,1.374,0,0,1-.456-1.048,1.392,1.392,0,0,1,.456-1.064,1.658,1.658,0,0,1,1.176-.424,1.636,1.636,0,0,1,1.16.424,1.392,1.392,0,0,1,.456,1.064,1.374,1.374,0,0,1-.456,1.048A1.636,1.636,0,0,1,141.072-9.856Zm1.36.928V0H139.7V-8.928ZM148.48.128a4.928,4.928,0,0,1-2.36-.56,4.1,4.1,0,0,1-1.648-1.6,4.781,4.781,0,0,1-.6-2.432,4.743,4.743,0,0,1,.608-2.424A4.126,4.126,0,0,1,146.144-8.5a4.975,4.975,0,0,1,2.368-.56,4.975,4.975,0,0,1,2.368.56,4.126,4.126,0,0,1,1.664,1.608,4.743,4.743,0,0,1,.608,2.424,4.694,4.694,0,0,1-.616,2.424,4.165,4.165,0,0,1-1.68,1.608A5.022,5.022,0,0,1,148.48.128Zm0-2.368a1.782,1.782,0,0,0,1.336-.576,2.288,2.288,0,0,0,.552-1.648,2.331,2.331,0,0,0-.536-1.648,1.732,1.732,0,0,0-1.32-.576,1.736,1.736,0,0,0-1.328.568,2.348,2.348,0,0,0-.528,1.656,2.377,2.377,0,0,0,.52,1.648A1.683,1.683,0,0,0,148.48-2.24Zm11.568-6.784a3.24,3.24,0,0,1,2.5,1.016,3.963,3.963,0,0,1,.936,2.792V0h-2.72V-4.848A1.959,1.959,0,0,0,160.3-6.24a1.627,1.627,0,0,0-1.248-.5,1.627,1.627,0,0,0-1.248.5,1.959,1.959,0,0,0-.464,1.392V0h-2.736V-8.928h2.736v1.184a2.886,2.886,0,0,1,1.12-.936A3.561,3.561,0,0,1,160.048-9.024ZM169.024.128a5.131,5.131,0,0,1-2.08-.4,3.552,3.552,0,0,1-1.44-1.1,2.883,2.883,0,0,1-.592-1.56h2.7a1.04,1.04,0,0,0,.432.752,1.528,1.528,0,0,0,.944.288,1.347,1.347,0,0,0,.792-.2.612.612,0,0,0,.28-.52.6.6,0,0,0-.4-.568,8.081,8.081,0,0,0-1.3-.408,12.168,12.168,0,0,1-1.6-.472,2.764,2.764,0,0,1-1.1-.784,2.137,2.137,0,0,1-.464-1.448,2.459,2.459,0,0,1,.424-1.4,2.855,2.855,0,0,1,1.248-1,4.779,4.779,0,0,1,1.96-.368,3.929,3.929,0,0,1,2.648.832,3.237,3.237,0,0,1,1.112,2.208h-2.528a1.09,1.09,0,0,0-.408-.736,1.415,1.415,0,0,0-.9-.272,1.25,1.25,0,0,0-.736.184.587.587,0,0,0-.256.5.615.615,0,0,0,.408.576,6.534,6.534,0,0,0,1.272.384,13.916,13.916,0,0,1,1.616.5,2.787,2.787,0,0,1,1.1.8,2.264,2.264,0,0,1,.488,1.48,2.349,2.349,0,0,1-.44,1.4,2.91,2.91,0,0,1-1.264.968A4.834,4.834,0,0,1,169.024.128Z" transform="translate(938 3139.49)" fill="#222"/>
      <g id="Group_13100" data-name="Group 13100" transform="translate(0.186)">
        <path id="Path_22045" data-name="Path 22045" d="M776.52,84.12l4.73,4.72-4.73,4.73" transform="translate(365.033 3174.959)" fill="none" stroke="#222" stroke-miterlimit="10" stroke-width="1.5"/>
        <path id="Path_22046" data-name="Path 22046" d="M781.251,84.12l-4.73,4.721,4.73,4.731" transform="translate(126.295 3174.959)" fill="none" stroke="#222" stroke-miterlimit="10" stroke-width="1.5"/>
        <path id="Path_22047" data-name="Path 22047" d="M1173.347,339.073l-5.478-.039.039-1.5,5.44.039v1.5Zm-10.8,0-5.478-.039.039-1.5,5.44.039v1.5Zm-10.8,0-5.479-.039.039-1.5,5.44.039v1.5Zm-10.8,0-5.478-.039.039-1.5,5.44.039v1.5Z" transform="translate(2080.213 3602.389) rotate(180)" fill="#222"/>
        <path id="Path_22048" data-name="Path 22048" d="M1173.347,339.073l-5.478-.039.039-1.5,5.44.039v1.5Zm-10.8,0-5.478-.039.039-1.5,5.44.039v1.5Zm-10.8,0-5.479-.039.039-1.5,5.44.039v1.5Zm-10.8,0-5.478-.039.039-1.5,5.44.039v1.5Z" transform="translate(2112.213 3602.389) rotate(180)" fill="#222"/>
        <path id="Path_22049" data-name="Path 22049" d="M1173.347,339.073l-5.478-.039.039-1.5,5.44.039v1.5Zm-10.8,0-5.478-.039.039-1.5,5.44.039v1.5Zm-10.8,0-5.479-.039.039-1.5,5.44.039v1.5Zm-10.8,0-5.478-.039.039-1.5,5.44.039v1.5Z" transform="translate(2145.213 3602.389) rotate(180)" fill="#222"/>
        <path id="Path_22050" data-name="Path 22050" d="M1173.347,339.073l-5.478-.039.039-1.5,5.44.039v1.5Zm-10.8,0-5.478-.039.039-1.5,5.44.039v1.5Zm-10.8,0-5.479-.039.039-1.5,5.44.039v1.5Zm-10.8,0-5.478-.039.039-1.5,5.44.039v1.5Z" transform="translate(2177.213 3602.389) rotate(180)" fill="#222"/>
        <path id="Path_22051" data-name="Path 22051" d="M1173.347,339.073l-5.478-.039.039-1.5,5.44.039v1.5Zm-10.8,0-5.478-.039.039-1.5,5.44.039v1.5Zm-10.8,0-5.479-.039.039-1.5,5.44.039v1.5Zm-10.8,0-5.478-.039.039-1.5,5.44.039v1.5Z" transform="translate(2242.904 3602.389) rotate(180)" fill="#222"/>
        <path id="Path_22052" data-name="Path 22052" d="M1173.347,339.073l-5.478-.039.039-1.5,5.44.039v1.5Zm-10.8,0-5.478-.039.039-1.5,5.44.039v1.5Zm-10.8,0-5.479-.039.039-1.5,5.44.039v1.5Zm-10.8,0-5.478-.039.039-1.5,5.44.039v1.5Z" transform="translate(2210.213 3602.389) rotate(180)" fill="#222"/>
        <path id="Path_22053" data-name="Path 22053" d="M1173.347,339.073l-5.478-.039.039-1.5,5.44.039v1.5Zm-10.8,0-5.478-.039.039-1.5,5.44.039v1.5Zm-10.8,0-5.479-.039.039-1.5,5.44.039v1.5Zm-10.8,0-5.478-.039.039-1.5,5.44.039v1.5Z" transform="translate(2275.904 3602.389) rotate(180)" fill="#222"/>
      </g>
    </g>
  </g>
</svg>
