<svg id="Group_12838" data-name="Group 12838" xmlns="http://www.w3.org/2000/svg" width="109.543" height="21.807" viewBox="0 0 109.543 21.807">
  <g id="Group_12220" data-name="Group 12220">
    <g id="Group_12218" data-name="Group 12218" transform="translate(0 4.272)">
      <path id="Path_20256" data-name="Path 20256" d="M789.3,319.787l-1.563-1.557a8.514,8.514,0,0,0-2.514,2.573,4.011,4.011,0,0,0-1.356-1.025,4.77,4.77,0,0,0-2.084-.446,5.252,5.252,0,0,0-2.814.762,5.416,5.416,0,0,0-1.957,2.111,6.393,6.393,0,0,0-.718,3.059,6.251,6.251,0,0,0,.718,3.034,5.611,5.611,0,0,0,1.966,2.111,5.165,5.165,0,0,0,2.8.786,4.823,4.823,0,0,0,2.108-.446,4,4,0,0,0,1.337-1.019,8.51,8.51,0,0,0,2.511,2.563l1.56-1.554a9.125,9.125,0,0,1,0-10.95m-4.916,7.4a2.358,2.358,0,0,1-1.848.749,2.528,2.528,0,0,1-1.307-.337,2.492,2.492,0,0,1-.919-.95,2.952,2.952,0,0,1,0-2.765,2.49,2.49,0,0,1,.919-.95,2.531,2.531,0,0,1,1.307-.341,2.692,2.692,0,0,1,1.344.341,2.447,2.447,0,0,1,.325.229,2.234,2.234,0,0,1,.57.709,2.956,2.956,0,0,1,.306,1.371,2.742,2.742,0,0,1-.7,1.944" transform="translate(-776.29 -318.23)" fill="#1544ce"/>
      <path id="Path_20257" data-name="Path 20257" d="M872.056,334.187a5.882,5.882,0,0,1-2.792-.656,4.814,4.814,0,0,1-1.919-1.793,4.977,4.977,0,0,1-.684-2.613V322.54h3.628v6.539a2.276,2.276,0,0,0,.214,1.019,1.546,1.546,0,0,0,.613.669,1.846,1.846,0,0,0,.941.235,1.6,1.6,0,0,0,1.26-.514,2.033,2.033,0,0,0,.458-1.406v-6.539H877.4v6.585a5.08,5.08,0,0,1-.672,2.638,4.725,4.725,0,0,1-1.873,1.783,5.844,5.844,0,0,1-2.8.644" transform="translate(-838.682 -321.206)" fill="#1544ce"/>
      <path id="Path_20258" data-name="Path 20258" d="M830.252,322.022v.926a3.992,3.992,0,0,0-1.049-.712,4.761,4.761,0,0,0-2.084-.446,5.25,5.25,0,0,0-4.783,2.873,6.5,6.5,0,0,0-.706,3.059,6.35,6.35,0,0,0,.706,3.034,5.555,5.555,0,0,0,1.944,2.111,5.182,5.182,0,0,0,2.839.786,4.787,4.787,0,0,0,2.074-.446,4.151,4.151,0,0,0,1.062-.715v5.731h3.579V322.028h-3.579Zm-2.4,8.368a2.6,2.6,0,0,1-1.319-.337,2.3,2.3,0,0,1-.907-.95,2.957,2.957,0,0,1-.319-1.381,2.867,2.867,0,0,1,.331-1.384,2.437,2.437,0,0,1,.907-.95,2.579,2.579,0,0,1,1.331-.337,2.519,2.519,0,0,1,1.319.337,2.439,2.439,0,0,1,.895.938,2.784,2.784,0,0,1,.331,1.371,2.688,2.688,0,0,1-.718,1.944,2.443,2.443,0,0,1-1.848.749" transform="translate(-807.593 -320.688)" fill="#1544ce"/>
      <path id="Path_20259" data-name="Path 20259" d="M915.634,323.036a4.227,4.227,0,0,0-1.071-.731,4.771,4.771,0,0,0-2.083-.446,5.253,5.253,0,0,0-2.814.762,5.416,5.416,0,0,0-1.957,2.111,6.393,6.393,0,0,0-.718,3.059,6.251,6.251,0,0,0,.718,3.034,5.611,5.611,0,0,0,1.966,2.111,5.165,5.165,0,0,0,2.8.786,4.823,4.823,0,0,0,2.108-.446,4.083,4.083,0,0,0,1.049-.715v.923h3.557V322.1h-3.557v.941Zm-2.4,7.424a2.528,2.528,0,0,1-1.306-.337,2.491,2.491,0,0,1-.919-.95,2.952,2.952,0,0,1,0-2.765,2.489,2.489,0,0,1,.919-.95,2.528,2.528,0,0,1,1.306-.337,2.69,2.69,0,0,1,1.344.337,2.233,2.233,0,0,1,.895.938,2.954,2.954,0,0,1,.307,1.371,2.742,2.742,0,0,1-.7,1.944,2.4,2.4,0,0,1-1.848.749" transform="translate(-866.526 -320.736)" fill="#1544ce"/>
    </g>
    <g id="Group_12219" data-name="Group 12219" transform="translate(54.368)">
      <path id="Path_20260" data-name="Path 20260" d="M959.46,330.168a3.051,3.051,0,0,1-1.254.245,2.656,2.656,0,0,1-1.359-.353,2.5,2.5,0,0,1-.951-.96,2.846,2.846,0,0,1-.341-1.406,2.793,2.793,0,0,1,.341-1.4,2.438,2.438,0,0,1,.938-.938,2.731,2.731,0,0,1,1.371-.341,3.269,3.269,0,0,1,1.207.211,2.431,2.431,0,0,1,.926.656l2.3-2.3a5.709,5.709,0,0,0-1.981-1.372,6.413,6.413,0,0,0-2.449-.458,6.619,6.619,0,0,0-3.21.774,5.945,5.945,0,0,0-2.263,2.121,6.049,6.049,0,0,0-.012,6.105,5.807,5.807,0,0,0,2.251,2.133,6.577,6.577,0,0,0,3.189.774,6.342,6.342,0,0,0,2.508-.48,6.018,6.018,0,0,0,2.016-1.418l-2.272-2.3a2.775,2.775,0,0,1-.95.69Z" transform="translate(-951.9 -316.395)" fill="#1544ce"/>
      <path id="Path_20261" data-name="Path 20261" d="M999.837,322.1a3.9,3.9,0,0,0-1.443-.245,3.863,3.863,0,0,0-2.929,1.1V322.1H991.88v11.393h3.585v-6.26a2.32,2.32,0,0,1,.526-1.653,1.868,1.868,0,0,1,1.418-.551,2.132,2.132,0,0,1,.8.139,1.514,1.514,0,0,1,.585.4l2.133-2.7a2.9,2.9,0,0,0-1.09-.762Z" transform="translate(-979.503 -316.464)" fill="#1544ce"/>
      <path id="Path_20262" data-name="Path 20262" d="M1029.816,322.508a5.979,5.979,0,0,0-2.978-.728,6.343,6.343,0,0,0-3.118.774,6.03,6.03,0,0,0-2.18,8.251,5.682,5.682,0,0,0,2.263,2.121,6.94,6.94,0,0,0,3.294.762,6.825,6.825,0,0,0,2.625-.492,5.333,5.333,0,0,0,2.04-1.477l-1.969-1.969a3.355,3.355,0,0,1-1.195.879,3.808,3.808,0,0,1-1.523.294,3.112,3.112,0,0,1-1.582-.387,2.592,2.592,0,0,1-1.031-1.1,3.21,3.21,0,0,1-.2-.508l8.158-.019c.062-.3.105-.557.13-.786a5.943,5.943,0,0,0,.034-.644,5.84,5.84,0,0,0-.737-2.954,5.262,5.262,0,0,0-2.028-2.015Zm-4.418,2.4a2.728,2.728,0,0,1,1.464-.387,2.514,2.514,0,0,1,1.347.341,2.111,2.111,0,0,1,.833.984,3.14,3.14,0,0,1,.189.6l-4.972.015a3.074,3.074,0,0,1,.177-.464,2.574,2.574,0,0,1,.96-1.09Z" transform="translate(-999.414 -316.409)" fill="#1544ce"/>
      <path id="Path_20263" data-name="Path 20263" d="M1070.892,304.433v6.359a4.739,4.739,0,0,0-.854-.523,4.927,4.927,0,0,0-2.121-.446,5.354,5.354,0,0,0-2.873.774,5.473,5.473,0,0,0-1.969,2.108,6.845,6.845,0,0,0,0,6.093,5.43,5.43,0,0,0,1.969,2.108,5.346,5.346,0,0,0,2.873.774,4.611,4.611,0,0,0,3.047-1.077v.845h3.517V304.43H1070.9Zm-1.009,13.678a2.541,2.541,0,0,1-1.337.341,2.5,2.5,0,0,1-1.313-.353,2.453,2.453,0,0,1-.913-.96,2.857,2.857,0,0,1-.328-1.384,2.805,2.805,0,0,1,.34-1.384,2.57,2.57,0,0,1,.913-.96,2.664,2.664,0,0,1,2.65,0,2.414,2.414,0,0,1,.891.95,2.943,2.943,0,0,1,.316,1.393,2.908,2.908,0,0,1-.328,1.406A2.445,2.445,0,0,1,1069.883,318.111Z" transform="translate(-1028.162 -304.43)" fill="#1544ce"/>
    </g>
  </g>
  <g id="Group_12221" data-name="Group 12221" transform="translate(103.364 0.003)">
    <path id="Path_20264" data-name="Path 20264" d="M1118.549,312.38h.693l-.994-1.251a1.081,1.081,0,0,0,.341-.093.846.846,0,0,0,.34-.3.827.827,0,0,0,.121-.452.806.806,0,0,0-.121-.446.83.83,0,0,0-.337-.306,1.075,1.075,0,0,0-.5-.111h-1.164v2.963h.573v-1.235h.1l.947,1.235Zm-1.046-2.5h.536a.438.438,0,0,1,.325.115.406.406,0,0,1,.115.294.378.378,0,0,1-.115.291.465.465,0,0,1-.328.108h-.529v-.808Z" transform="translate(-1114.834 -307.878)" fill="#1544ce"/>
    <path id="Path_20265" data-name="Path 20265" d="M1113.25,310.619a3.09,3.09,0,1,1,3.09-3.09A3.094,3.094,0,0,1,1113.25,310.619Zm0-5.616a2.526,2.526,0,1,0,2.526,2.526A2.529,2.529,0,0,0,1113.25,305Z" transform="translate(-1110.16 -304.44)" fill="#1544ce"/>
  </g>
</svg>
