<svg xmlns="http://www.w3.org/2000/svg" xmlns:xlink="http://www.w3.org/1999/xlink" width="217.965" height="33.178" viewBox="0 0 217.965 33.178"><defs><clipPath id="a"><rect width="217.965" height="33.177" transform="translate(0 0)" fill="none"/></clipPath></defs><g transform="translate(0 11.502)"><g transform="translate(0 -11.502)" clip-path="url(#a)"><path d="M20.57,6.023,18.1,3.562A13.494,13.494,0,0,0,14.12,7.63a6.451,6.451,0,0,0-2.143-1.622,7.519,7.519,0,0,0-3.3-.7,8.315,8.315,0,0,0-4.453,1.2A8.543,8.543,0,0,0,1.136,9.845,10.113,10.113,0,0,0,0,14.681a9.9,9.9,0,0,0,1.136,4.8,8.842,8.842,0,0,0,3.11,3.337A8.157,8.157,0,0,0,8.68,24.059a7.645,7.645,0,0,0,3.334-.7,6.318,6.318,0,0,0,2.114-1.609A13.512,13.512,0,0,0,18.1,25.8l2.47-2.458a14.438,14.438,0,0,1,0-17.319M12.8,17.721a3.811,3.811,0,0,1-.288.28,3.869,3.869,0,0,1-2.636.9A4,4,0,0,1,7.8,18.37a3.905,3.905,0,0,1-1.453-1.5,4.384,4.384,0,0,1-.542-2.186,4.386,4.386,0,0,1,.542-2.187,3.937,3.937,0,0,1,1.453-1.5,4,4,0,0,1,2.068-.537A4.173,4.173,0,0,1,12,10.993a3.777,3.777,0,0,1,.514.363,3.523,3.523,0,0,1,.9,1.12,4.684,4.684,0,0,1,.484,2.167,4.344,4.344,0,0,1-1.1,3.077" transform="translate(0 1.89)" fill="#1544ce"/><path d="M37.443,23.362a9.271,9.271,0,0,1-4.414-1.038,7.605,7.605,0,0,1-3.035-2.835,7.854,7.854,0,0,1-1.082-4.133V4.941h5.738V15.284a3.618,3.618,0,0,0,.335,1.61,2.424,2.424,0,0,0,.969,1.058,2.89,2.89,0,0,0,1.489.37,2.528,2.528,0,0,0,1.991-.814,3.213,3.213,0,0,0,.729-2.224V4.941H45.9V15.357a8.053,8.053,0,0,1-1.062,4.168,7.486,7.486,0,0,1-2.962,2.819,9.259,9.259,0,0,1-4.434,1.018" transform="translate(15.342 2.622)" fill="#1544ce"/><path d="M28.142,5.068V6.53A6.47,6.47,0,0,0,26.482,5.4a7.535,7.535,0,0,0-3.3-.7,8.3,8.3,0,0,0-7.563,4.54,10.272,10.272,0,0,0-1.117,4.837,10.037,10.037,0,0,0,1.117,4.8A8.765,8.765,0,0,0,18.7,22.212a8.191,8.191,0,0,0,4.488,1.243,7.587,7.587,0,0,0,3.279-.7,6.446,6.446,0,0,0,1.678-1.131v9.063H33.8V5.068ZM24.341,18.3a4.115,4.115,0,0,1-2.086-.536,3.622,3.622,0,0,1-1.434-1.5,4.647,4.647,0,0,1-.5-2.184,4.517,4.517,0,0,1,.522-2.187,3.814,3.814,0,0,1,1.436-1.5,4.079,4.079,0,0,1,2.1-.536,3.98,3.98,0,0,1,2.085.536,3.875,3.875,0,0,1,1.416,1.485,4.395,4.395,0,0,1,.522,2.166,4.258,4.258,0,0,1-1.137,3.078A3.863,3.863,0,0,1,24.341,18.3" transform="translate(7.697 2.495)" fill="#1544ce"/><path d="M55.48,6.583a6.592,6.592,0,0,0-1.694-1.156,7.545,7.545,0,0,0-3.3-.7,8.31,8.31,0,0,0-4.453,1.2,8.557,8.557,0,0,0-3.093,3.337A10.119,10.119,0,0,0,41.807,14.1a9.888,9.888,0,0,0,1.136,4.8,8.845,8.845,0,0,0,3.112,3.337,8.153,8.153,0,0,0,4.434,1.243,7.638,7.638,0,0,0,3.332-.7,6.475,6.475,0,0,0,1.659-1.128v1.46h5.625V5.092H55.48Zm-3.8,11.742a4.006,4.006,0,0,1-2.066-.536,3.9,3.9,0,0,1-1.454-1.5,4.39,4.39,0,0,1-.54-2.184,4.393,4.393,0,0,1,.54-2.187,3.934,3.934,0,0,1,1.454-1.5,4.006,4.006,0,0,1,2.066-.536,4.183,4.183,0,0,1,2.123.536A3.548,3.548,0,0,1,55.219,11.9a4.682,4.682,0,0,1,.485,2.166,4.34,4.34,0,0,1-1.1,3.078,3.79,3.79,0,0,1-2.924,1.185" transform="translate(22.185 2.507)" fill="#1544ce"/><path d="M74.984,21.426a10.044,10.044,0,0,0,1.131-4.818,10.04,10.04,0,0,0-1.131-4.818,8.616,8.616,0,0,0-3.113-3.337,8.472,8.472,0,0,0-4.541-1.223,7.824,7.824,0,0,0-3.335.7,6.872,6.872,0,0,0-1.446.892V0h-5.6V25.615h5.671V24.371a7.058,7.058,0,0,0,1.373.874,7.5,7.5,0,0,0,3.335.741,8.472,8.472,0,0,0,4.541-1.223,8.616,8.616,0,0,0,3.113-3.337m-4.615-4.818a4.62,4.62,0,0,1-.519,2.224,3.8,3.8,0,0,1-1.427,1.5,4.352,4.352,0,0,1-4.189,0,3.792,3.792,0,0,1-1.428-1.5,4.62,4.62,0,0,1-.519-2.224,4.676,4.676,0,0,1,.5-2.187,3.753,3.753,0,0,1,1.428-1.52,3.953,3.953,0,0,1,2.076-.556,4.006,4.006,0,0,1,2.132.556,3.932,3.932,0,0,1,1.427,1.52,4.541,4.541,0,0,1,.519,2.187" transform="translate(30.221 0)" fill="#1544ce"/><path d="M84.239,6.583a6.576,6.576,0,0,0-1.687-1.156,7.473,7.473,0,0,0-3.282-.7,8.145,8.145,0,0,0-4.43,1.223,8.717,8.717,0,0,0-3.077,3.335,10.054,10.054,0,0,0-1.131,4.82,10.04,10.04,0,0,0,1.131,4.818,8.711,8.711,0,0,0,3.077,3.337,8.145,8.145,0,0,0,4.43,1.223,7.592,7.592,0,0,0,3.3-.7,6.4,6.4,0,0,0,1.668-1.13v1.463H89.8V5.093H84.239ZM80.42,18.364a3.953,3.953,0,0,1-2.076-.556,3.882,3.882,0,0,1-1.446-1.52,4.541,4.541,0,0,1-.519-2.187,4.492,4.492,0,0,1,.537-2.224,3.923,3.923,0,0,1,1.446-1.5,4.352,4.352,0,0,1,4.189,0,3.673,3.673,0,0,1,1.408,1.5,4.758,4.758,0,0,1,.5,2.224,4.331,4.331,0,0,1-1.113,3.058,3.794,3.794,0,0,1-2.928,1.2" transform="translate(37.482 2.506)" fill="#1544ce"/><path d="M110.438,6.583a6.576,6.576,0,0,0-1.687-1.156,7.473,7.473,0,0,0-3.282-.7,8.145,8.145,0,0,0-4.43,1.223,8.717,8.717,0,0,0-3.077,3.335,10.055,10.055,0,0,0-1.131,4.82,10.04,10.04,0,0,0,1.131,4.818,8.711,8.711,0,0,0,3.077,3.337,8.145,8.145,0,0,0,4.43,1.223,7.592,7.592,0,0,0,3.3-.7,6.4,6.4,0,0,0,1.668-1.13v1.463H116V5.093h-5.559Zm-3.819,11.781a3.953,3.953,0,0,1-2.076-.556,3.882,3.882,0,0,1-1.446-1.52,4.541,4.541,0,0,1-.519-2.187,4.492,4.492,0,0,1,.537-2.224,3.923,3.923,0,0,1,1.446-1.5,4.352,4.352,0,0,1,4.189,0,3.673,3.673,0,0,1,1.408,1.5,4.758,4.758,0,0,1,.5,2.224,4.331,4.331,0,0,1-1.113,3.058,3.794,3.794,0,0,1-2.928,1.2" transform="translate(51.384 2.506)" fill="#1544ce"/><path d="M85.92,9.707h7.231l-7.9,9.939v3.337h15.723V18.236H93.27L101.2,8.261v-3.3H85.92Z" transform="translate(45.24 2.632)" fill="#1544ce"/><path d="M140.767,6.185h1.084L140.3,4.233a1.631,1.631,0,0,0,.53-.145,1.281,1.281,0,0,0,.528-.468,1.3,1.3,0,0,0,.187-.707,1.293,1.293,0,0,0-.187-.7,1.309,1.309,0,0,0-.525-.476,1.674,1.674,0,0,0-.779-.173h-1.812V6.185h.892V4.259h.155ZM139.136,2.3h.834a.677.677,0,0,1,.507.181.627.627,0,0,1,.178.456.6.6,0,0,1-.178.456.714.714,0,0,1-.513.168h-.828Z" transform="translate(73.359 0.832)" fill="#1544ce"/><path d="M140.922,9.634a4.817,4.817,0,1,1,4.817-4.817,4.822,4.822,0,0,1-4.817,4.817m0-8.755a3.938,3.938,0,1,0,3.94,3.938,3.941,3.941,0,0,0-3.94-3.938" transform="translate(72.225 0)" fill="#1544ce"/><path d="M125.494,6.583a6.576,6.576,0,0,0-1.687-1.156,7.473,7.473,0,0,0-3.282-.7,8.145,8.145,0,0,0-4.43,1.223,8.717,8.717,0,0,0-3.077,3.335,10.054,10.054,0,0,0-1.131,4.82,10.04,10.04,0,0,0,1.131,4.818,8.711,8.711,0,0,0,3.077,3.337,8.145,8.145,0,0,0,4.43,1.223,7.592,7.592,0,0,0,3.3-.7,6.4,6.4,0,0,0,1.668-1.13v1.463h5.559V5.093h-5.559Zm-3.819,11.781a3.953,3.953,0,0,1-2.076-.556,3.882,3.882,0,0,1-1.446-1.52,4.541,4.541,0,0,1-.519-2.187,4.492,4.492,0,0,1,.537-2.224,3.923,3.923,0,0,1,1.446-1.5,4.352,4.352,0,0,1,4.189,0,3.674,3.674,0,0,1,1.408,1.5,4.758,4.758,0,0,1,.5,2.224A4.331,4.331,0,0,1,124.6,17.16a3.794,3.794,0,0,1-2.928,1.2" transform="translate(59.374 2.506)" fill="#1544ce"/><path d="M139.53,5.112a6.177,6.177,0,0,0-2.279-.389,6.113,6.113,0,0,0-4.635,1.742V5.093h-5.671V23.109h5.671v-9.9a3.653,3.653,0,0,1,.834-2.614,2.962,2.962,0,0,1,2.242-.871,3.369,3.369,0,0,1,1.261.223,2.457,2.457,0,0,1,.926.629l3.374-4.263a4.607,4.607,0,0,0-1.724-1.2" transform="translate(67.364 2.506)" fill="#1544ce"/></g></g></svg>