<?xml version="1.0" encoding="utf-8"?>
<!-- Generator: Adobe Illustrator 25.4.1, SVG Export Plug-In . SVG Version: 6.00 Build 0)  -->
<svg version="1.1" id="Layer_1" xmlns="http://www.w3.org/2000/svg" xmlns:xlink="http://www.w3.org/1999/xlink" x="0px" y="0px" width="208"
	 viewBox="0 0 208 100" style="enable-background:new 0 0 208 100;" xml:space="preserve">
<style type="text/css">
	.st0{fill:#DF002D;}
	.st1{fill:#FFFFFF;}
	.st2{enable-background:new    ;}
	.st3{fill:#333333;}
	.st4{fill:none;stroke:#333333;stroke-width:0.15;}
	.st5{fill:none;}
	.st6{fill:none;stroke:#707070;stroke-width:0.25;}
</style>
<g id="Group_11480" transform="translate(466 -1353)">
	<g id="Group_11478" transform="translate(-466 1353)">
		<g id="Group_11473" transform="translate(0)">
			<g id="Group_11472" transform="translate(0 0)">
				<g id="Group_11471">
					<rect id="Rectangle_9383" class="st0" width="208" height="58"/>
					<g id="_20190308060624-ENT-India-Logo-White" transform="translate(18 7)">
						<path id="Path_19330" class="st1" d="M0.3,22.8l2.2-0.3v-20L0,2.2L0.1,0h15.1l-0.4,6.1l-3-0.1l-0.2-3.8H7v9h2l0.5-2.1l2.1,0.1
							v6.2H9.5L9,13.2H7v9.6h4.7l0.4-4.1l3.2,0.1l0.2,6.3H0.2L0.3,22.8z"/>
						<path id="Path_19331" class="st1" d="M16.9,25.1l0.1-1.9l1.7-0.3V10.3l-2-0.2V8.2l5-0.7l0.4,1.1v0.7c1.1-1.3,2.8-2,4.5-2
							c2.7,0,4.7,1.6,4.7,4.9v10.7l1.8,0.3L33,25.1h-5.9V13c0-1.7-0.6-2.7-2.2-2.7c-0.4,0-0.9,0.1-1.3,0.2c-0.3,0.2-0.5,0.5-0.7,0.8
							v11.5l1.8,0.3l-0.1,1.9H16.9z"/>
						<path id="Path_19332" class="st1" d="M111.7,25.1l0.1-1.9l1.7-0.3V10.3l-2-0.2V8.2l5-0.7l0.4,1.1v0.7c1.1-1.3,2.8-2,4.5-2
							c2.7,0,4.7,1.6,4.7,4.9v10.7l1.8,0.3l-0.1,1.9h-5.9V13c0-1.7-0.6-2.7-2.2-2.7c-0.4,0-0.9,0.1-1.3,0.2
							c-0.3,0.2-0.5,0.5-0.7,0.8v11.5l1.8,0.3l-0.1,1.9H111.7z"/>
						<path id="Path_19333" class="st1" d="M42.4,24.7c-1.1,0.4-2.3,0.6-3.5,0.6c-2.1,0-4-0.9-4-4V10.2l-2-0.3l0.1-2.2l2.3-0.1
							l1-3.4L39,4.1v3.6h3.1l-0.2,2.2l-2.8,0.3v11c-0.1,0.7,0.4,1.4,1.2,1.5c0.1,0,0.2,0,0.3,0h1.7L42.4,24.7z"/>
						<path id="Path_19334" class="st1" d="M159.9,25.1l0.1-1.8l1.6-0.4V10.3l-1.9-0.2V8.2l5.1-0.7l0.3,1.2v0.4
							c1.6-1.1,3.4-1.7,5.4-1.7l0.8,0.7l-0.5,4.7l-2.8-0.1l-0.3-2.5c-0.6,0.1-1.3,0.3-1.8,0.7v12l1.8,0.4l-0.1,1.8L159.9,25.1
							L159.9,25.1z"/>
						<path id="Path_19335" class="st1" d="M86,25.1l0.1-1.8l1.6-0.4V10.3l-1.9-0.2V8.2l5.1-0.7l0.3,1.2v0.4
							c1.6-1.1,3.4-1.7,5.3-1.7l0.8,0.7l-0.5,4.7L94,12.8l-0.3-2.5c-0.6,0.1-1.3,0.3-1.8,0.7v12l1.8,0.4l-0.1,1.8L86,25.1L86,25.1z"
							/>
						<path id="Path_19336" class="st1" d="M43.7,25.1l0.1-1.8l1.6-0.4V10.3l-1.9-0.2V8.2l5.1-0.7l0.3,1.2v0.4
							c1.6-1.1,3.4-1.7,5.3-1.7L55,8.1l-0.5,4.7l-2.8-0.1l-0.3-2.5c-0.6,0.1-1.3,0.3-1.8,0.7v12l1.8,0.4l-0.1,1.8L43.7,25.1
							L43.7,25.1z"/>
						<path id="Path_19337" class="st1" d="M59.9,17.4c0,3,1.3,5.3,3.9,5.3c1.3,0,2.5-0.3,3.7-0.9l0.7,1.7c-1.6,1.2-3.5,1.8-5.5,1.8
							c-4.6,0-7.2-4-7.2-9c0-4.3,1.9-9.1,7.2-9.1c4.6,0,6.3,4.2,6.3,9l-0.4,1.1L59.9,17.4z M59.9,15.4l5.3-0.2
							C65,13,64.6,9.7,62.5,9.7c-0.5,0-1,0.1-1.5,0.4C60.3,11.8,59.9,13.6,59.9,15.4z"/>
						<path id="Path_19338" class="st1" d="M132.9,17.4c0,3,1.3,5.3,3.9,5.3c1.3,0,2.5-0.3,3.7-0.9l0.7,1.7
							c-1.6,1.2-3.5,1.8-5.5,1.8c-4.6,0-7.2-4-7.2-9c0-4.3,1.9-9.1,7.2-9.1c4.6,0,6.3,4.2,6.3,9l-0.4,1.1L132.9,17.4z M132.8,15.4
							l5.3-0.2c-0.1-2.1-0.5-5.4-2.6-5.4c-0.5,0-1,0.1-1.5,0.4C133.2,11.8,132.8,13.6,132.8,15.4z"/>
						<path id="Path_19339" class="st1" d="M102.2,17.4c0,3,1.3,5.3,3.9,5.3c1.3,0,2.5-0.3,3.7-0.9l0.7,1.7
							c-1.6,1.2-3.5,1.8-5.5,1.8c-4.6,0-7.2-4-7.2-9c0-4.3,1.9-9.1,7.2-9.1c4.6,0,6.3,4.2,6.3,9l-0.4,1.1L102.2,17.4z M102.1,15.4
							l5.3-0.2c-0.1-2.1-0.5-5.4-2.6-5.4c-0.5,0-1,0.1-1.5,0.4C102.6,11.8,102.2,13.6,102.1,15.4z"/>
						<path id="Path_19340" class="st1" d="M153.8,25.1l-0.4-1.5c-1,1.1-2.5,1.8-4,1.8c-2.7,0-5.1-1.4-5.1-5.1V9.8l-2-0.2V8l5.7-0.7
							l0.4,1.5v10.9c0,1.9,0.8,2.9,2.3,2.9c0.5,0,1-0.1,1.5-0.3c0.3-0.3,0.6-0.6,0.8-1V9.8l-2-0.2V8l5.8-0.7l0.4,1.5v14.1l1.8,0.3
							l-0.2,1.9L153.8,25.1z"/>
						<path id="Path_19341" class="st1" d="M77.5,22.8c-0.8,0-1.5-0.1-2.2-0.5V11.3c0.2-0.4,0.5-0.7,0.8-1c0.5-0.2,1-0.3,1.6-0.3
							c2.4,0,2.7,2.4,2.7,6.7c0,4.1-0.6,5.2-0.8,5.7C79,22.7,78.3,22.8,77.5,22.8z M84.5,15.9c0-5.3-1.6-8.6-5.5-8.6
							c-1.7,0-3.3,0.8-4.3,2.1V8.8l-0.4-1.5L69.2,8v1.8l2,0.3v21.4l-1.7,0.3l-0.1,1.8H77l0.1-1.8l-1.8-0.3v-6.8
							c0.9,0.4,1.8,0.7,2.8,0.7C84.5,25.3,84.5,18.8,84.5,15.9z"/>
						<path id="Path_19342" class="st1" d="M170.2,22.6c0.7-0.1,1.3,0.4,1.4,1.1c0.1,0.7-0.4,1.3-1.1,1.4c-0.1,0-0.2,0-0.4,0
							c-0.7,0.1-1.3-0.4-1.4-1.1c-0.1-0.7,0.4-1.3,1.1-1.4C169.9,22.6,170,22.6,170.2,22.6z M170.2,24.7c0.5-0.1,0.8-0.5,0.7-1
							c-0.1-0.5-0.5-0.8-1-0.7c-0.4,0.1-0.7,0.4-0.7,0.8C169.2,24.3,169.6,24.7,170.2,24.7C170.1,24.7,170.1,24.7,170.2,24.7
							L170.2,24.7z M169.6,24.4l0-0.2l0.1,0v-0.8l-0.2,0l0-0.2h0.7c0.3,0,0.6,0.1,0.6,0.3c0,0.2-0.1,0.3-0.2,0.3
							c0.1,0.1,0.1,0.2,0.2,0.3l0.1,0l0,0.2h-0.3c-0.1-0.1-0.2-0.3-0.3-0.4h-0.1v0.2l0.1,0l0,0.2L169.6,24.4L169.6,24.4z
							 M170.1,23.5v0.3h0.1c0.2,0,0.2-0.1,0.2-0.2C170.4,23.5,170.3,23.5,170.1,23.5L170.1,23.5z"/>
						<g class="st2">
							<path class="st1" d="M134.8,38.8h-2.9l-0.7,2.2h-1.1l2.7-8.5h0.9l2.8,8.5h-1.1L134.8,38.8z M132.2,37.8h2.3l-1.2-3.9
								L132.2,37.8z"/>
							<path class="st1" d="M139,38.3l0.1,1l0.2-0.8l1.4-6h0.9l1.3,6l0.2,0.9l0.1-1l1-5.8h1.1l-1.7,8.5h-1l-1.4-6.2l-0.1-0.5
								l-0.1,0.5l-1.5,6.2h-1l-1.7-8.5h1.1L139,38.3z"/>
							<path class="st1" d="M150.2,38.8h-2.9l-0.7,2.2h-1.1l2.7-8.5h0.9L152,41h-1.1L150.2,38.8z M147.6,37.8h2.3l-1.2-3.9
								L147.6,37.8z"/>
							<path class="st1" d="M155.7,37.5h-1.5V41h-1.1v-8.5h2.4c0.8,0,1.5,0.2,1.9,0.7s0.6,1.1,0.6,1.9c0,0.5-0.1,1-0.3,1.4
								s-0.6,0.7-1,0.9l1.7,3.6V41h-1.2L155.7,37.5z M154.2,36.6h1.3c0.4,0,0.8-0.1,1.1-0.4c0.3-0.3,0.4-0.7,0.4-1.2
								c0-1.1-0.5-1.6-1.5-1.6h-1.3V36.6z"/>
							<path class="st1" d="M159.5,41v-8.5h2c1,0,1.8,0.3,2.3,0.9s0.8,1.5,0.8,2.6v1.4c0,1.1-0.3,2-0.8,2.6s-1.4,0.9-2.4,0.9H159.5z
								 M160.6,33.4v6.7h0.9c0.8,0,1.3-0.2,1.7-0.6c0.3-0.4,0.5-1.1,0.5-1.9V36c0-0.9-0.2-1.6-0.5-2c-0.3-0.4-0.9-0.6-1.6-0.6H160.6
								z"/>
							<path class="st1" d="M170.1,38.8c0-0.4-0.1-0.8-0.3-1s-0.6-0.4-1.2-0.7s-1.1-0.4-1.4-0.7s-0.6-0.5-0.7-0.8s-0.2-0.6-0.2-1
								c0-0.7,0.2-1.2,0.7-1.7s1-0.7,1.8-0.7c0.5,0,0.9,0.1,1.3,0.3c0.4,0.2,0.7,0.5,0.9,0.9c0.2,0.4,0.3,0.8,0.3,1.3h-1.1
								c0-0.5-0.1-0.9-0.4-1.2s-0.6-0.4-1.1-0.4c-0.4,0-0.8,0.1-1,0.4c-0.2,0.2-0.4,0.6-0.4,1c0,0.4,0.1,0.7,0.4,0.9
								c0.3,0.2,0.7,0.5,1.2,0.7c0.8,0.3,1.4,0.6,1.8,1s0.5,0.9,0.5,1.6c0,0.7-0.2,1.2-0.7,1.7s-1.1,0.6-1.8,0.6
								c-0.5,0-1-0.1-1.4-0.3s-0.8-0.5-1-0.9s-0.4-0.8-0.4-1.4h1.1c0,0.5,0.1,0.9,0.4,1.2s0.7,0.4,1.2,0.4c0.5,0,0.8-0.1,1.1-0.4
								S170.1,39.3,170.1,38.8z"/>
						</g>
					</g>
				</g>
			</g>
		</g>
	</g>
	<g class="st2">
		<path class="st3" d="M-436.4,1428.5v-8.5h2.4c0.8,0,1.4,0.2,1.8,0.6s0.6,0.9,0.6,1.7c0,0.4-0.1,0.8-0.3,1.1s-0.5,0.5-0.8,0.7
			c0.4,0.1,0.7,0.4,0.9,0.7s0.3,0.8,0.3,1.3c0,0.8-0.2,1.4-0.6,1.8s-1,0.7-1.8,0.7H-436.4z M-435.4,1423.6h1.4
			c0.4,0,0.7-0.1,0.9-0.4c0.2-0.2,0.3-0.6,0.3-1c0-0.5-0.1-0.8-0.3-1c-0.2-0.2-0.5-0.3-0.9-0.3h-1.4V1423.6z M-435.4,1424.5v3.1h1.5
			c0.4,0,0.7-0.1,1-0.4s0.4-0.6,0.4-1.1c0-1-0.4-1.5-1.3-1.5H-435.4z"/>
		<path class="st3" d="M-425.8,1424.6h-3v3h3.5v0.9h-4.6v-8.5h4.5v0.9h-3.5v2.7h3V1424.6z"/>
		<path class="st3" d="M-420.2,1426.3c0-0.4-0.1-0.8-0.3-1s-0.6-0.4-1.2-0.7s-1.1-0.4-1.4-0.7s-0.6-0.5-0.7-0.8s-0.2-0.6-0.2-1
			c0-0.7,0.2-1.2,0.7-1.7s1-0.7,1.8-0.7c0.5,0,0.9,0.1,1.3,0.3c0.4,0.2,0.7,0.5,0.9,0.9c0.2,0.4,0.3,0.8,0.3,1.3h-1.1
			c0-0.5-0.1-0.9-0.4-1.2s-0.6-0.4-1.1-0.4c-0.4,0-0.8,0.1-1,0.4c-0.2,0.2-0.4,0.6-0.4,1c0,0.4,0.1,0.7,0.4,0.9
			c0.3,0.2,0.7,0.5,1.2,0.7c0.8,0.3,1.4,0.6,1.8,1s0.5,0.9,0.5,1.6c0,0.7-0.2,1.2-0.7,1.7s-1.1,0.6-1.8,0.6c-0.5,0-1-0.1-1.4-0.3
			s-0.8-0.5-1-0.9s-0.4-0.8-0.4-1.4h1.1c0,0.5,0.1,0.9,0.4,1.2s0.7,0.4,1.2,0.4c0.5,0,0.8-0.1,1.1-0.4S-420.2,1426.8-420.2,1426.3z"
			/>
		<path class="st3" d="M-412.7,1420.9h-2.2v7.6h-1.1v-7.6h-2.2v-0.9h5.6V1420.9z"/>
		<path class="st3" d="M-405.2,1426.3c0-0.4-0.1-0.8-0.3-1s-0.6-0.4-1.2-0.7s-1.1-0.4-1.4-0.7s-0.6-0.5-0.7-0.8s-0.2-0.6-0.2-1
			c0-0.7,0.2-1.2,0.7-1.7s1-0.7,1.8-0.7c0.5,0,0.9,0.1,1.3,0.3c0.4,0.2,0.7,0.5,0.9,0.9c0.2,0.4,0.3,0.8,0.3,1.3h-1.1
			c0-0.5-0.1-0.9-0.4-1.2s-0.6-0.4-1.1-0.4c-0.4,0-0.8,0.1-1,0.4c-0.2,0.2-0.4,0.6-0.4,1c0,0.4,0.1,0.7,0.4,0.9
			c0.3,0.2,0.7,0.5,1.2,0.7c0.8,0.3,1.4,0.6,1.8,1s0.5,0.9,0.5,1.6c0,0.7-0.2,1.2-0.7,1.7s-1.1,0.6-1.8,0.6c-0.5,0-1-0.1-1.4-0.3
			s-0.8-0.5-1-0.9s-0.4-0.8-0.4-1.4h1.1c0,0.5,0.1,0.9,0.4,1.2s0.7,0.4,1.2,0.4c0.5,0,0.8-0.1,1.1-0.4S-405.2,1426.8-405.2,1426.3z"
			/>
		<path class="st3" d="M-397.2,1425c0,1.2-0.2,2.1-0.7,2.7s-1.2,0.9-2.1,0.9c-0.9,0-1.6-0.3-2.1-0.9s-0.8-1.5-0.8-2.6v-1.6
			c0-1.1,0.3-2,0.8-2.7s1.2-1,2.1-1c0.9,0,1.6,0.3,2.1,0.9s0.8,1.5,0.8,2.7V1425z M-398.3,1423.5c0-0.9-0.1-1.6-0.4-2
			s-0.7-0.7-1.4-0.7c-0.6,0-1,0.2-1.3,0.7s-0.5,1.1-0.5,2v1.5c0,0.9,0.2,1.5,0.5,2s0.8,0.7,1.4,0.7s1-0.2,1.3-0.6s0.4-1.1,0.5-1.9
			V1423.5z"/>
		<path class="st3" d="M-390.2,1425.8c0,0.9-0.3,1.6-0.8,2.1s-1.1,0.7-2,0.7c-0.9,0-1.5-0.3-2-1s-0.8-1.5-0.8-2.6v-1.5
			c0-1.1,0.3-2,0.8-2.6s1.2-1,2.1-1c0.8,0,1.5,0.2,1.9,0.7s0.7,1.2,0.7,2.1h-1.1c0-0.7-0.2-1.2-0.4-1.5s-0.6-0.4-1.1-0.4
			c-0.6,0-1,0.2-1.3,0.7s-0.5,1.1-0.5,2v1.6c0,0.9,0.1,1.5,0.4,2s0.7,0.7,1.3,0.7s1-0.1,1.2-0.4s0.4-0.8,0.5-1.5H-390.2z"/>
		<path class="st3" d="M-387.6,1428.5h-1.1v-8.5h1.1V1428.5z"/>
		<path class="st3" d="M-381.8,1426.3h-2.9l-0.7,2.2h-1.1l2.7-8.5h0.9l2.8,8.5h-1.1L-381.8,1426.3z M-384.4,1425.3h2.3l-1.2-3.9
			L-384.4,1425.3z"/>
		<path class="st3" d="M-377.7,1427.6h3.3v0.9h-4.4v-8.5h1.1V1427.6z"/>
		<path class="st3" d="M-369.3,1428.5h-1.1v-8.5h1.1V1428.5z"/>
		<path class="st3" d="M-366,1420l2.2,7l2.2-7h1.4v8.5h-1.1v-3.3l0.1-3.3l-2.2,6.7h-0.8l-2.2-6.6l0.1,3.3v3.3h-1.1v-8.5H-366z"/>
		<path class="st3" d="M-357.2,1425.2v3.3h-1.1v-8.5h2.7c0.8,0,1.4,0.2,1.9,0.7s0.7,1.1,0.7,1.9c0,0.8-0.2,1.5-0.6,1.9
			s-1,0.7-1.8,0.7H-357.2z M-357.2,1424.2h1.6c0.5,0,0.8-0.1,1.1-0.4c0.3-0.3,0.4-0.7,0.4-1.2c0-0.5-0.1-0.9-0.4-1.2
			c-0.3-0.3-0.6-0.5-1.1-0.5h-1.7V1424.2z"/>
		<path class="st3" d="M-348.5,1426.3h-2.9l-0.7,2.2h-1.1l2.7-8.5h0.9l2.8,8.5h-1.1L-348.5,1426.3z M-351.1,1425.3h2.3l-1.2-3.9
			L-351.1,1425.3z"/>
		<path class="st3" d="M-340.2,1425.8c0,0.9-0.3,1.6-0.8,2.1s-1.1,0.7-2,0.7c-0.9,0-1.5-0.3-2-1s-0.8-1.5-0.8-2.6v-1.5
			c0-1.1,0.3-2,0.8-2.6s1.2-1,2.1-1c0.8,0,1.5,0.2,1.9,0.7s0.7,1.2,0.7,2.1h-1.1c0-0.7-0.2-1.2-0.4-1.5s-0.6-0.4-1.1-0.4
			c-0.6,0-1,0.2-1.3,0.7s-0.5,1.1-0.5,2v1.6c0,0.9,0.1,1.5,0.4,2s0.7,0.7,1.3,0.7s1-0.1,1.2-0.4s0.4-0.8,0.5-1.5H-340.2z"/>
		<path class="st3" d="M-333.9,1420.9h-2.2v7.6h-1.1v-7.6h-2.2v-0.9h5.6V1420.9z"/>
		<path class="st3" d="M-326.4,1426.3c0-0.4-0.1-0.8-0.3-1s-0.6-0.4-1.2-0.7s-1.1-0.4-1.4-0.7s-0.6-0.5-0.7-0.8s-0.2-0.6-0.2-1
			c0-0.7,0.2-1.2,0.7-1.7s1-0.7,1.8-0.7c0.5,0,0.9,0.1,1.3,0.3c0.4,0.2,0.7,0.5,0.9,0.9c0.2,0.4,0.3,0.8,0.3,1.3h-1.1
			c0-0.5-0.1-0.9-0.4-1.2s-0.6-0.4-1.1-0.4c-0.4,0-0.8,0.1-1,0.4c-0.2,0.2-0.4,0.6-0.4,1c0,0.4,0.1,0.7,0.4,0.9
			c0.3,0.2,0.7,0.5,1.2,0.7c0.8,0.3,1.4,0.6,1.8,1s0.5,0.9,0.5,1.6c0,0.7-0.2,1.2-0.7,1.7s-1.1,0.6-1.8,0.6c-0.5,0-1-0.1-1.4-0.3
			s-0.8-0.5-1-0.9s-0.4-0.8-0.4-1.4h1.1c0,0.5,0.1,0.9,0.4,1.2s0.7,0.4,1.2,0.4c0.5,0,0.8-0.1,1.1-0.4S-326.4,1426.8-326.4,1426.3z"
			/>
		<path class="st3" d="M-319,1420.9h-2.2v7.6h-1.1v-7.6h-2.2v-0.9h5.6V1420.9z"/>
		<path class="st3" d="M-314.2,1426.3h-2.9l-0.7,2.2h-1.1l2.7-8.5h0.9l2.8,8.5h-1.1L-314.2,1426.3z M-316.8,1425.3h2.3l-1.2-3.9
			L-316.8,1425.3z"/>
		<path class="st3" d="M-308.7,1425h-1.5v3.5h-1.1v-8.5h2.4c0.8,0,1.5,0.2,1.9,0.7s0.6,1.1,0.6,1.9c0,0.5-0.1,1-0.3,1.4
			s-0.6,0.7-1,0.9l1.7,3.6v0.1h-1.2L-308.7,1425z M-310.2,1424.1h1.3c0.4,0,0.8-0.1,1.1-0.4c0.3-0.3,0.4-0.7,0.4-1.2
			c0-1.1-0.5-1.6-1.5-1.6h-1.3V1424.1z"/>
		<path class="st3" d="M-300.4,1420.9h-2.2v7.6h-1.1v-7.6h-2.2v-0.9h5.6V1420.9z"/>
		<path class="st3" d="M-294,1420v6.1c0,0.8-0.2,1.4-0.7,1.9s-1.1,0.7-1.9,0.7c-0.8,0-1.5-0.2-1.9-0.7s-0.7-1.1-0.7-1.9v-6.1h1.1v6
			c0,0.6,0.1,1,0.4,1.3c0.2,0.3,0.6,0.4,1.2,0.4c0.5,0,0.9-0.1,1.2-0.4c0.2-0.3,0.4-0.7,0.4-1.3v-6H-294z"/>
		<path class="st3" d="M-291.3,1425.2v3.3h-1.1v-8.5h2.7c0.8,0,1.4,0.2,1.9,0.7s0.7,1.1,0.7,1.9c0,0.8-0.2,1.5-0.6,1.9
			s-1,0.7-1.8,0.7H-291.3z M-291.3,1424.2h1.6c0.5,0,0.8-0.1,1.1-0.4c0.3-0.3,0.4-0.7,0.4-1.2c0-0.5-0.1-0.9-0.4-1.2
			c-0.3-0.3-0.6-0.5-1.1-0.5h-1.7V1424.2z"/>
	</g>
	<g class="st2">
		<path class="st4" d="M-436.4,1428.5v-8.5h2.4c0.8,0,1.4,0.2,1.8,0.6s0.6,0.9,0.6,1.7c0,0.4-0.1,0.8-0.3,1.1s-0.5,0.5-0.8,0.7
			c0.4,0.1,0.7,0.4,0.9,0.7s0.3,0.8,0.3,1.3c0,0.8-0.2,1.4-0.6,1.8s-1,0.7-1.8,0.7H-436.4z M-435.4,1423.6h1.4
			c0.4,0,0.7-0.1,0.9-0.4c0.2-0.2,0.3-0.6,0.3-1c0-0.5-0.1-0.8-0.3-1c-0.2-0.2-0.5-0.3-0.9-0.3h-1.4V1423.6z M-435.4,1424.5v3.1h1.5
			c0.4,0,0.7-0.1,1-0.4s0.4-0.6,0.4-1.1c0-1-0.4-1.5-1.3-1.5H-435.4z"/>
		<path class="st4" d="M-425.8,1424.6h-3v3h3.5v0.9h-4.6v-8.5h4.5v0.9h-3.5v2.7h3V1424.6z"/>
		<path class="st4" d="M-420.2,1426.3c0-0.4-0.1-0.8-0.3-1s-0.6-0.4-1.2-0.7s-1.1-0.4-1.4-0.7s-0.6-0.5-0.7-0.8s-0.2-0.6-0.2-1
			c0-0.7,0.2-1.2,0.7-1.7s1-0.7,1.8-0.7c0.5,0,0.9,0.1,1.3,0.3c0.4,0.2,0.7,0.5,0.9,0.9c0.2,0.4,0.3,0.8,0.3,1.3h-1.1
			c0-0.5-0.1-0.9-0.4-1.2s-0.6-0.4-1.1-0.4c-0.4,0-0.8,0.1-1,0.4c-0.2,0.2-0.4,0.6-0.4,1c0,0.4,0.1,0.7,0.4,0.9
			c0.3,0.2,0.7,0.5,1.2,0.7c0.8,0.3,1.4,0.6,1.8,1s0.5,0.9,0.5,1.6c0,0.7-0.2,1.2-0.7,1.7s-1.1,0.6-1.8,0.6c-0.5,0-1-0.1-1.4-0.3
			s-0.8-0.5-1-0.9s-0.4-0.8-0.4-1.4h1.1c0,0.5,0.1,0.9,0.4,1.2s0.7,0.4,1.2,0.4c0.5,0,0.8-0.1,1.1-0.4S-420.2,1426.8-420.2,1426.3z"
			/>
		<path class="st4" d="M-412.7,1420.9h-2.2v7.6h-1.1v-7.6h-2.2v-0.9h5.6V1420.9z"/>
		<path class="st4" d="M-405.2,1426.3c0-0.4-0.1-0.8-0.3-1s-0.6-0.4-1.2-0.7s-1.1-0.4-1.4-0.7s-0.6-0.5-0.7-0.8s-0.2-0.6-0.2-1
			c0-0.7,0.2-1.2,0.7-1.7s1-0.7,1.8-0.7c0.5,0,0.9,0.1,1.3,0.3c0.4,0.2,0.7,0.5,0.9,0.9c0.2,0.4,0.3,0.8,0.3,1.3h-1.1
			c0-0.5-0.1-0.9-0.4-1.2s-0.6-0.4-1.1-0.4c-0.4,0-0.8,0.1-1,0.4c-0.2,0.2-0.4,0.6-0.4,1c0,0.4,0.1,0.7,0.4,0.9
			c0.3,0.2,0.7,0.5,1.2,0.7c0.8,0.3,1.4,0.6,1.8,1s0.5,0.9,0.5,1.6c0,0.7-0.2,1.2-0.7,1.7s-1.1,0.6-1.8,0.6c-0.5,0-1-0.1-1.4-0.3
			s-0.8-0.5-1-0.9s-0.4-0.8-0.4-1.4h1.1c0,0.5,0.1,0.9,0.4,1.2s0.7,0.4,1.2,0.4c0.5,0,0.8-0.1,1.1-0.4S-405.2,1426.8-405.2,1426.3z"
			/>
		<path class="st4" d="M-397.2,1425c0,1.2-0.2,2.1-0.7,2.7s-1.2,0.9-2.1,0.9c-0.9,0-1.6-0.3-2.1-0.9s-0.8-1.5-0.8-2.6v-1.6
			c0-1.1,0.3-2,0.8-2.7s1.2-1,2.1-1c0.9,0,1.6,0.3,2.1,0.9s0.8,1.5,0.8,2.7V1425z M-398.3,1423.5c0-0.9-0.1-1.6-0.4-2
			s-0.7-0.7-1.4-0.7c-0.6,0-1,0.2-1.3,0.7s-0.5,1.1-0.5,2v1.5c0,0.9,0.2,1.5,0.5,2s0.8,0.7,1.4,0.7s1-0.2,1.3-0.6s0.4-1.1,0.5-1.9
			V1423.5z"/>
		<path class="st4" d="M-390.2,1425.8c0,0.9-0.3,1.6-0.8,2.1s-1.1,0.7-2,0.7c-0.9,0-1.5-0.3-2-1s-0.8-1.5-0.8-2.6v-1.5
			c0-1.1,0.3-2,0.8-2.6s1.2-1,2.1-1c0.8,0,1.5,0.2,1.9,0.7s0.7,1.2,0.7,2.1h-1.1c0-0.7-0.2-1.2-0.4-1.5s-0.6-0.4-1.1-0.4
			c-0.6,0-1,0.2-1.3,0.7s-0.5,1.1-0.5,2v1.6c0,0.9,0.1,1.5,0.4,2s0.7,0.7,1.3,0.7s1-0.1,1.2-0.4s0.4-0.8,0.5-1.5H-390.2z"/>
		<path class="st4" d="M-387.6,1428.5h-1.1v-8.5h1.1V1428.5z"/>
		<path class="st4" d="M-381.8,1426.3h-2.9l-0.7,2.2h-1.1l2.7-8.5h0.9l2.8,8.5h-1.1L-381.8,1426.3z M-384.4,1425.3h2.3l-1.2-3.9
			L-384.4,1425.3z"/>
		<path class="st4" d="M-377.7,1427.6h3.3v0.9h-4.4v-8.5h1.1V1427.6z"/>
		<path class="st4" d="M-369.3,1428.5h-1.1v-8.5h1.1V1428.5z"/>
		<path class="st4" d="M-366,1420l2.2,7l2.2-7h1.4v8.5h-1.1v-3.3l0.1-3.3l-2.2,6.7h-0.8l-2.2-6.6l0.1,3.3v3.3h-1.1v-8.5H-366z"/>
		<path class="st4" d="M-357.2,1425.2v3.3h-1.1v-8.5h2.7c0.8,0,1.4,0.2,1.9,0.7s0.7,1.1,0.7,1.9c0,0.8-0.2,1.5-0.6,1.9
			s-1,0.7-1.8,0.7H-357.2z M-357.2,1424.2h1.6c0.5,0,0.8-0.1,1.1-0.4c0.3-0.3,0.4-0.7,0.4-1.2c0-0.5-0.1-0.9-0.4-1.2
			c-0.3-0.3-0.6-0.5-1.1-0.5h-1.7V1424.2z"/>
		<path class="st4" d="M-348.5,1426.3h-2.9l-0.7,2.2h-1.1l2.7-8.5h0.9l2.8,8.5h-1.1L-348.5,1426.3z M-351.1,1425.3h2.3l-1.2-3.9
			L-351.1,1425.3z"/>
		<path class="st4" d="M-340.2,1425.8c0,0.9-0.3,1.6-0.8,2.1s-1.1,0.7-2,0.7c-0.9,0-1.5-0.3-2-1s-0.8-1.5-0.8-2.6v-1.5
			c0-1.1,0.3-2,0.8-2.6s1.2-1,2.1-1c0.8,0,1.5,0.2,1.9,0.7s0.7,1.2,0.7,2.1h-1.1c0-0.7-0.2-1.2-0.4-1.5s-0.6-0.4-1.1-0.4
			c-0.6,0-1,0.2-1.3,0.7s-0.5,1.1-0.5,2v1.6c0,0.9,0.1,1.5,0.4,2s0.7,0.7,1.3,0.7s1-0.1,1.2-0.4s0.4-0.8,0.5-1.5H-340.2z"/>
		<path class="st4" d="M-333.9,1420.9h-2.2v7.6h-1.1v-7.6h-2.2v-0.9h5.6V1420.9z"/>
		<path class="st4" d="M-326.4,1426.3c0-0.4-0.1-0.8-0.3-1s-0.6-0.4-1.2-0.7s-1.1-0.4-1.4-0.7s-0.6-0.5-0.7-0.8s-0.2-0.6-0.2-1
			c0-0.7,0.2-1.2,0.7-1.7s1-0.7,1.8-0.7c0.5,0,0.9,0.1,1.3,0.3c0.4,0.2,0.7,0.5,0.9,0.9c0.2,0.4,0.3,0.8,0.3,1.3h-1.1
			c0-0.5-0.1-0.9-0.4-1.2s-0.6-0.4-1.1-0.4c-0.4,0-0.8,0.1-1,0.4c-0.2,0.2-0.4,0.6-0.4,1c0,0.4,0.1,0.7,0.4,0.9
			c0.3,0.2,0.7,0.5,1.2,0.7c0.8,0.3,1.4,0.6,1.8,1s0.5,0.9,0.5,1.6c0,0.7-0.2,1.2-0.7,1.7s-1.1,0.6-1.8,0.6c-0.5,0-1-0.1-1.4-0.3
			s-0.8-0.5-1-0.9s-0.4-0.8-0.4-1.4h1.1c0,0.5,0.1,0.9,0.4,1.2s0.7,0.4,1.2,0.4c0.5,0,0.8-0.1,1.1-0.4S-326.4,1426.8-326.4,1426.3z"
			/>
		<path class="st4" d="M-319,1420.9h-2.2v7.6h-1.1v-7.6h-2.2v-0.9h5.6V1420.9z"/>
		<path class="st4" d="M-314.2,1426.3h-2.9l-0.7,2.2h-1.1l2.7-8.5h0.9l2.8,8.5h-1.1L-314.2,1426.3z M-316.8,1425.3h2.3l-1.2-3.9
			L-316.8,1425.3z"/>
		<path class="st4" d="M-308.7,1425h-1.5v3.5h-1.1v-8.5h2.4c0.8,0,1.5,0.2,1.9,0.7s0.6,1.1,0.6,1.9c0,0.5-0.1,1-0.3,1.4
			s-0.6,0.7-1,0.9l1.7,3.6v0.1h-1.2L-308.7,1425z M-310.2,1424.1h1.3c0.4,0,0.8-0.1,1.1-0.4c0.3-0.3,0.4-0.7,0.4-1.2
			c0-1.1-0.5-1.6-1.5-1.6h-1.3V1424.1z"/>
		<path class="st4" d="M-300.4,1420.9h-2.2v7.6h-1.1v-7.6h-2.2v-0.9h5.6V1420.9z"/>
		<path class="st4" d="M-294,1420v6.1c0,0.8-0.2,1.4-0.7,1.9s-1.1,0.7-1.9,0.7c-0.8,0-1.5-0.2-1.9-0.7s-0.7-1.1-0.7-1.9v-6.1h1.1v6
			c0,0.6,0.1,1,0.4,1.3c0.2,0.3,0.6,0.4,1.2,0.4c0.5,0,0.9-0.1,1.2-0.4c0.2-0.3,0.4-0.7,0.4-1.3v-6H-294z"/>
		<path class="st4" d="M-291.3,1425.2v3.3h-1.1v-8.5h2.7c0.8,0,1.4,0.2,1.9,0.7s0.7,1.1,0.7,1.9c0,0.8-0.2,1.5-0.6,1.9
			s-1,0.7-1.8,0.7H-291.3z M-291.3,1424.2h1.6c0.5,0,0.8-0.1,1.1-0.4c0.3-0.3,0.4-0.7,0.4-1.2c0-0.5-0.1-0.9-0.4-1.2
			c-0.3-0.3-0.6-0.5-1.1-0.5h-1.7V1424.2z"/>
	</g>
	<g class="st2">
		<path class="st3" d="M-400.5,1443c0,1.2-0.2,2.1-0.7,2.7s-1.2,0.9-2.1,0.9c-0.9,0-1.6-0.3-2.1-0.9s-0.8-1.5-0.8-2.6v-1.6
			c0-1.1,0.3-2,0.8-2.7s1.2-1,2.1-1c0.9,0,1.6,0.3,2.1,0.9s0.8,1.5,0.8,2.7V1443z M-401.5,1441.5c0-0.9-0.1-1.6-0.4-2
			s-0.7-0.7-1.4-0.7c-0.6,0-1,0.2-1.3,0.7s-0.5,1.1-0.5,2v1.5c0,0.9,0.2,1.5,0.5,2s0.8,0.7,1.4,0.7s1-0.2,1.3-0.6s0.4-1.1,0.5-1.9
			V1441.5z"/>
		<path class="st3" d="M-394.8,1442.7h-2.9v3.8h-1.1v-8.5h4.4v0.9h-3.4v2.9h2.9V1442.7z"/>
		<path class="st3" d="M-385.5,1438.9h-2.2v7.6h-1.1v-7.6h-2.2v-0.9h5.6V1438.9z"/>
		<path class="st3" d="M-378.7,1446.5h-1.1v-3.9h-3.4v3.9h-1.1v-8.5h1.1v3.7h3.4v-3.7h1.1V1446.5z"/>
		<path class="st3" d="M-372.7,1442.6h-3v3h3.5v0.9h-4.6v-8.5h4.5v0.9h-3.5v2.7h3V1442.6z"/>
		<path class="st3" d="M-365.9,1442.3l1.7-4.3h1.2l-2.4,5.3v3.2h-1.1v-3.2l-2.4-5.3h1.2L-365.9,1442.3z"/>
		<path class="st3" d="M-357.7,1442.6h-3v3h3.5v0.9h-4.6v-8.5h4.5v0.9h-3.5v2.7h3V1442.6z"/>
		<path class="st3" d="M-351.9,1444.3h-2.9l-0.7,2.2h-1.1l2.7-8.5h0.9l2.8,8.5h-1.1L-351.9,1444.3z M-354.5,1443.3h2.3l-1.2-3.9
			L-354.5,1443.3z"/>
		<path class="st3" d="M-346.4,1443h-1.5v3.5h-1.1v-8.5h2.4c0.8,0,1.5,0.2,1.9,0.7s0.6,1.1,0.6,1.9c0,0.5-0.1,1-0.3,1.4
			s-0.6,0.7-1,0.9l1.7,3.6v0.1h-1.2L-346.4,1443z M-347.9,1442.1h1.3c0.4,0,0.8-0.1,1.1-0.4c0.3-0.3,0.4-0.7,0.4-1.2
			c0-1.1-0.5-1.6-1.5-1.6h-1.3V1442.1z"/>
		<path class="st3" d="M-335.3,1446.5h-4.8v-0.8l2.4-3.2c0.4-0.5,0.6-0.9,0.8-1.2s0.2-0.7,0.2-1c0-0.5-0.1-0.8-0.3-1.1
			s-0.5-0.4-0.8-0.4c-0.4,0-0.8,0.1-1,0.4s-0.4,0.7-0.4,1.3h-1c0-0.8,0.2-1.4,0.6-1.9s1-0.7,1.8-0.7c0.7,0,1.2,0.2,1.6,0.6
			s0.6,1,0.6,1.7c0,0.8-0.4,1.8-1.3,3l-1.9,2.5h3.5V1446.5z"/>
		<path class="st3" d="M-329.6,1442.9c0,1.3-0.2,2.2-0.6,2.8s-0.9,0.9-1.7,0.9c-0.8,0-1.3-0.3-1.7-0.9s-0.6-1.5-0.6-2.7v-1.5
			c0-1.2,0.2-2.2,0.6-2.8s0.9-0.9,1.7-0.9c0.8,0,1.3,0.3,1.7,0.9s0.6,1.5,0.6,2.6V1442.9z M-330.6,1441.4c0-0.9-0.1-1.6-0.3-2
			s-0.5-0.6-1-0.6c-0.4,0-0.7,0.2-0.9,0.6s-0.3,1.1-0.3,1.9v1.8c0,0.9,0.1,1.6,0.3,2s0.5,0.7,0.9,0.7c0.4,0,0.7-0.2,0.9-0.6
			s0.3-1.1,0.3-2V1441.4z"/>
		<path class="st3" d="M-323.5,1446.5h-4.8v-0.8l2.4-3.2c0.4-0.5,0.6-0.9,0.8-1.2s0.2-0.7,0.2-1c0-0.5-0.1-0.8-0.3-1.1
			s-0.5-0.4-0.8-0.4c-0.4,0-0.8,0.1-1,0.4s-0.4,0.7-0.4,1.3h-1c0-0.8,0.2-1.4,0.6-1.9s1-0.7,1.8-0.7c0.7,0,1.2,0.2,1.6,0.6
			s0.6,1,0.6,1.7c0,0.8-0.4,1.8-1.3,3l-1.9,2.5h3.5V1446.5z"/>
		<path class="st3" d="M-319.2,1446.5h-1v-7.2l-1.8,0.8v-1l2.7-1.2h0.2V1446.5z"/>
	</g>
	<g class="st2">
		<path class="st4" d="M-400.5,1443c0,1.2-0.2,2.1-0.7,2.7s-1.2,0.9-2.1,0.9c-0.9,0-1.6-0.3-2.1-0.9s-0.8-1.5-0.8-2.6v-1.6
			c0-1.1,0.3-2,0.8-2.7s1.2-1,2.1-1c0.9,0,1.6,0.3,2.1,0.9s0.8,1.5,0.8,2.7V1443z M-401.5,1441.5c0-0.9-0.1-1.6-0.4-2
			s-0.7-0.7-1.4-0.7c-0.6,0-1,0.2-1.3,0.7s-0.5,1.1-0.5,2v1.5c0,0.9,0.2,1.5,0.5,2s0.8,0.7,1.4,0.7s1-0.2,1.3-0.6s0.4-1.1,0.5-1.9
			V1441.5z"/>
		<path class="st4" d="M-394.8,1442.7h-2.9v3.8h-1.1v-8.5h4.4v0.9h-3.4v2.9h2.9V1442.7z"/>
		<path class="st4" d="M-385.5,1438.9h-2.2v7.6h-1.1v-7.6h-2.2v-0.9h5.6V1438.9z"/>
		<path class="st4" d="M-378.7,1446.5h-1.1v-3.9h-3.4v3.9h-1.1v-8.5h1.1v3.7h3.4v-3.7h1.1V1446.5z"/>
		<path class="st4" d="M-372.7,1442.6h-3v3h3.5v0.9h-4.6v-8.5h4.5v0.9h-3.5v2.7h3V1442.6z"/>
		<path class="st4" d="M-365.9,1442.3l1.7-4.3h1.2l-2.4,5.3v3.2h-1.1v-3.2l-2.4-5.3h1.2L-365.9,1442.3z"/>
		<path class="st4" d="M-357.7,1442.6h-3v3h3.5v0.9h-4.6v-8.5h4.5v0.9h-3.5v2.7h3V1442.6z"/>
		<path class="st4" d="M-351.9,1444.3h-2.9l-0.7,2.2h-1.1l2.7-8.5h0.9l2.8,8.5h-1.1L-351.9,1444.3z M-354.5,1443.3h2.3l-1.2-3.9
			L-354.5,1443.3z"/>
		<path class="st4" d="M-346.4,1443h-1.5v3.5h-1.1v-8.5h2.4c0.8,0,1.5,0.2,1.9,0.7s0.6,1.1,0.6,1.9c0,0.5-0.1,1-0.3,1.4
			s-0.6,0.7-1,0.9l1.7,3.6v0.1h-1.2L-346.4,1443z M-347.9,1442.1h1.3c0.4,0,0.8-0.1,1.1-0.4c0.3-0.3,0.4-0.7,0.4-1.2
			c0-1.1-0.5-1.6-1.5-1.6h-1.3V1442.1z"/>
		<path class="st4" d="M-335.3,1446.5h-4.8v-0.8l2.4-3.2c0.4-0.5,0.6-0.9,0.8-1.2s0.2-0.7,0.2-1c0-0.5-0.1-0.8-0.3-1.1
			s-0.5-0.4-0.8-0.4c-0.4,0-0.8,0.1-1,0.4s-0.4,0.7-0.4,1.3h-1c0-0.8,0.2-1.4,0.6-1.9s1-0.7,1.8-0.7c0.7,0,1.2,0.2,1.6,0.6
			s0.6,1,0.6,1.7c0,0.8-0.4,1.8-1.3,3l-1.9,2.5h3.5V1446.5z"/>
		<path class="st4" d="M-329.6,1442.9c0,1.3-0.2,2.2-0.6,2.8s-0.9,0.9-1.7,0.9c-0.8,0-1.3-0.3-1.7-0.9s-0.6-1.5-0.6-2.7v-1.5
			c0-1.2,0.2-2.2,0.6-2.8s0.9-0.9,1.7-0.9c0.8,0,1.3,0.3,1.7,0.9s0.6,1.5,0.6,2.6V1442.9z M-330.6,1441.4c0-0.9-0.1-1.6-0.3-2
			s-0.5-0.6-1-0.6c-0.4,0-0.7,0.2-0.9,0.6s-0.3,1.1-0.3,1.9v1.8c0,0.9,0.1,1.6,0.3,2s0.5,0.7,0.9,0.7c0.4,0,0.7-0.2,0.9-0.6
			s0.3-1.1,0.3-2V1441.4z"/>
		<path class="st4" d="M-323.5,1446.5h-4.8v-0.8l2.4-3.2c0.4-0.5,0.6-0.9,0.8-1.2s0.2-0.7,0.2-1c0-0.5-0.1-0.8-0.3-1.1
			s-0.5-0.4-0.8-0.4c-0.4,0-0.8,0.1-1,0.4s-0.4,0.7-0.4,1.3h-1c0-0.8,0.2-1.4,0.6-1.9s1-0.7,1.8-0.7c0.7,0,1.2,0.2,1.6,0.6
			s0.6,1,0.6,1.7c0,0.8-0.4,1.8-1.3,3l-1.9,2.5h3.5V1446.5z"/>
		<path class="st4" d="M-319.2,1446.5h-1v-7.2l-1.8,0.8v-1l2.7-1.2h0.2V1446.5z"/>
	</g>
	<g id="Rectangle_9385" transform="translate(-466 1411)">
		<rect class="st5" width="208" height="42"/>
		<rect x="0.1" y="0.1" class="st6" width="207.8" height="41.8"/>
	</g>
</g>
</svg>
