<svg id="check" xmlns="http://www.w3.org/2000/svg" width="40" height="40" viewBox="0 0 40 40">
  <path id="Path_19732" data-name="Path 19732" d="M40,4.583A4.587,4.587,0,0,0,35.417,0H4.583A4.587,4.587,0,0,0,0,4.583V35.417A4.587,4.587,0,0,0,4.583,40H35.417A4.587,4.587,0,0,0,40,35.417Zm0,0" fill="#1544ce"/>
  <path id="Path_19733" data-name="Path 19733" d="M159.525,165.794a1.587,1.587,0,0,1,0,2.246L149.2,178.363a1.587,1.587,0,0,1-2.246,0l-5.162-5.162a1.588,1.588,0,0,1,2.246-2.246l4.039,4.039,9.2-9.2a1.586,1.586,0,0,1,2.246,0Zm0,0" transform="translate(-129.789 -152.079)" fill="#fafafa"/>
</svg>
