<svg xmlns="http://www.w3.org/2000/svg" width="29" height="29" viewBox="0 0 29 29">
  <g id="footer-linkedin-mouseover" transform="translate(-1077 -8119)">
    <path id="Union_12" data-name="Union 12" d="M14.5,0A14.5,14.5,0,1,0,29,14.5,14.5,14.5,0,0,0,14.5,0Z" transform="translate(1077 8119)" fill="#0047bb"/>
    <rect id="Rectangle_9279" data-name="Rectangle 9279" width="2.342" height="7.536" transform="translate(1086.153 8131.366)" fill="#fff"/>
    <path id="Path_17406" data-name="Path 17406" d="M155.665,154.438a1.174,1.174,0,1,0,1.233,1.171,1.162,1.162,0,0,0-1.233-1.171Z" transform="translate(931.674 7973.661)" fill="#fff"/>
    <path id="Path_17407" data-name="Path 17407" d="M169.319,163.362a2.71,2.71,0,0,0-2.326,1.217h-.047l-.108-1.047H164.8c.03.677.061,1.464.061,2.4v5.132H167.2v-4.346a1.669,1.669,0,0,1,.078-.586,1.285,1.285,0,0,1,1.2-.878c.847,0,1.187.663,1.187,1.634v4.176h2.342v-4.453C172.016,164.4,170.862,163.362,169.319,163.362Z" transform="translate(924.892 7967.834)" fill="#fff"/>
  </g>
</svg>
