<svg xmlns="http://www.w3.org/2000/svg" width="29" height="29" viewBox="0 0 29 29">
  <g id="footer-insta-mouseover" transform="translate(-1172 -8119)">
    <g id="Component_177_2" data-name="Component 177 – 2" transform="translate(1171.795 8119)">
      <path id="Union_11" data-name="Union 11" d="M14.5,29A14.5,14.5,0,1,1,29,14.5,14.5,14.5,0,0,1,14.5,29Z" transform="translate(0.205)" fill="#0047bb"/>
    </g>
    <path id="Path_17408" data-name="Path 17408" d="M43.677,33.123A3.365,3.365,0,0,0,41.751,31.2a4.852,4.852,0,0,0-1.6-.3c-.7-.033-.927-.04-2.716-.04s-2.014.007-2.716.04a4.846,4.846,0,0,0-1.6.305A3.36,3.36,0,0,0,31.2,33.123a4.834,4.834,0,0,0-.306,1.6c-.032.7-.04.927-.04,2.716s.008,2.013.04,2.716a4.822,4.822,0,0,0,.306,1.6,3.363,3.363,0,0,0,1.926,1.927,4.863,4.863,0,0,0,1.6.306c.7.031.928.04,2.716.04s2.014-.008,2.716-.04a4.866,4.866,0,0,0,1.6-.306,3.368,3.368,0,0,0,1.926-1.927,4.808,4.808,0,0,0,.306-1.6c.033-.7.04-.927.04-2.716s-.007-2.013-.04-2.716a4.827,4.827,0,0,0-.313-1.6ZM42.8,40.1a3.637,3.637,0,0,1-.228,1.223,2.02,2.02,0,0,1-.493.756,2.055,2.055,0,0,1-.757.494A3.664,3.664,0,0,1,40.1,42.8c-.7.032-.9.039-2.662.039s-1.968-.007-2.662-.039a3.675,3.675,0,0,1-1.223-.226,2.2,2.2,0,0,1-1.25-1.25,3.694,3.694,0,0,1-.227-1.223c-.032-.7-.037-.9-.037-2.662s.006-1.967.037-2.661a3.693,3.693,0,0,1,.227-1.223,2.188,2.188,0,0,1,1.25-1.25,3.631,3.631,0,0,1,1.223-.227c.695-.031.9-.038,2.662-.038s1.967.007,2.662.038a3.63,3.63,0,0,1,1.223.227,2.183,2.183,0,0,1,1.25,1.25,3.632,3.632,0,0,1,.228,1.223c.031.694.037.9.037,2.661S42.83,39.4,42.8,40.1Zm-5.362-6.043a3.382,3.382,0,1,0,3.382,3.382,3.382,3.382,0,0,0-3.382-3.382Zm0,5.577a2.2,2.2,0,1,1,2.195-2.2,2.2,2.2,0,0,1-2.195,2.2Zm4.306-5.711a.79.79,0,1,1-.791-.791.79.79,0,0,1,.791.791Z" transform="translate(1149.003 8095.934)" fill="#fff"/>
  </g>
</svg>
