<svg width="169" height="42" viewBox="0 0 169 42" fill="none" xmlns="http://www.w3.org/2000/svg">
<g clip-path="url(#clip0_574_9845)">
<path d="M14.8994 6.12553L13.1078 4.35295C11.9516 5.1167 10.9671 6.11983 10.2288 7.28826C9.81091 6.80379 9.29004 6.41052 8.67759 6.11983C7.96784 5.77786 7.17222 5.61257 6.29075 5.61257C5.08302 5.61257 4.01267 5.90325 3.06823 6.47891C2.1238 7.06027 1.3797 7.85822 0.830214 8.88415C0.280726 9.91009 0.00598145 11.0728 0.00598145 12.3723C0.00598145 13.6718 0.280726 14.8289 0.830214 15.832C1.3797 16.8408 2.12952 17.6388 3.08541 18.2372C4.04129 18.8357 5.11164 19.1321 6.29648 19.1321C7.19512 19.1321 8.00218 18.9611 8.71194 18.6248C9.32439 18.3341 9.83381 17.9466 10.2459 17.4621C10.9843 18.6248 11.9631 19.628 13.1193 20.386L14.9109 18.6134C13.6058 16.8978 12.8217 14.732 12.8217 12.3666C12.8217 10.0013 13.6058 7.82972 14.9109 6.11983M9.26715 14.561C9.19846 14.6351 9.12978 14.6978 9.06109 14.7605C8.55739 15.1993 7.92205 15.4159 7.14933 15.4159C6.59412 15.4159 6.09042 15.2848 5.64968 15.0284C5.20895 14.7719 4.85979 14.4128 4.5965 13.9454C4.3332 13.4838 4.20155 12.9594 4.20155 12.3666C4.20155 11.7739 4.3332 11.2495 4.5965 10.7878C4.85407 10.3262 5.20895 9.96138 5.64968 9.7049C6.09042 9.44842 6.58839 9.31733 7.14933 9.31733C7.71027 9.31733 8.23686 9.44842 8.68904 9.7049C8.82641 9.7847 8.94661 9.87019 9.06109 9.96708C9.33011 10.1894 9.55334 10.4573 9.71361 10.7764C9.94829 11.2324 10.0628 11.7511 10.0628 12.3381C10.0628 13.2444 9.79947 13.9853 9.26715 14.5553" fill="#1544CE"/>
<path d="M38.2295 19.1606C37.0446 19.1606 35.9743 18.9098 35.0298 18.4139C34.0854 17.9181 33.3528 17.2341 32.8319 16.3678C32.311 15.5014 32.0477 14.5097 32.0477 13.3869V5.87475H36.2032V13.3356C36.2032 13.7801 36.2834 14.1677 36.4436 14.4983C36.6039 14.8289 36.8386 15.0797 37.1477 15.262C37.451 15.4387 37.8116 15.5299 38.2237 15.5299C38.8362 15.5299 39.317 15.3361 39.6662 14.9429C40.0153 14.5496 40.1927 14.0138 40.1927 13.3413V5.88045H44.3483V13.3926C44.3483 14.5325 44.0907 15.5356 43.5813 16.402C43.0661 17.2683 42.3506 17.9466 41.4348 18.4367C40.519 18.9269 39.4486 19.172 38.2237 19.172" fill="#1544CE"/>
<path d="M101.524 6.27373C100.768 5.82915 99.9153 5.60687 98.9594 5.60687C97.952 5.60687 97.0477 5.81776 96.2463 6.23383C95.88 6.42192 95.5537 6.6499 95.2618 6.91208V5.86905H91.1063V19.1549H95.2618V11.4547C95.2618 11.0101 95.3591 10.6168 95.5595 10.2806C95.7598 9.93859 96.0288 9.6764 96.3665 9.48832C96.71 9.30023 97.0935 9.20903 97.5285 9.20903C98.1753 9.20903 98.7133 9.41992 99.1483 9.83599C99.5776 10.2578 99.7951 10.7935 99.7951 11.4547V19.1549H103.951V10.5484C103.951 9.6593 103.733 8.83286 103.304 8.07481C102.875 7.31676 102.279 6.7183 101.524 6.26803" fill="#1544CE"/>
<path d="M116.36 6.27373C115.604 5.82915 114.751 5.60687 113.796 5.60687C112.788 5.60687 111.884 5.81776 111.083 6.23383C110.716 6.42192 110.39 6.6499 110.098 6.91208V5.86905H105.943V19.1549H110.098V11.4547C110.098 11.0101 110.195 10.6168 110.396 10.2806C110.596 9.93859 110.865 9.6764 111.203 9.48832C111.546 9.30023 111.93 9.20903 112.365 9.20903C113.011 9.20903 113.549 9.41992 113.984 9.83599C114.414 10.2578 114.631 10.7935 114.631 11.4547V19.1549H118.787V10.5484C118.787 9.6593 118.569 8.83286 118.14 8.07481C117.711 7.31676 117.115 6.7183 116.36 6.26803" fill="#1544CE"/>
<path d="M131.248 6.41052C130.257 5.85765 129.107 5.58407 127.796 5.58407C126.485 5.58407 125.266 5.88045 124.207 6.46751C123.148 7.05457 122.307 7.86392 121.7 8.88986C121.088 9.91579 120.784 11.0671 120.784 12.3495C120.784 13.6319 121.099 14.846 121.729 15.8776C122.358 16.9149 123.223 17.7186 124.322 18.2999C125.421 18.8813 126.68 19.1663 128.099 19.1663C129.216 19.1663 130.229 18.9839 131.15 18.6191C132.066 18.2543 132.85 17.6901 133.497 16.9206L131.202 14.675C130.807 15.1196 130.349 15.4558 129.828 15.6781C129.307 15.9004 128.729 16.0144 128.099 16.0144C127.395 16.0144 126.789 15.8662 126.279 15.5755C125.77 15.2791 125.369 14.8574 125.094 14.3045C125.009 14.1335 124.934 13.9511 124.877 13.763L134.258 13.7174C134.35 13.3983 134.407 13.1076 134.436 12.8454C134.464 12.5889 134.476 12.3324 134.476 12.0816C134.476 10.8163 134.19 9.6935 133.612 8.71317C133.033 7.73283 132.255 6.96908 131.265 6.41622M126.159 9.16344C126.634 8.86136 127.201 8.70747 127.848 8.70747C128.443 8.70747 128.947 8.83856 129.37 9.10644C129.794 9.37432 130.114 9.7505 130.326 10.2407C130.412 10.4345 130.481 10.651 130.532 10.879L124.854 10.9132C124.906 10.7365 124.974 10.5712 125.049 10.4174C125.306 9.88159 125.678 9.46552 126.153 9.16344" fill="#1544CE"/>
<path d="M144.67 15.1537C144.246 15.3304 143.766 15.4216 143.228 15.4216C142.69 15.4216 142.157 15.2905 141.688 15.0341C141.219 14.7776 140.858 14.4185 140.595 13.9511C140.331 13.4895 140.205 12.9537 140.205 12.3495C140.205 11.7454 140.337 11.2381 140.595 10.7878C140.852 10.3319 141.213 9.97848 141.676 9.7163C142.134 9.45982 142.65 9.32873 143.228 9.32873C143.748 9.32873 144.212 9.40852 144.619 9.56811C145.025 9.7277 145.38 9.97848 145.683 10.3148L148.356 7.64163C147.692 6.96338 146.931 6.45041 146.078 6.10274C145.225 5.75506 144.275 5.57837 143.233 5.57837C141.865 5.57837 140.635 5.87475 139.536 6.46181C138.437 7.04887 137.572 7.85822 136.943 8.88415C136.313 9.91009 135.998 11.0728 135.998 12.3723C135.998 13.6718 136.307 14.8118 136.931 15.8491C137.55 16.8807 138.414 17.6901 139.507 18.2828C140.606 18.8699 141.837 19.1663 143.205 19.1663C144.287 19.1663 145.254 18.9839 146.107 18.6191C146.96 18.2543 147.738 17.7129 148.442 17.0004L145.769 14.3786C145.46 14.7206 145.099 14.9771 144.676 15.1537" fill="#1544CE"/>
<path d="M70.9928 15.1537C70.5692 15.3304 70.0884 15.4216 69.5504 15.4216C69.0123 15.4216 68.48 15.2905 68.0107 15.0341C67.5413 14.7776 67.1807 14.4185 66.9174 13.9511C66.6541 13.4895 66.5282 12.9537 66.5282 12.3495C66.5282 11.7454 66.6598 11.2381 66.9174 10.7878C67.175 10.3319 67.5356 9.97848 67.9992 9.7163C68.4571 9.45982 68.9723 9.32873 69.5504 9.32873C70.0712 9.32873 70.5349 9.40852 70.9413 9.56811C71.3477 9.7277 71.7025 9.97848 72.0059 10.3148L74.6789 7.64163C74.015 6.96338 73.2537 6.45041 72.4008 6.10274C71.548 5.75506 70.5978 5.57837 69.5561 5.57837C68.1881 5.57837 66.9575 5.87475 65.8585 6.46181C64.7595 7.04887 63.8952 7.85822 63.2656 8.88415C62.636 9.91009 62.3212 11.0728 62.3212 12.3723C62.3212 13.6718 62.6303 14.8118 63.2542 15.8491C63.8723 16.8807 64.7366 17.6901 65.8299 18.2828C66.9289 18.8699 68.1595 19.1663 69.5275 19.1663C70.6093 19.1663 71.5766 18.9839 72.4295 18.6191C73.2823 18.2543 74.0608 17.7129 74.7648 17.0004L72.0918 14.3786C71.7827 14.7206 71.4221 14.9771 70.9985 15.1537" fill="#1544CE"/>
<path d="M160.079 5.87475H157.108V0.5H152.952V5.87475H150.016V9.37432H152.952V19.1606H157.108V9.37432H160.079V5.87475Z" fill="#1544CE"/>
<path d="M85.5942 6.46181C84.5067 5.87475 83.2875 5.57837 81.9367 5.57837C80.5859 5.57837 79.3209 5.87475 78.2391 6.47321C77.1573 7.07167 76.3102 7.87532 75.6863 8.89555C75.0681 9.91009 74.7533 11.05 74.7533 12.3153C74.7533 13.5806 75.0681 14.7548 75.6977 15.7921C76.3273 16.8237 77.1802 17.6445 78.262 18.2486C79.3381 18.8528 80.563 19.1549 81.931 19.1549C83.299 19.1549 84.5239 18.8528 85.6 18.2486C86.676 17.6445 87.5346 16.8294 88.1642 15.8035C88.7939 14.7776 89.1087 13.6148 89.1087 12.3153C89.1087 11.0158 88.7939 9.90439 88.1642 8.87845C87.5346 7.85252 86.676 7.04887 85.5885 6.45611M84.5124 13.9625C84.272 14.4356 83.9229 14.7947 83.4707 15.0455C83.0185 15.2962 82.5091 15.4216 81.931 15.4216C81.3529 15.4216 80.8435 15.2962 80.3913 15.0455C79.9391 14.7947 79.5899 14.4356 79.3381 13.9625C79.0862 13.4895 78.9603 12.9537 78.9603 12.3438C78.9603 11.7739 79.0862 11.2552 79.3381 10.7935C79.5899 10.3319 79.9391 9.96708 80.3913 9.7106C80.8435 9.45412 81.3529 9.32303 81.931 9.32303C82.5091 9.32303 83.0128 9.45412 83.4535 9.7106C83.8943 9.97278 84.2377 10.3262 84.4895 10.7821C84.7414 11.2381 84.8673 11.7568 84.8673 12.3438C84.8673 12.9309 84.7471 13.4895 84.501 13.9625" fill="#1544CE"/>
<path d="M25.9576 5.87475V6.92918C25.6142 6.6043 25.2135 6.33072 24.7556 6.11414C24.0458 5.77216 23.2502 5.60687 22.3688 5.60687C21.1668 5.60687 20.0849 5.89755 19.1291 6.47321C18.1732 7.05457 17.4291 7.85252 16.891 8.87846C16.353 9.90439 16.084 11.0671 16.084 12.3666C16.084 13.6661 16.353 14.8232 16.891 15.8263C17.4291 16.8351 18.1732 17.6331 19.1176 18.2315C20.0621 18.83 21.1439 19.1264 22.3688 19.1264C23.2331 19.1264 24.0229 18.9554 24.7441 18.6191C25.2078 18.4025 25.6084 18.129 25.9576 17.8041V24.3416H30.0559V5.87475H25.9576ZM23.2044 15.4159C22.6492 15.4159 22.1455 15.2848 21.6933 15.0284C21.2412 14.7719 20.8977 14.4128 20.6573 13.9454C20.4169 13.4838 20.291 12.9594 20.291 12.3666C20.291 11.7739 20.4169 11.2495 20.6688 10.7878C20.9206 10.3262 21.2641 9.96139 21.7105 9.7049C22.1513 9.44842 22.6607 9.31733 23.2331 9.31733C23.8054 9.31733 24.3149 9.44842 24.7441 9.7049C25.1734 9.96709 25.5169 10.3205 25.7687 10.7764C26.0206 11.2324 26.1465 11.7511 26.1465 12.3381C26.1465 13.2444 25.8717 13.9853 25.3223 14.5553C24.7728 15.1253 24.0687 15.4102 23.2044 15.4102" fill="#1544CE"/>
<path d="M56.2539 6.97478C55.899 6.6442 55.4926 6.36492 55.0233 6.14263C54.3135 5.80066 53.5179 5.63537 52.6365 5.63537C51.4287 5.63537 50.3584 5.92605 49.4139 6.50171C48.4695 7.08307 47.7197 7.88102 47.1759 8.90695C46.6264 9.93289 46.3517 11.0956 46.3517 12.3951C46.3517 13.6946 46.6264 14.8517 47.1759 15.8548C47.7254 16.8636 48.4752 17.6616 49.4311 18.26C50.387 18.8585 51.4573 19.1549 52.6422 19.1549C53.5408 19.1549 54.3479 18.9839 55.0576 18.6476C55.5155 18.431 55.9162 18.1575 56.2596 17.8326V18.887H60.335V5.89755H56.2596V6.97478H56.2539ZM53.5008 15.4444C52.9455 15.4444 52.4418 15.3133 52.0011 15.0569C51.5604 14.8004 51.2112 14.4413 50.9479 13.9739C50.6846 13.5123 50.5587 12.9879 50.5587 12.3951C50.5587 11.8024 50.6904 11.278 50.9479 10.8163C51.2055 10.3547 51.5604 9.98988 52.0011 9.7334C52.4418 9.47692 52.9398 9.34583 53.5008 9.34583C54.0617 9.34583 54.5883 9.47692 55.0405 9.7334C55.4927 9.99558 55.8304 10.349 56.065 10.8049C56.2997 11.2609 56.4142 11.7796 56.4142 12.3666C56.4142 13.2729 56.1509 14.0138 55.6186 14.5838C55.0863 15.1537 54.3822 15.4387 53.5008 15.4387" fill="#1544CE"/>
<path d="M165.923 5.60687H166.713L165.579 4.18766C165.722 4.17056 165.854 4.14206 165.968 4.08507C166.134 3.99957 166.266 3.88558 166.358 3.74309C166.449 3.6006 166.495 3.42391 166.495 3.23012C166.495 3.03634 166.449 2.87105 166.358 2.72286C166.266 2.57467 166.14 2.46067 165.974 2.37518C165.808 2.28968 165.619 2.24979 165.408 2.24979H164.08V5.61257H164.732V4.21046H164.847L165.923 5.61257V5.60687ZM164.726 2.77415H165.339C165.499 2.77415 165.625 2.81975 165.711 2.90524C165.797 2.99074 165.843 3.10473 165.843 3.23582C165.843 3.36691 165.797 3.48661 165.711 3.5664C165.625 3.6462 165.499 3.68609 165.333 3.68609H164.726V2.76845V2.77415Z" fill="#1544CE"/>
<path d="M165.207 7.51624C163.267 7.51624 161.687 5.94315 161.687 4.01097C161.687 2.0788 163.267 0.505699 165.207 0.505699C167.148 0.505699 168.727 2.0788 168.727 4.01097C168.727 5.94315 167.148 7.51624 165.207 7.51624ZM165.207 1.13836C163.622 1.13836 162.328 2.42647 162.328 4.00527C162.328 5.58407 163.622 6.87219 165.207 6.87219C166.793 6.87219 168.086 5.58407 168.086 4.00527C168.086 2.42647 166.793 1.13836 165.207 1.13836Z" fill="#1544CE"/>
<path d="M101.489 26.8038C102.016 26.2224 102.651 25.7779 103.384 25.4644C104.117 25.1509 104.924 24.997 105.794 24.997C106.664 24.997 107.454 25.1509 108.192 25.4644C108.936 25.7779 109.56 26.2395 110.064 26.8608C110.567 27.4763 110.876 28.2515 110.985 29.1805H113.28C113.172 27.9437 112.788 26.8608 112.13 25.9203C111.472 24.9799 110.596 24.2504 109.514 23.726C108.427 23.2016 107.185 22.9394 105.794 22.9394C104.506 22.9394 103.35 23.1731 102.325 23.6348C101.3 24.1022 100.43 24.7348 99.7207 25.5328C99.0109 26.3307 98.4671 27.2313 98.0894 28.2344C97.7116 29.2318 97.5284 30.2692 97.5284 31.335V31.8366C97.5284 33.0848 97.7345 34.2418 98.1466 35.3019C98.5587 36.3621 99.1483 37.2797 99.9038 38.0606C100.659 38.8357 101.569 39.4399 102.628 39.8673C103.687 40.2948 104.866 40.5057 106.166 40.5057C107.694 40.5057 109.051 40.2321 110.23 39.685C111.409 39.1378 112.376 38.374 113.126 37.3994V32.0019H105.57V33.877H111.014V36.6926C110.613 37.0802 110.144 37.4165 109.6 37.7072C108.61 38.2315 107.465 38.4937 106.166 38.4937C105.244 38.4937 104.403 38.3512 103.63 38.0606C102.857 37.7699 102.188 37.3424 101.621 36.7667C101.054 36.1968 100.614 35.4786 100.299 34.618C99.984 33.7573 99.8294 32.7542 99.8294 31.6086C99.8294 30.5997 99.9725 29.6935 100.264 28.8842C100.556 28.0748 100.963 27.3852 101.495 26.8038H101.489Z" fill="#1544CE"/>
<path d="M116.995 23.3954H114.792V40.0896H116.995V23.3954Z" fill="#1544CE"/>
<path d="M143.21 29.3059C142.69 28.736 142.071 28.2857 141.35 27.9551C140.629 27.6245 139.833 27.4649 138.963 27.4649C138.03 27.4649 137.178 27.6644 136.405 28.0691C135.632 28.4738 135.008 29.095 134.533 29.9329C134.527 29.95 134.516 29.9614 134.51 29.9785V23.3954H132.307V40.0896H134.052V37.5818C134.104 37.6901 134.155 37.7984 134.213 37.901C134.67 38.7445 135.294 39.3943 136.084 39.8331C136.874 40.2777 137.773 40.4943 138.786 40.4943C139.69 40.4943 140.515 40.329 141.253 39.9927C141.997 39.6565 142.632 39.1948 143.17 38.6077C143.708 38.0207 144.115 37.3481 144.401 36.5844C144.681 35.8206 144.825 35.0056 144.825 34.1392V33.7288C144.825 32.8568 144.687 32.0474 144.412 31.2951C144.138 30.5427 143.737 29.8759 143.216 29.3059H143.21ZM142.106 36.3507C141.768 37.046 141.293 37.5875 140.68 37.9865C140.068 38.3854 139.347 38.5792 138.523 38.5792C137.801 38.5792 137.132 38.4196 136.502 38.1005C135.872 37.7813 135.369 37.3253 134.985 36.7268C134.602 36.1341 134.413 35.4159 134.413 34.5781V33.5237C134.413 32.6573 134.602 31.9107 134.974 31.2951C135.352 30.6795 135.85 30.2065 136.479 29.8759C137.109 29.551 137.79 29.3857 138.523 29.3857C139.335 29.3857 140.045 29.5738 140.658 29.9443C141.27 30.3205 141.751 30.8505 142.094 31.5345C142.438 32.2184 142.609 33.0221 142.609 33.934C142.609 34.846 142.443 35.6553 142.106 36.345V36.3507Z" fill="#1544CE"/>
<path d="M153.862 28.1831C153.067 27.8867 152.042 27.7385 150.783 27.7385C150.417 27.7385 150.033 27.7385 149.633 27.7499C149.232 27.7556 148.848 27.7727 148.471 27.7955C148.093 27.8183 147.738 27.8468 147.4 27.8753V29.7961C147.738 29.7676 148.133 29.7448 148.596 29.7277C149.054 29.7106 149.541 29.6992 150.045 29.6821C150.548 29.665 151.041 29.6593 151.516 29.6593C152.357 29.6593 152.998 29.8702 153.433 30.2977C153.868 30.7251 154.086 31.3578 154.086 32.1956V32.492H150.983C149.924 32.492 149.026 32.6402 148.27 32.9366C147.52 33.233 146.948 33.6718 146.559 34.2532C146.17 34.8346 145.975 35.5584 145.975 36.4248C145.975 37.2911 146.152 37.9808 146.513 38.5735C146.874 39.1663 147.383 39.6223 148.053 39.9357C148.717 40.2492 149.512 40.4031 150.428 40.4031C151.287 40.4031 152.019 40.2492 152.62 39.9471C153.227 39.6451 153.702 39.1948 154.046 38.6077C154.212 38.3284 154.343 38.015 154.446 37.6673V40.0839H156.192V32.3552C156.192 31.2096 156.003 30.3034 155.62 29.6308C155.236 28.9583 154.647 28.4738 153.851 28.1774L153.862 28.1831ZM153.576 37.4222C153.261 37.8725 152.866 38.1917 152.391 38.3854C151.916 38.5792 151.418 38.6704 150.897 38.6704C150.01 38.6704 149.329 38.4652 148.854 38.0549C148.379 37.6445 148.144 37.103 148.144 36.4305C148.144 35.7579 148.379 35.2107 148.854 34.7833C149.329 34.3558 150.01 34.1449 150.897 34.1449H154.091V35.5641C154.063 36.3564 153.891 36.9776 153.576 37.4279V37.4222Z" fill="#1544CE"/>
<path d="M160.079 23.3954H157.875V40.0896H160.079V23.3954Z" fill="#1544CE"/>
<path d="M127.126 33.0734C127.126 31.2267 125.627 29.7334 123.772 29.7334C121.918 29.7334 120.418 31.2267 120.418 33.0734H121.42C121.42 31.7796 122.473 30.7308 123.772 30.7308C125.072 30.7308 126.125 31.7796 126.125 33.0734C126.125 34.3672 125.072 35.4159 123.772 35.4159V36.4134C125.627 36.4134 127.126 34.9144 127.126 33.0734Z" fill="#1544CE"/>
<path d="M125.375 33.1076C125.392 32.2241 124.688 31.4946 123.801 31.4718H123.767C122.897 31.4718 122.181 32.1671 122.164 33.0392V33.0734C122.164 33.9397 122.862 34.6522 123.738 34.675H123.772C124.642 34.675 125.358 33.9796 125.375 33.1076ZM123.166 33.0734V33.062C123.171 32.7371 123.44 32.4692 123.772 32.4692H123.784C123.944 32.4692 124.099 32.5376 124.207 32.6573C124.322 32.7713 124.379 32.9252 124.373 33.0848C124.368 33.4097 124.099 33.6718 123.767 33.6718H123.755C123.423 33.6661 123.166 33.3983 123.166 33.0677V33.0734Z" fill="#1544CE"/>
<path d="M123.772 27.9893C120.95 27.9893 118.667 30.2692 118.667 33.0734H119.668C119.668 30.8163 121.511 28.9867 123.772 28.9867C126.033 28.9867 127.876 30.822 127.876 33.0734C127.876 35.3247 126.033 37.16 123.772 37.16V38.1575C126.594 38.1575 128.878 35.8833 128.878 33.0734C128.878 30.2635 126.594 27.9893 123.772 27.9893Z" fill="#1544CE"/>
<path d="M123.772 26.2395V27.237C127.001 27.237 129.628 29.8531 129.628 33.0734H130.629C130.629 29.3002 127.556 26.2452 123.772 26.2452V26.2395Z" fill="#1544CE"/>
<path d="M123.772 38.9041C123.011 38.9041 122.284 38.7616 121.62 38.4937C120.693 38.129 119.886 37.5362 119.262 36.7838V38.2144C119.376 38.3113 119.491 38.4082 119.605 38.4994C120.761 39.3829 122.204 39.9072 123.772 39.9072C125.632 39.9072 127.315 39.172 128.552 37.9751L127.853 37.2569C126.8 38.2771 125.358 38.9098 123.772 38.9098V38.9041Z" fill="#1544CE"/>
</g>
<defs>
<clipPath id="clip0_574_9845">
<rect width="169" height="41" fill="white" transform="translate(0 0.5)"/>
</clipPath>
</defs>
</svg>
